<?xml version="1.0" encoding="utf-8"?>
<!-- Generator: Adobe Illustrator 26.1.0, SVG Export Plug-In . SVG Version: 6.00 Build 0)  -->
<svg version="1.1" id="Layer_1" xmlns="http://www.w3.org/2000/svg" xmlns:xlink="http://www.w3.org/1999/xlink" x="0px" y="0px"
	 viewBox="0 0 1024 700" style="enable-background:new 0 0 1024 700;" xml:space="preserve">
<style type="text/css">
	.st0{fill:#2ECC71;}
	.st1{fill:#ECF0F1;}
	.st2{fill:#BDC3C7;}
</style>
<g>
	<g id="XMLID_1_">
		<g>
			<path d="M512.64,29.82l-0.11,38.54L474,68.26l0.09-33.68C486.42,31.44,499.34,29.79,512.64,29.82z"/>
			<path d="M512.54,68.36l0.11-38.54c13.31,0.04,26.21,1.76,38.52,4.97l-0.09,33.68L512.54,68.36z"/>
			<path d="M474.09,34.58L474,68.26l-38.54-0.11l0.05-17.92C447.46,43.36,460.41,38.05,474.09,34.58z"/>
			<path d="M551.07,68.47l0.09-33.68c13.66,3.55,26.58,8.93,38.49,15.87l-0.05,17.92L551.07,68.47z"/>
			<path d="M435.51,50.23l-0.05,17.92l-24.89-0.07C418.24,61.34,426.6,55.35,435.51,50.23z"/>
			<path d="M589.61,68.58l0.05-17.92c8.88,5.17,17.2,11.21,24.84,17.99L589.61,68.58z"/>
			<path d="M589.61,68.58l24.89,0.07c4.82,4.28,9.36,8.85,13.61,13.69l-0.07,24.89l-29.45-0.08c-2.84-3.21-5.87-6.25-9.06-9.11
				L589.61,68.58z"/>
			<path d="M551.07,68.47l38.54,0.11l-0.08,29.45c-11.09-9.99-24.13-17.86-38.47-22.98L551.07,68.47z"/>
			<path d="M512.54,68.36l38.54,0.11l-0.02,6.58C539.01,70.75,526.05,68.4,512.54,68.36z"/>
			<path d="M474,68.26l38.54,0.11c-13.52-0.04-26.49,2.24-38.56,6.47L474,68.26z"/>
			<path d="M435.46,68.15L474,68.26l-0.02,6.58c-14.37,5.04-27.46,12.84-38.6,22.76L435.46,68.15z"/>
			<path d="M410.57,68.08l24.89,0.07l-0.08,29.45c-3.21,2.84-6.25,5.87-9.11,9.06l-29.45-0.08l0.07-24.89
				C401.16,76.87,405.73,72.33,410.57,68.08z"/>
			<path class="st0" d="M512.54,68.36l-0.11,38.54l-38.54-0.11l0.09-31.96C486.05,70.61,499.02,68.32,512.54,68.36z"/>
			<path class="st0" d="M512.43,106.9l0.11-38.54c13.52,0.04,26.48,2.39,38.52,6.69l-0.09,31.96L512.43,106.9z"/>
			<path d="M473.98,74.83l-0.09,31.96l-38.54-0.11l0.03-9.09C446.52,87.67,459.61,79.87,473.98,74.83z"/>
			<path d="M550.97,107.01l0.09-31.96c14.35,5.12,27.38,12.99,38.47,22.98l-0.03,9.09L550.97,107.01z"/>
			<path d="M396.88,81.69l-0.07,24.89l-17.91-0.05C384.07,97.65,390.1,89.33,396.88,81.69z"/>
			<path d="M628.04,107.22l0.07-24.89c6.74,7.68,12.73,16.03,17.85,24.94L628.04,107.22z"/>
			<path class="st0" d="M435.38,97.6l-0.03,9.09l-9.09-0.03C429.13,103.47,432.17,100.44,435.38,97.6z"/>
			<path class="st0" d="M589.5,107.12l0.03-9.09c3.19,2.86,6.22,5.91,9.06,9.11L589.5,107.12z"/>
			<path d="M628.04,107.22l17.91,0.05c6.87,11.95,12.18,24.9,15.66,38.58l-33.68-0.09L628.04,107.22z"/>
			<path d="M598.59,107.14l29.45,0.08l-0.11,38.54l-6.58-0.02C616.32,131.37,608.52,118.29,598.59,107.14z"/>
			<path class="st0" d="M589.5,107.12l9.09,0.03c9.93,11.14,17.72,24.23,22.76,38.6l-31.96-0.09L589.5,107.12z"/>
			<path d="M550.97,107.01l38.54,0.11l-0.11,38.54l-10.31-0.03c-6.73-11.72-16.46-21.5-28.15-28.3L550.97,107.01z"/>
			<path class="st0" d="M512.43,106.9l38.54,0.11l-0.03,10.31C539.62,110.73,526.47,106.94,512.43,106.9z"/>
			<path class="st0" d="M473.89,106.79l38.54,0.11c-14.04-0.04-27.21,3.68-38.57,10.21L473.89,106.79z"/>
			<path d="M435.35,106.69l38.54,0.11l-0.03,10.31c-11.72,6.74-21.5,16.46-28.3,28.15l-10.31-0.03L435.35,106.69z"/>
			<path class="st0" d="M426.26,106.66l9.09,0.03l-0.11,38.54l-31.96-0.09C408.41,130.79,416.27,117.75,426.26,106.66z"/>
			<path d="M396.82,106.58l29.45,0.08c-9.99,11.09-17.86,24.13-22.98,38.47l-6.58-0.02L396.82,106.58z"/>
			<path d="M378.9,106.53l17.91,0.05l-0.11,38.54l-33.68-0.09C366.58,131.36,371.97,118.44,378.9,106.53z"/>
			<path d="M512.43,106.9l-0.11,38.54l-38.54-0.11l0.08-28.22C485.22,110.58,498.39,106.86,512.43,106.9z"/>
			<path d="M512.32,145.44l0.11-38.54c14.04,0.04,27.19,3.83,38.51,10.42l-0.08,28.22L512.32,145.44z"/>
			<path d="M473.86,117.11l-0.08,28.22l-28.22-0.08C452.36,133.57,462.14,123.85,473.86,117.11z"/>
			<path d="M550.86,145.55l0.08-28.22c11.69,6.8,21.41,16.58,28.15,28.3L550.86,145.55z"/>
			<path d="M627.94,145.76l33.68,0.09c3.14,12.33,4.79,25.25,4.75,38.55l-38.54-0.11L627.94,145.76z"/>
			<path d="M621.36,145.74l6.58,0.02l-0.11,38.54C627.87,170.78,625.58,157.81,621.36,145.74z"/>
			<path class="st0" d="M589.4,145.65l31.96,0.09c4.23,12.07,6.51,25.04,6.47,38.56l-38.54-0.11L589.4,145.65z"/>
			<path d="M579.08,145.62l10.31,0.03l-0.11,38.54C589.33,170.15,585.61,156.98,579.08,145.62z"/>
			<path d="M550.86,145.55l28.22,0.08c6.53,11.35,10.25,24.53,10.21,38.57l-38.54-0.11L550.86,145.55z"/>
			<path d="M512.32,145.44l38.54,0.11l-0.11,38.54C550.81,162.8,533.61,145.5,512.32,145.44z"/>
			<path d="M473.78,145.33l38.54,0.11c-21.28-0.06-38.59,17.14-38.65,38.43L473.78,145.33z"/>
			<path d="M445.56,145.25l28.22,0.08l-0.11,38.54l-38.54-0.11C435.18,169.72,438.97,156.57,445.56,145.25z"/>
			<path d="M435.25,145.22l10.31,0.03c-6.59,11.32-10.38,24.47-10.42,38.51L435.25,145.22z"/>
			<path class="st0" d="M403.29,145.13l31.96,0.09l-0.11,38.54l-38.54-0.11C396.64,170.14,398.99,157.18,403.29,145.13z"/>
			<path d="M396.71,145.12l6.58,0.02c-4.29,12.04-6.65,25-6.69,38.52L396.71,145.12z"/>
			<path d="M363.03,145.02l33.68,0.09l-0.11,38.54l-38.54-0.11C358.1,170.24,359.82,157.34,363.03,145.02z"/>
			<path class="st1" d="M512.32,145.44l-0.11,38.54l-38.54-0.11C473.74,162.58,491.04,145.38,512.32,145.44z"/>
			<path class="st1" d="M512.21,183.98l0.11-38.54c21.29,0.06,38.49,17.36,38.43,38.65L512.21,183.98z"/>
			<path d="M627.83,184.3l38.54,0.11c-0.04,13.31-1.76,26.21-4.97,38.52l-33.68-0.09L627.83,184.3z"/>
			<path class="st0" d="M589.29,184.19l38.54,0.11c-0.04,13.52-2.39,26.48-6.69,38.52l-7.07-0.02
				c-7.64-6.78-15.96-12.82-24.84-17.99L589.29,184.19z"/>
			<path d="M550.75,184.08l38.54,0.11c-0.02,6.65-0.88,13.1-2.47,19.25c-11.23-6.27-23.34-11.18-36.08-14.49L550.75,184.08z"/>
			<path class="st1" d="M512.21,183.98l38.54,0.11c0,1.62-0.11,3.22-0.31,4.78C538.22,185.71,525.41,184.01,512.21,183.98z"/>
			<path class="st1" d="M473.68,183.87l38.54,0.11c-13.2-0.04-26.02,1.59-38.26,4.68C473.77,187.09,473.67,185.49,473.68,183.87z"/>
			<path d="M435.14,183.76l38.54,0.11l-0.01,4.86c-12.76,3.24-24.89,8.08-36.16,14.29C435.94,196.86,435.12,190.41,435.14,183.76z"
				/>
			<path class="st0" d="M396.6,183.65l38.54,0.11l-0.06,20.62c-8.91,5.12-17.27,11.11-24.94,17.85l-7.07-0.02
				C398.84,210.15,396.56,197.17,396.6,183.65z"/>
			<path d="M358.06,183.55l38.54,0.11l-0.11,38.54l-33.68-0.09C359.68,209.77,358.03,196.85,358.06,183.55z"/>
			<path d="M396.49,222.19l0.11-38.54c-0.04,13.52,2.24,26.49,6.47,38.56L396.49,222.19z"/>
			<path class="st0" d="M435.08,204.38l0.06-20.62c-0.02,6.65,0.8,13.1,2.37,19.26C436.69,203.47,435.89,203.92,435.08,204.38z"/>
			<path class="st2" d="M512.21,183.98l-0.11,38.54c-19.66-0.05-35.85-14.83-38.15-33.86C486.2,185.56,499.01,183.94,512.21,183.98z
				"/>
			<path class="st2" d="M512.11,222.51l0.11-38.54c13.2,0.04,26.01,1.73,38.23,4.89C548.04,207.88,531.77,222.57,512.11,222.51z"/>
			<path d="M589.29,184.19l-0.06,20.62c-0.8-0.46-1.6-0.92-2.42-1.37C588.41,197.29,589.27,190.84,589.29,184.19z"/>
			<path d="M627.83,184.3l-0.11,38.54l-6.58-0.02C625.44,210.78,627.79,197.81,627.83,184.3z"/>
			<path d="M473.66,188.73c0.1-0.03,0.2-0.05,0.29-0.07c2.3,19.03,18.49,33.8,38.15,33.86l-38.54-0.11L473.66,188.73z"/>
			<path d="M550.44,188.87c0.1,0.02,0.19,0.04,0.29,0.08l-0.09,33.68l-38.54-0.11C531.77,222.57,548.04,207.88,550.44,188.87z"/>
			<path d="M473.66,188.73l-0.09,33.68l-28.22-0.08c-3.44-5.98-6.09-12.46-7.84-19.31C448.77,196.81,460.9,191.97,473.66,188.73z"/>
			<path d="M550.64,222.62l0.09-33.68c12.74,3.31,24.84,8.22,36.08,14.49c-1.79,6.84-4.47,13.3-7.95,19.26L550.64,222.62z"/>
			<path d="M435.08,204.38c0.8-0.46,1.61-0.91,2.42-1.36c1.75,6.85,4.4,13.33,7.84,19.31l-10.31-0.03L435.08,204.38z"/>
			<path d="M586.82,203.44c0.81,0.45,1.61,0.91,2.42,1.37l-0.05,17.92l-10.31-0.03C582.34,216.74,585.03,210.27,586.82,203.44z"/>
			<path d="M435.08,204.38l-0.05,17.92l-24.89-0.07C417.81,215.49,426.17,209.5,435.08,204.38z"/>
			<path d="M589.18,222.73l0.05-17.92c8.88,5.17,17.2,11.21,24.84,17.99L589.18,222.73z"/>
			<path d="M627.72,222.84l33.68,0.09c-3.55,13.66-8.94,26.58-15.87,38.49c-5.12-8.91-11.11-17.26-17.85-24.94L627.72,222.84z"/>
			<path d="M621.14,222.82l6.58,0.02l-0.04,13.65c-2.68-3.05-5.48-6-8.39-8.83C619.95,226.06,620.56,224.45,621.14,222.82z"/>
			<path d="M614.08,222.8l7.07,0.02c-0.58,1.63-1.2,3.24-1.85,4.83C617.6,225.99,615.86,224.38,614.08,222.8z"/>
			<path d="M589.18,222.73l24.89,0.07c1.78,1.58,3.52,3.19,5.22,4.85c-5.08,12.45-12.27,23.81-21.13,33.64
				c-2.84-3.21-5.87-6.25-9.06-9.11L589.18,222.73z"/>
			<path d="M578.87,222.7l10.31,0.03l-0.08,29.45c-6.41-5.77-13.47-10.84-21.05-15.07C572.19,232.76,575.83,227.93,578.87,222.7z"/>
			<path d="M550.64,222.62l28.22,0.08c-3.04,5.23-6.68,10.05-10.82,14.41c-5.54-3.09-11.36-5.74-17.42-7.91L550.64,222.62z"/>
			<path d="M512.11,222.51l38.54,0.11l-0.02,6.58C538.58,224.91,525.62,222.55,512.11,222.51z"/>
			<path d="M473.57,222.41l38.54,0.11c-13.52-0.04-26.49,2.24-38.56,6.47L473.57,222.41z"/>
			<path d="M445.35,222.33l28.22,0.08l-0.02,6.58c-6.07,2.13-11.91,4.75-17.47,7.81C451.97,232.42,448.35,227.57,445.35,222.33z"/>
			<path d="M435.03,222.3l10.31,0.03c3.01,5.24,6.62,10.09,10.74,14.47c-7.61,4.19-14.7,9.22-21.14,14.96L435.03,222.3z"/>
			<path d="M410.14,222.23l24.89,0.07l-0.08,29.45c-3.21,2.84-6.25,5.87-9.11,9.06c-8.8-9.88-15.93-21.28-20.94-33.76
				C406.6,225.41,408.35,223.8,410.14,222.23z"/>
			<path class="st0" d="M403.07,222.21l7.07,0.02c-1.79,1.57-3.54,3.17-5.24,4.82C404.25,225.46,403.64,223.84,403.07,222.21z"/>
			<path d="M396.49,222.19l6.58,0.02c0.57,1.63,1.18,3.25,1.82,4.84c-2.92,2.82-5.74,5.75-8.44,8.79L396.49,222.19z"/>
			<path d="M362.82,222.1l33.68,0.09l-0.04,13.65c-6.78,7.64-12.82,15.96-17.98,24.84C371.6,248.73,366.29,235.78,362.82,222.1z"/>
			<path d="M512.11,222.51L512,261.05c-14.04-0.04-27.19-3.83-38.51-10.42l0.06-21.65C485.62,224.76,498.59,222.48,512.11,222.51z"
				/>
			<path d="M512,261.05l0.11-38.54c13.52,0.04,26.48,2.39,38.52,6.69l-0.06,21.65C539.21,257.37,526.04,261.09,512,261.05z"/>
			<path d="M396.46,235.84c2.7-3.04,5.51-5.97,8.44-8.79c5.01,12.47,12.14,23.88,20.94,33.76l-29.45-0.08L396.46,235.84z"/>
			<path d="M619.29,227.65c2.91,2.83,5.71,5.78,8.39,8.83l-0.07,24.89l-29.45-0.08C607.02,251.46,614.21,240.1,619.29,227.65z"/>
			<path d="M473.55,228.99l-0.06,21.65c-6.46-3.76-12.32-8.43-17.41-13.84C461.64,233.73,467.48,231.11,473.55,228.99z"/>
			<path d="M550.57,250.85l0.06-21.65c6.06,2.16,11.88,4.81,17.42,7.91C562.93,242.49,557.05,247.12,550.57,250.85z"/>
			<path d="M396.46,235.84l-0.07,24.89l-17.91-0.05C383.64,251.8,389.67,243.48,396.46,235.84z"/>
			<path d="M627.61,261.37l0.07-24.89c6.74,7.68,12.73,16.03,17.85,24.94L627.61,261.37z"/>
			<path class="st0" d="M456.08,236.79c5.09,5.41,10.94,10.08,17.41,13.84l-0.03,10.31l-38.54-0.11l0.03-9.09
				C441.39,246.01,448.48,240.99,456.08,236.79z"/>
			<path class="st0" d="M550.57,250.85c6.48-3.72,12.37-8.36,17.48-13.74c7.58,4.23,14.65,9.3,21.05,15.07l-0.03,9.09l-38.54-0.11
				L550.57,250.85z"/>
			<path class="st0" d="M473.46,260.94l0.03-10.31c11.32,6.59,24.47,10.38,38.51,10.42L473.46,260.94z"/>
			<path class="st0" d="M550.57,250.85l-0.03,10.31L512,261.05C526.04,261.09,539.21,257.37,550.57,250.85z"/>
			<path class="st0" d="M434.95,251.75l-0.03,9.09l-9.09-0.03C428.7,257.62,431.74,254.59,434.95,251.75z"/>
			<path class="st0" d="M589.08,261.27l0.03-9.09c3.19,2.86,6.22,5.91,9.06,9.11L589.08,261.27z"/>
			<path d="M627.61,261.37l17.91,0.05c-5.17,8.88-11.2,17.2-17.98,24.84L627.61,261.37z"/>
			<path d="M598.16,261.29l29.45,0.08l-0.07,24.89c-2.7,3.04-5.51,5.97-8.44,8.79C614.09,282.58,606.97,271.17,598.16,261.29z"/>
			<path class="st0" d="M589.08,261.27l9.09,0.03c-2.86,3.19-5.91,6.22-9.11,9.06L589.08,261.27z"/>
			<path class="st0" d="M550.54,261.16l38.54,0.11l-0.03,9.09c-6.44,5.74-13.53,10.76-21.14,14.95
				c-5.09-5.41-10.94-10.08-17.41-13.84L550.54,261.16z"/>
			<path class="st0" d="M512,261.05l38.54,0.11l-0.03,10.31C539.19,264.89,526.04,261.09,512,261.05z"/>
			<path class="st0" d="M473.46,260.94l38.54,0.11c-14.04-0.04-27.21,3.68-38.57,10.21L473.46,260.94z"/>
			<path class="st0" d="M434.92,260.84l38.54,0.11l-0.03,10.31c-6.48,3.72-12.37,8.36-17.48,13.74c-7.58-4.23-14.65-9.3-21.05-15.07
				L434.92,260.84z"/>
			<path class="st0" d="M425.84,260.81l9.09,0.03l-0.03,9.09C431.71,267.06,428.68,264.02,425.84,260.81z"/>
			<path d="M396.39,260.73l29.45,0.08c-8.86,9.83-16.05,21.19-21.13,33.64c-2.91-2.83-5.71-5.78-8.39-8.83L396.39,260.73z"/>
			<path d="M378.47,260.68l17.91,0.05l-0.07,24.89C389.58,277.94,383.59,269.59,378.47,260.68z"/>
			<path d="M512,261.05l-0.11,38.54c-13.52-0.04-26.48-2.39-38.52-6.69l0.06-21.65C484.79,264.73,497.96,261.01,512,261.05z"/>
			<path d="M511.89,299.59l0.11-38.54c14.04,0.04,27.19,3.83,38.51,10.42l-0.06,21.65C538.38,297.35,525.41,299.63,511.89,299.59z"
				/>
			<path d="M425.84,260.81c2.84,3.21,5.87,6.25,9.06,9.11l-0.08,29.45l-24.89-0.07c-1.78-1.58-3.52-3.19-5.22-4.85
				C409.79,282.01,416.98,270.64,425.84,260.81z"/>
			<path d="M589.05,270.36c3.21-2.84,6.25-5.87,9.11-9.06c8.8,9.88,15.93,21.28,20.94,33.76c-1.71,1.65-3.46,3.26-5.24,4.82
				l-24.89-0.07L589.05,270.36z"/>
			<path d="M434.82,299.38l0.08-29.45c6.41,5.77,13.47,10.84,21.05,15.07c-4.14,4.35-7.78,9.18-10.82,14.41L434.82,299.38z"/>
			<path d="M589.05,270.36l-0.08,29.45l-10.31-0.03c-3.01-5.24-6.62-10.09-10.74-14.47C575.52,281.12,582.61,276.09,589.05,270.36z"
				/>
			<path d="M473.43,271.26l-0.06,21.65c-6.06-2.16-11.88-4.81-17.42-7.91C461.07,279.62,466.95,274.98,473.43,271.26z"/>
			<path d="M550.45,293.12l0.06-21.65c6.46,3.76,12.32,8.43,17.41,13.84C562.36,288.37,556.52,290.99,550.45,293.12z"/>
			<path d="M378.47,260.68c5.12,8.91,11.11,17.26,17.85,24.94l-0.04,13.65l-33.68-0.09C366.16,285.51,371.54,272.59,378.47,260.68z"
				/>
			<path d="M627.54,286.26c6.78-7.64,12.82-15.96,17.98-24.84c6.87,11.95,12.18,24.9,15.66,38.58l-33.68-0.09L627.54,286.26z"/>
			<path d="M396.28,299.27l0.04-13.65c2.68,3.05,5.48,6,8.39,8.83c-0.65,1.59-1.27,3.2-1.85,4.83L396.28,299.27z"/>
			<path d="M627.54,286.26l-0.04,13.65l-6.58-0.02c-0.57-1.63-1.18-3.25-1.82-4.84C622.03,292.23,624.85,289.3,627.54,286.26z"/>
			<path d="M455.95,285c5.54,3.09,11.36,5.74,17.42,7.91l-0.02,6.58l-28.22-0.08C448.17,294.18,451.81,289.35,455.95,285z"/>
			<path d="M550.45,293.12c6.07-2.13,11.91-4.75,17.47-7.81c4.12,4.37,7.73,9.22,10.74,14.47l-28.22-0.08L550.45,293.12z"/>
			<path d="M473.35,299.48l0.02-6.58c12.04,4.29,25,6.65,38.52,6.69L473.35,299.48z"/>
			<path d="M550.45,293.12l-0.02,6.58l-38.54-0.11C525.41,299.63,538.38,297.35,550.45,293.12z"/>
			<path class="st0" d="M402.86,299.29c0.58-1.63,1.2-3.24,1.85-4.83c1.7,1.66,3.44,3.27,5.22,4.85L402.86,299.29z"/>
			<path d="M619.11,295.05c0.64,1.6,1.25,3.21,1.82,4.84l-7.07-0.02C615.65,298.31,617.4,296.7,619.11,295.05z"/>
			<path d="M627.51,299.91l33.68,0.09c3.14,12.33,4.79,25.25,4.75,38.55l-38.54-0.11L627.51,299.91z"/>
			<path d="M620.93,299.89l6.58,0.02l-0.11,38.54C627.44,324.93,625.15,311.96,620.93,299.89z"/>
			<path class="st0" d="M613.86,299.87l7.07,0.02c4.23,12.07,6.51,25.04,6.47,38.56l-38.54-0.11l0.06-20.62
				C597.83,312.6,606.18,306.61,613.86,299.87z"/>
			<path d="M588.97,299.8l24.89,0.07c-7.68,6.74-16.03,12.73-24.94,17.85L588.97,299.8z"/>
			<path d="M578.65,299.78l10.31,0.03l-0.05,17.92c-0.8,0.46-1.61,0.91-2.42,1.36C584.75,312.24,582.09,305.75,578.65,299.78z"/>
			<path d="M550.43,299.7l28.22,0.08c3.44,5.98,6.09,12.46,7.84,19.31c-11.27,6.21-23.4,11.05-36.16,14.29L550.43,299.7z"/>
			<path d="M511.89,299.59l38.54,0.11l-0.09,33.68c-0.1,0.03-0.2,0.05-0.29,0.07C547.74,314.41,531.56,299.64,511.89,299.59z"/>
			<path d="M473.35,299.48l38.54,0.11c-19.66-0.05-35.93,14.62-38.34,33.65c-0.1-0.02-0.19-0.04-0.29-0.08L473.35,299.48z"/>
			<path d="M445.13,299.4l28.22,0.08l-0.09,33.68c-12.74-3.31-24.84-8.22-36.08-14.49C438.97,311.83,441.66,305.36,445.13,299.4z"/>
			<path d="M434.82,299.38l10.31,0.03c-3.47,5.96-6.16,12.43-7.95,19.26c-0.81-0.45-1.61-0.91-2.42-1.37L434.82,299.38z"/>
			<path d="M409.92,299.31l24.89,0.07l-0.05,17.92C425.89,312.12,417.56,306.09,409.92,299.31z"/>
			<path class="st0" d="M402.86,299.29l7.07,0.02c7.64,6.78,15.96,12.82,24.84,17.99l-0.06,20.62l-38.54-0.11
				C396.21,324.29,398.56,311.33,402.86,299.29z"/>
			<path d="M396.28,299.27l6.58,0.02c-4.29,12.04-6.65,25-6.69,38.52L396.28,299.27z"/>
			<path d="M362.6,299.17l33.68,0.09l-0.11,38.54l-38.54-0.11C357.67,324.39,359.39,311.49,362.6,299.17z"/>
			<path class="st2" d="M511.89,299.59l-0.11,38.54c-13.2-0.04-26.01-1.73-38.23-4.89C475.96,314.21,492.23,299.54,511.89,299.59z"
				/>
			<path class="st2" d="M511.78,338.13l0.11-38.54c19.67,0.05,35.85,14.82,38.15,33.86C537.8,336.54,524.98,338.16,511.78,338.13z"
				/>
			<path class="st0" d="M434.71,337.91l0.06-20.62c0.8,0.46,1.6,0.92,2.42,1.37C435.59,324.82,434.73,331.27,434.71,337.91z"/>
			<path d="M588.92,317.72l-0.06,20.62c0.02-6.65-0.8-13.1-2.37-19.26C587.31,318.64,588.11,318.18,588.92,317.72z"/>
			<path d="M437.18,318.67c11.23,6.27,23.34,11.18,36.08,14.49l-0.01,4.86l-38.54-0.11C434.73,331.27,435.59,324.82,437.18,318.67z"
				/>
			<path d="M550.34,333.38c12.76-3.24,24.89-8.08,36.16-14.29c1.56,6.16,2.38,12.61,2.37,19.26l-38.54-0.11L550.34,333.38z"/>
			<path class="st1" d="M473.25,338.02c0-1.62,0.11-3.22,0.31-4.78c12.22,3.16,25.03,4.85,38.23,4.89L473.25,338.02z"/>
			<path class="st1" d="M550.04,333.45c0.19,1.57,0.29,3.16,0.28,4.79l-38.54-0.11C524.98,338.16,537.8,336.54,550.04,333.45z"/>
			<path d="M627.4,338.45l38.54,0.11c-0.04,13.31-1.76,26.21-4.97,38.52l-33.68-0.09L627.4,338.45z"/>
			<path class="st0" d="M588.86,338.34l38.54,0.11c-0.04,13.52-2.39,26.48-6.69,38.52l-31.96-0.09L588.86,338.34z"/>
			<path d="M550.32,338.24l38.54,0.11c-0.04,14.04-3.83,27.19-10.42,38.51l-28.22-0.08L550.32,338.24z"/>
			<path class="st1" d="M511.78,338.13l38.54,0.11c-0.06,21.28-17.36,38.49-38.65,38.43L511.78,338.13z"/>
			<path class="st1" d="M473.25,338.02l38.54,0.11l-0.11,38.54C490.4,376.61,473.19,359.3,473.25,338.02z"/>
			<path d="M434.71,337.91l38.54,0.11l-0.11,38.54l-28.22-0.08C438.39,365.13,434.67,351.95,434.71,337.91z"/>
			<path class="st0" d="M396.17,337.81l38.54,0.11l-0.11,38.54l-31.96-0.09C398.42,364.3,396.13,351.32,396.17,337.81z"/>
			<path d="M357.63,337.7l38.54,0.11l-0.11,38.54l-33.68-0.09C359.25,363.92,357.6,351.01,357.63,337.7z"/>
			<path d="M396.06,376.34l0.11-38.54c-0.04,13.52,2.24,26.49,6.47,38.56L396.06,376.34z"/>
			<path d="M434.6,376.45l0.11-38.54c-0.04,14.04,3.68,27.21,10.21,38.57L434.6,376.45z"/>
			<path d="M473.14,376.56l0.11-38.54c-0.06,21.28,17.15,38.59,38.43,38.65L473.14,376.56z"/>
			<path d="M550.32,338.24l-0.11,38.54l-38.54-0.11C532.96,376.73,550.26,359.52,550.32,338.24z"/>
			<path d="M588.86,338.34l-0.11,38.54l-10.31-0.03C585.03,365.53,588.82,352.38,588.86,338.34z"/>
			<path d="M627.4,338.45l-0.11,38.54l-6.58-0.02C625.01,364.93,627.36,351.97,627.4,338.45z"/>
			<path d="M627.29,376.99l33.68,0.09c-3.55,13.66-8.94,26.58-15.87,38.49l-17.91-0.05L627.29,376.99z"/>
			<path d="M620.71,376.97l6.58,0.02l-0.11,38.54l-29.45-0.08C607.73,404.35,615.59,391.32,620.71,376.97z"/>
			<path class="st0" d="M588.75,376.88l31.96,0.09c-5.12,14.35-12.99,27.38-22.98,38.47l-9.09-0.03L588.75,376.88z"/>
			<path d="M578.44,376.85l10.31,0.03l-0.11,38.54l-38.54-0.11l0.03-10.31C561.86,398.26,571.64,388.53,578.44,376.85z"/>
			<path d="M550.22,376.77l28.22,0.08c-6.8,11.68-16.58,21.41-28.3,28.15L550.22,376.77z"/>
			<path d="M511.68,376.67l38.54,0.11L550.14,405c-11.35,6.53-24.53,10.25-38.57,10.21L511.68,376.67z"/>
			<path d="M473.14,376.56l38.54,0.11l-0.11,38.54c-14.04-0.04-27.19-3.83-38.51-10.42L473.14,376.56z"/>
			<path d="M444.92,376.48l28.22,0.08l-0.08,28.22C461.37,397.98,451.65,388.2,444.92,376.48z"/>
			<path d="M434.6,376.45l10.31,0.03c6.73,11.72,16.46,21.5,28.15,28.3l-0.03,10.31l-38.54-0.11L434.6,376.45z"/>
			<path class="st0" d="M402.64,376.36l31.96,0.09l-0.11,38.54l-9.09-0.03C415.48,403.82,407.68,390.74,402.64,376.36z"/>
			<path d="M396.06,376.34l6.58,0.02c5.04,14.37,12.83,27.46,22.76,38.6l-29.45-0.08L396.06,376.34z"/>
			<path d="M362.39,376.25l33.68,0.09l-0.11,38.54l-17.91-0.05C371.18,402.88,365.86,389.93,362.39,376.25z"/>
			<path class="st0" d="M473.03,415.1l0.03-10.31c11.32,6.59,24.47,10.38,38.51,10.42L473.03,415.1z"/>
			<path class="st0" d="M550.14,405l-0.03,10.31l-38.54-0.11C525.61,415.24,538.78,411.52,550.14,405z"/>
			<path d="M627.18,415.53l17.91,0.05c-5.17,8.88-11.2,17.2-17.98,24.84L627.18,415.53z"/>
			<path d="M597.73,415.44l29.45,0.08l-0.07,24.89c-4.27,4.82-8.84,9.36-13.68,13.61l-24.89-0.07l0.08-29.45
				C591.83,421.66,594.87,418.64,597.73,415.44z"/>
			<path class="st0" d="M588.65,415.42l9.09,0.03c-2.86,3.19-5.91,6.22-9.11,9.06L588.65,415.42z"/>
			<path d="M550.11,415.31l38.54,0.11l-0.03,9.09c-11.14,9.92-24.23,17.72-38.6,22.76L550.11,415.31z"/>
			<path class="st0" d="M511.57,415.2l38.54,0.11l-0.09,31.96c-12.07,4.23-25.04,6.51-38.56,6.47L511.57,415.2z"/>
			<path class="st0" d="M473.03,415.1l38.54,0.11l-0.11,38.54c-13.52-0.04-26.48-2.39-38.52-6.69L473.03,415.1z"/>
			<path d="M434.49,414.99l38.54,0.11l-0.09,31.96c-14.35-5.12-27.38-12.99-38.47-22.98L434.49,414.99z"/>
			<path class="st0" d="M425.41,414.96l9.09,0.03l-0.03,9.09C431.28,421.22,428.25,418.17,425.41,414.96z"/>
			<path d="M395.96,414.88l29.45,0.08c2.84,3.21,5.87,6.25,9.06,9.11l-0.08,29.45l-24.89-0.07c-4.82-4.28-9.36-8.85-13.61-13.69
				L395.96,414.88z"/>
			<path d="M378.04,414.83l17.91,0.05l-0.07,24.89C389.15,432.09,383.16,423.74,378.04,414.83z"/>
			<path d="M434.39,453.53l0.08-29.45c11.09,9.99,24.13,17.86,38.47,22.98l-0.02,6.58L434.39,453.53z"/>
			<path d="M588.62,424.51l-0.08,29.45L550,453.85l0.02-6.58C564.39,442.23,577.48,434.43,588.62,424.51z"/>
			<path d="M472.93,453.63l0.02-6.58c12.04,4.29,25,6.65,38.52,6.69L472.93,453.63z"/>
			<path d="M550.02,447.27l-0.02,6.58l-38.54-0.11C524.98,453.78,537.95,451.5,550.02,447.27z"/>
			<path d="M588.54,453.96l24.89,0.07c-7.68,6.74-16.03,12.73-24.94,17.85L588.54,453.96z"/>
			<path d="M550,453.85l38.54,0.11l-0.05,17.92c-11.95,6.87-24.9,12.18-38.58,15.65L550,453.85z"/>
			<path d="M511.46,453.74l38.54,0.11l-0.09,33.68c-12.33,3.14-25.25,4.79-38.55,4.75L511.46,453.74z"/>
			<path d="M472.93,453.63l38.54,0.11l-0.11,38.54c-13.31-0.04-26.21-1.76-38.52-4.97L472.93,453.63z"/>
			<path d="M434.39,453.53l38.54,0.11l-0.09,33.68c-13.66-3.55-26.58-8.93-38.49-15.87L434.39,453.53z"/>
			<path d="M409.49,453.46l24.89,0.07l-0.05,17.92C425.46,466.27,417.13,460.24,409.49,453.46z"/>
		</g>
		<g>
		</g>
	</g>
	<g>
		<path d="M424.6,522.7l-2.93,2.18c-1.59-2.08-3.5-3.66-5.74-4.72c-2.24-1.07-4.7-1.6-7.38-1.6c-2.94,0-5.66,0.7-8.16,2.11
			c-2.5,1.41-4.43,3.29-5.81,5.67c-1.38,2.37-2.07,5.05-2.07,8.02c0,4.48,1.54,8.09,4.61,10.82c3.07,2.74,6.95,4.1,11.63,4.1
			c5.16,0,9.46-2.02,12.92-6.05l2.93,2.21c-1.83,2.33-4.12,4.13-6.87,5.41c-2.74,1.27-5.8,1.91-9.17,1.91
			c-6.45,0-11.53-2.14-15.25-6.42c-3.11-3.62-4.66-7.72-4.66-12.3c0-5.37,1.89-9.9,5.67-13.59c3.78-3.69,8.5-5.53,14.17-5.53
			c3.44,0,6.54,0.68,9.31,2.05C420.56,518.32,422.83,520.23,424.6,522.7z"/>
		<path d="M431.34,514.81h3.52v15.4c1.4-1.87,2.95-3.26,4.65-4.19s3.53-1.39,5.52-1.39c2.05,0,3.86,0.52,5.43,1.55
			c1.57,1.03,2.73,2.42,3.47,4.15c0.74,1.74,1.12,4.47,1.12,8.21v13.99h-3.47v-12.97c0-3.14-0.13-5.24-0.4-6.3
			c-0.43-1.8-1.22-3.15-2.36-4.05c-1.14-0.9-2.64-1.35-4.49-1.35c-2.12,0-4.01,0.7-5.69,2.09c-1.68,1.4-2.78,3.13-3.31,5.2
			c-0.31,1.32-0.47,3.79-0.47,7.41v9.97h-3.52V514.81z"/>
		<path d="M475.36,523.94c4.18,0,7.65,1.51,10.41,4.54c2.55,2.76,3.82,6.04,3.82,9.84c0.03,9.39,0.03,14.16,0,14.31
			c-1.59,0-2.82,0-3.69,0c0-0.12,0-2.17,0-6.17c-1.93,3.6-5.45,5.62-10.54,6.05c-4.17,0-7.57-1.42-10.2-4.25
			c-2.64-2.83-3.96-6.15-3.96-9.93c0-3.77,1.25-7.04,3.74-9.82C467.7,525.46,471.17,523.94,475.36,523.94z M475.36,527.36
			c-2.89,0-5.38,1.08-7.46,3.22c-2.08,2.15-3.12,4.74-3.12,7.79c0,1.97,0.53,3.86,1.6,5.68s2.87,3.36,5.42,4.61
			c6.38,1.42,10.92-1.48,13.61-8.7c0.15-2.31-0.1-4.53-0.74-6.65c-0.46-0.96-1.1-1.87-1.91-2.73
			C480.71,528.43,478.25,527.36,475.36,527.36z"/>
		<path d="M496.36,542.16l-0.05-2.9c-0.05-1.42,0.01-2.63,0.17-3.62c0.36-3.12,1.16-5.41,2.38-6.87c1.19-1.27,2.4-2.26,3.65-2.95
			c2.05-0.88,4.39-1.29,7.02-1.24c2.05,0,3.95,0.52,5.69,1.55c1.74,1.03,2.99,2.42,3.73,4.17s1.12,4.48,1.12,8.19v13.99h-3.47
			v-12.97c0-3.14-0.13-5.24-0.4-6.3c-0.41-1.8-1.23-3.08-2.46-3.83c-1.22-0.75-3.03-1.13-5.43-1.13c-2.12,0-4,0.61-5.65,1.83
			c-1.65,1.22-2.42,2.89-2.31,5.01c-0.31,1.36-0.47,3.83-0.47,7.41v9.97h-3.52V542.16z"/>
		<path d="M527.5,542.16l-0.05-2.9c-0.05-1.42,0.01-2.63,0.17-3.62c0.36-3.12,1.16-5.41,2.38-6.87c1.19-1.27,2.41-2.26,3.65-2.95
			c2.05-0.88,4.39-1.29,7.02-1.24c2.05,0,3.95,0.52,5.69,1.55c1.74,1.03,2.99,2.42,3.73,4.17c0.74,1.74,1.12,4.48,1.12,8.19v13.99
			h-3.47v-12.97c0-3.14-0.13-5.24-0.4-6.3c-0.41-1.8-1.23-3.08-2.45-3.83c-1.22-0.75-3.03-1.13-5.43-1.13c-2.12,0-4,0.61-5.65,1.83
			c-1.65,1.22-2.42,2.89-2.31,5.01c-0.31,1.36-0.47,3.83-0.47,7.41v9.97h-3.52V542.16z"/>
		<path d="M581.55,542.8l2.93,1.56c-0.94,1.9-2.05,3.43-3.32,4.59c-1.27,1.16-2.7,2.04-4.29,2.64c-1.59,0.6-3.38,0.91-5.38,0.91
			c-4.43,0-7.89-1.45-10.39-4.35c-2.5-2.9-3.74-6.18-3.74-9.83c0-3.46,1.06-6.53,3.17-9.22c2.68-3.44,6.27-5.16,10.79-5.16
			c4.61,0,8.31,1.76,11.08,5.28c1.97,2.48,2.96,5.57,2.98,9.27h-24.42c0.07,3.17,1.07,5.77,3.03,7.8c1.95,2.03,4.36,3.04,7.22,3.04
			c1.39,0,2.74-0.24,4.04-0.73c1.31-0.49,2.42-1.13,3.33-1.92C579.48,545.88,580.48,544.59,581.55,542.8z M581.55,535.49
			c-0.46-1.87-1.14-3.36-2.03-4.48c-0.89-1.12-2.08-2.02-3.55-2.7c-1.47-0.69-3.02-1.03-4.64-1.03c-2.66,0-4.95,0.86-6.87,2.58
			c-1.39,1.26-2.44,3.13-3.15,5.63H581.55z"/>
		<path d="M591.35,514.76h3.52v37.71h-3.52V514.76z"/>
		<path d="M631.52,531.65c2.48,1.24,4.26,2.65,5.33,4.24c1.07,1.59,1.61,3.38,1.61,5.38c0,2.83-0.93,5.32-2.78,7.49
			c-2.26,2.66-5.5,3.99-9.72,3.99c-4.07,0-7.15-1.16-9.25-3.48c-2.1-2.32-3.15-4.88-3.15-7.67c0-2.07,0.55-3.92,1.65-5.55
			c1.1-1.64,2.93-3.1,5.49-4.39c-1.79-0.93-3.13-1.93-4.03-3.01c-0.9-1.08-1.35-2.42-1.35-4c0-1.6,0.47-3.17,1.43-4.7
			c0.95-1.53,2.27-2.73,3.97-3.61c1.69-0.88,3.53-1.31,5.49-1.31c1.92,0,3.69,0.44,5.32,1.33c1.63,0.88,2.91,2.09,3.84,3.61
			c0.93,1.52,1.4,3.12,1.4,4.79c0,1.65-0.44,3.13-1.33,4.44C634.56,530.47,633.25,531.3,631.52,531.65z M626.21,533.51
			c-2.55,0-4.67,0.82-6.38,2.47c-1.71,1.65-2.57,3.56-2.57,5.74c0,1.34,0.37,2.61,1.1,3.82c0.74,1.21,1.76,2.13,3.07,2.78
			c1.31,0.64,2.84,0.97,4.58,0.97c2.69,0,4.83-0.79,6.41-2.37c1.58-1.58,2.37-3.43,2.37-5.57c0-2.03-0.84-3.85-2.52-5.44
			C630.6,534.3,628.58,533.51,626.21,533.51z M626.04,518.58c-2,0-3.67,0.59-5,1.79s-2,2.62-2,4.29c0,1.64,0.71,2.98,2.15,4.04
			c1.43,1.06,3.09,1.59,4.97,1.59c1.22,0,2.38-0.3,3.46-0.91c1.08-0.6,1.93-1.42,2.53-2.47c0.6-1.04,0.91-1.82,0.91-2.33
			c0-1.49-0.6-2.86-1.8-4.12C630.06,519.21,628.32,518.58,626.04,518.58z"/>
		<path d="M444.73,574.71v-12.87h0.28l8.56,9.85v-9.85h1.27v12.87h-0.29l-8.47-9.73v9.73H444.73z"/>
		<path d="M462.25,564.73c1.46,0,2.68,0.53,3.65,1.59c0.89,0.97,1.34,2.12,1.34,3.45c0.01,3.29,0.01,4.96,0,5.01
			c-0.56,0-0.99,0-1.29,0c0-0.04,0-0.76,0-2.16c-0.68,1.26-1.91,1.97-3.69,2.12c-1.46,0-2.65-0.5-3.57-1.49s-1.38-2.15-1.38-3.48
			c0-1.32,0.44-2.46,1.31-3.44C459.58,565.27,460.79,564.73,462.25,564.73z M462.25,565.93c-1.01,0-1.88,0.38-2.61,1.13
			c-0.73,0.75-1.09,1.66-1.09,2.72c0,0.69,0.19,1.35,0.56,1.99s1.01,1.17,1.9,1.61c2.23,0.5,3.82-0.52,4.76-3.05
			c0.05-0.81-0.03-1.59-0.26-2.33c-0.16-0.33-0.38-0.65-0.67-0.95C464.13,566.31,463.27,565.93,462.25,565.93z"/>
		<path d="M473.42,574.39c-0.64,0.24-1.2,0.36-1.7,0.34c-0.94-0.05-1.68-0.54-2.22-1.46c-0.33-0.58-0.49-1.21-0.48-1.91v-9.88h1.23
			v4.6h2.26v1.05h-2.26v4.03c-0.03,1,0.3,1.76,1.01,2.3c0.58,0.27,1.17,0.25,1.77-0.08C473.2,573.81,473.33,574.15,473.42,574.39z"
			/>
		<path d="M475.21,564.98h1.23v4.44c0,1.09,0.06,1.83,0.17,2.24c0.17,0.58,0.51,1.05,1,1.38c0.49,0.34,1.08,0.51,1.77,0.51
			c0.68,0,1.26-0.17,1.74-0.5c0.47-0.33,0.8-0.76,0.98-1.3c0.13-0.36,0.19-1.14,0.19-2.33v-4.44h1.25v4.68
			c0,1.31-0.15,2.3-0.46,2.96c-0.31,0.66-0.77,1.18-1.38,1.55s-1.38,0.56-2.31,0.56c-0.93,0-1.71-0.19-2.33-0.56
			s-1.08-0.9-1.39-1.57s-0.46-1.69-0.46-3.04V564.98z"/>
		<path d="M485.78,570.37v-1.15c0.09-0.57,0.23-1.04,0.4-1.4c0.4-1,0.95-1.72,1.63-2.19c0.68-0.46,1.25-0.69,1.7-0.69
			c0.34,0,0.69,0.11,1.08,0.33l-0.63,1.02c-0.54-0.2-1.07-0.04-1.6,0.48c-0.53,0.52-0.9,1.08-1.1,1.68
			c-0.15,0.54-0.23,1.55-0.23,3.03v3.22h-1.25V570.37z"/>
		<path d="M499.32,571.34l1.02,0.55c-0.33,0.67-0.72,1.2-1.16,1.61c-0.45,0.4-0.95,0.71-1.5,0.92c-0.56,0.21-1.18,0.32-1.88,0.32
			c-1.55,0-2.76-0.51-3.64-1.52c-0.87-1.02-1.31-2.16-1.31-3.44c0-1.21,0.37-2.29,1.11-3.23c0.94-1.2,2.2-1.8,3.78-1.8
			c1.61,0,2.91,0.62,3.88,1.85c0.69,0.87,1.04,1.95,1.04,3.25h-8.55c0.02,1.11,0.38,2.02,1.06,2.73c0.68,0.71,1.52,1.06,2.53,1.06
			c0.49,0,0.96-0.08,1.41-0.26s0.85-0.4,1.17-0.67C498.6,572.41,498.94,571.96,499.32,571.34z M499.32,568.78
			c-0.16-0.65-0.4-1.18-0.71-1.57s-0.73-0.71-1.24-0.95c-0.52-0.24-1.06-0.36-1.62-0.36c-0.93,0-1.73,0.3-2.4,0.9
			c-0.49,0.44-0.85,1.1-1.1,1.97H499.32z"/>
		<path d="M512.21,564.73c1.46,0,2.68,0.53,3.64,1.59c0.89,0.97,1.34,2.12,1.34,3.45c0.01,3.29,0.01,4.96,0,5.01
			c-0.56,0-0.99,0-1.29,0c0-0.04,0-0.76,0-2.16c-0.68,1.26-1.91,1.97-3.69,2.12c-1.46,0-2.65-0.5-3.57-1.49s-1.38-2.15-1.38-3.48
			c0-1.32,0.44-2.46,1.31-3.44C509.53,565.27,510.74,564.73,512.21,564.73z M512.21,565.93c-1.01,0-1.88,0.38-2.61,1.13
			c-0.73,0.75-1.09,1.66-1.09,2.72c0,0.69,0.19,1.35,0.56,1.99s1.01,1.17,1.9,1.61c2.23,0.5,3.82-0.52,4.76-3.05
			c0.05-0.81-0.04-1.59-0.26-2.33c-0.16-0.33-0.38-0.65-0.67-0.95C514.08,566.31,513.22,565.93,512.21,565.93z"/>
		<path d="M519.56,571.11l-0.02-1.02c-0.02-0.5,0-0.92,0.06-1.27c0.13-1.09,0.41-1.89,0.83-2.4c0.42-0.45,0.84-0.79,1.28-1.03
			c0.72-0.31,1.54-0.45,2.46-0.43c0.72,0,1.38,0.18,1.99,0.54c0.61,0.36,1.04,0.85,1.31,1.46c0.26,0.61,0.39,1.57,0.39,2.87v4.89
			h-1.21v-4.54c0-1.1-0.05-1.83-0.14-2.2c-0.14-0.63-0.43-1.08-0.86-1.34c-0.43-0.26-1.06-0.4-1.9-0.4c-0.74,0-1.4,0.21-1.98,0.64
			c-0.58,0.43-0.85,1.01-0.81,1.75c-0.11,0.47-0.17,1.34-0.17,2.59v3.49h-1.23V571.11z"/>
		<path d="M537.39,574.28c-0.68,0.3-1.41,0.45-2.18,0.45c-1.35,0-2.51-0.49-3.47-1.46c-0.96-0.97-1.44-2.14-1.44-3.51
			c0-1.39,0.48-2.58,1.43-3.56c0.95-0.98,2.1-1.47,3.45-1.47c0.76,0,1.46,0.15,2.09,0.46c0.64,0.31,1.21,0.78,1.73,1.41v-5.31h1.21
			c0-0.01,0,2.99,0,9.02c-0.1,0.84-0.42,1.69-0.94,2.56C538.69,573.52,538.07,573.99,537.39,574.28z M537.98,572.45
			c0.73-0.74,1.09-1.66,1.09-2.77c0-0.72-0.16-1.37-0.49-1.95c-0.32-0.58-0.79-1.04-1.39-1.38c-0.6-0.34-1.24-0.51-1.91-0.51
			c-0.66,0-1.28,0.17-1.86,0.51c-0.58,0.34-1.04,0.82-1.39,1.43c-0.34,0.62-0.52,1.26-0.52,1.93c0,0.68,0.17,1.33,0.51,1.93
			c0.34,0.6,0.8,1.07,1.38,1.41c0.58,0.34,1.21,0.51,1.9,0.51C536.36,573.56,537.25,573.19,537.98,572.45z"/>
		<path d="M547.47,571.03v-1.52c0.1-1.3,0.38-2.24,0.82-2.85c0.36-0.55,0.84-0.99,1.43-1.31c0.39-0.25,0.94-0.38,1.66-0.4
			c0.46,0,0.93,0.09,1.41,0.26c0.47,0.17,0.84,0.4,1.1,0.69c0.26,0.29,0.52,0.72,0.79,1.3c0.14-0.37,0.45-0.8,0.91-1.3
			c0.23-0.19,0.52-0.38,0.88-0.56c0.24-0.16,0.81-0.29,1.69-0.39c0.66,0,1.29,0.17,1.9,0.49c0.61,0.33,1.03,0.79,1.28,1.39
			s0.37,1.49,0.37,2.68v5.2h-1.25v-5.2c0-1.02-0.07-1.72-0.22-2.1s-0.39-0.69-0.75-0.92c-0.35-0.23-0.78-0.35-1.28-0.35
			c-0.94,0.06-1.74,0.52-2.4,1.36c-0.26,0.36-0.46,1.15-0.59,2.39v4.83h-1.22v-4.88c0-1.15-0.13-1.92-0.38-2.34
			c-0.25-0.41-0.56-0.74-0.91-0.99s-0.79-0.37-1.32-0.37c-0.57,0-1.05,0.15-1.46,0.43s-0.73,0.72-0.96,1.3
			c-0.23,0.58-0.32,1.51-0.28,2.81v4.04h-1.22V571.03z"/>
		<path d="M568.77,564.73c1.46,0,2.68,0.53,3.64,1.59c0.87,0.97,1.31,2.12,1.31,3.45c0,1.33-0.46,2.48-1.39,3.48
			s-2.12,1.49-3.57,1.49c-1.46,0-2.65-0.5-3.57-1.49s-1.38-2.15-1.38-3.48c0-1.32,0.44-2.46,1.31-3.44
			C566.09,565.27,567.3,564.73,568.77,564.73z M568.77,565.93c-1.01,0-1.88,0.38-2.61,1.13c-0.73,0.75-1.09,1.66-1.09,2.72
			c0,0.69,0.17,1.33,0.5,1.93c0.33,0.6,0.78,1.06,1.35,1.38c0.57,0.32,1.19,0.48,1.86,0.48c0.68,0,1.31-0.16,1.87-0.48
			c0.56-0.32,1.01-0.78,1.34-1.38c0.33-0.6,0.49-1.24,0.49-1.93c0-1.06-0.36-1.97-1.09-2.72
			C570.65,566.31,569.78,565.93,568.77,565.93z"/>
		<path d="M575.51,570.37v-1.15c0.09-0.57,0.23-1.04,0.4-1.4c0.41-1,0.95-1.72,1.63-2.19s1.25-0.69,1.7-0.69
			c0.33,0,0.69,0.11,1.08,0.33l-0.63,1.02c-0.54-0.2-1.07-0.04-1.6,0.48c-0.53,0.52-0.9,1.08-1.1,1.68
			c-0.15,0.54-0.23,1.55-0.23,3.03v3.22h-1.25V570.37z"/>
		<path d="M589.05,571.34l1.02,0.55c-0.33,0.67-0.72,1.2-1.16,1.61c-0.45,0.4-0.95,0.71-1.5,0.92s-1.18,0.32-1.88,0.32
			c-1.55,0-2.76-0.51-3.64-1.52c-0.87-1.02-1.31-2.16-1.31-3.44c0-1.21,0.37-2.29,1.11-3.23c0.94-1.2,2.2-1.8,3.77-1.8
			c1.61,0,2.91,0.62,3.88,1.85c0.69,0.87,1.04,1.95,1.04,3.25h-8.55c0.02,1.11,0.38,2.02,1.06,2.73c0.68,0.71,1.52,1.06,2.53,1.06
			c0.49,0,0.96-0.08,1.42-0.26c0.46-0.17,0.85-0.4,1.17-0.67S588.67,571.96,589.05,571.34z M589.05,568.78
			c-0.16-0.65-0.4-1.18-0.71-1.57s-0.73-0.71-1.24-0.95c-0.51-0.24-1.06-0.36-1.62-0.36c-0.93,0-1.73,0.3-2.4,0.9
			c-0.49,0.44-0.85,1.1-1.1,1.97H589.05z"/>
	</g>
</g>
<g>
</g>
<g>
</g>
<g>
</g>
<g>
</g>
<g>
</g>
<g>
</g>
</svg>
