<?xml version="1.0" encoding="utf-8"?>
<!-- Generator: Adobe Illustrator 26.1.0, SVG Export Plug-In . SVG Version: 6.00 Build 0)  -->
<svg version="1.1" id="Layer_1" xmlns="http://www.w3.org/2000/svg" xmlns:xlink="http://www.w3.org/1999/xlink" x="0px" y="0px"
	 viewBox="0 0 1024 700" style="enable-background:new 0 0 1024 700;" xml:space="preserve">
<style type="text/css">
	.st0{fill:none;stroke:#000000;stroke-miterlimit:10;}
	.st1{fill:none;}
	.st2{fill:#FFFFFF;}
	.st3{stroke:#000000;stroke-miterlimit:10;}
	.st4{fill:#FFFDFD;}
	.st5{fill:none;stroke:#FFFFFF;stroke-miterlimit:10;}
</style>
<g>
	<path class="st0" d="M267.05,335.48"/>
	<path class="st0" d="M748.61,263.02c-13.34-125.22-116.6-222.65-242-222.65c-134.46,0-243.46,112.02-243.46,250.2
		c0,9.19,0.48,18.27,1.42,27.21"/>
	<g>
		<path class="st1" d="M719.01,284.77C707.37,175.5,617.27,90.48,507.84,90.48c-117.33,0-212.45,97.75-212.45,218.33
			c0,8.02,0.42,15.94,1.24,23.74"/>
		<path d="M361.89,108.24c0.02-0.02,0.04-0.03,0.07-0.05c3.25-2.48,7.08-3.35,11.51-2.62c4.12,0.89,7.43,2.97,9.93,6.24
			c2.73,3.57,3.82,7.65,3.29,12.24c-0.71,4.04-2.52,7.17-5.42,9.39c-2.93,2.24-6.39,3.19-10.38,2.85c-1.87-0.32-3.2-0.67-3.99-1.05
			c-2.88-1.12-5.25-2.9-7.11-5.33c-0.02-0.02-0.04-0.06-0.08-0.1c-2.73-3.56-3.81-7.67-3.25-12.33c0.11-0.41,0.25-1.01,0.43-1.8
			C357.8,112.56,359.47,110.09,361.89,108.24z M362.95,127.38c2.09,2.74,4.92,4.33,8.49,4.77c2.76,0.22,5.18-0.46,7.26-2.05
			c2.69-2.05,4.01-5,3.99-8.84c-0.17-2.64-0.99-4.91-2.45-6.82c-0.03-0.05-0.09-0.11-0.16-0.21c-1.81-2.37-4.23-3.89-7.26-4.56
			c-3.25-0.54-6.03,0.07-8.33,1.83c-2.57,1.97-3.92,4.8-4.04,8.5C360.5,122.8,361.33,125.26,362.95,127.38z"/>
		<path d="M383.73,93.33l0.04-0.02c2.78,4.51,8.34,13.53,16.68,27.06l-0.04,0.02c-0.55,0.34-1.69,1.04-3.42,2.11l-0.04,0.02
			c-2.78-4.51-8.34-13.53-16.68-27.06l0.04-0.02C380.89,95.09,382.03,94.38,383.73,93.33z"/>
		<path d="M422.48,108.57c-0.6,0.31-1.81,0.92-3.62,1.84c-0.16-0.31-0.48-0.95-0.98-1.94c-0.08,0.33-0.17,0.66-0.27,0.96
			c-0.24,0.51-0.46,0.93-0.64,1.25c-0.26,0.42-0.59,0.83-0.99,1.23c-0.81,0.77-1.54,1.32-2.2,1.65c-0.08,0.04-0.16,0.08-0.26,0.13
			c-1.61,0.82-3.4,1.14-5.38,0.98c-0.41-0.05-0.85-0.14-1.32-0.26c-0.42-0.08-1.02-0.28-1.81-0.59c-0.74-0.34-1.37-0.7-1.88-1.09
			c-1.53-1.08-2.71-2.44-3.55-4.09c-0.63-1.24-1.03-2.55-1.19-3.93c-0.15-1.22-0.04-2.56,0.33-4.02c0.19-0.68,0.35-1.17,0.49-1.47
			c1.01-2.23,2.54-3.87,4.57-4.9l0.04-0.02c1.73-0.88,3.58-1.1,5.54-0.67c0.47,0.12,0.86,0.24,1.18,0.37
			c-1.01-1.99-3.03-5.98-6.07-11.97c0.6-0.31,1.81-0.92,3.62-1.84C410.49,84.95,415.29,94.4,422.48,108.57z M411.03,98.06
			c-0.17-0.08-0.51-0.2-1.03-0.35c-0.56-0.17-1.07-0.25-1.54-0.24c-1.06,0.02-1.96,0.22-2.69,0.58c-1.61,0.82-2.65,2.16-3.12,4.02
			c-0.37,1.65-0.17,3.2,0.57,4.68c0.01,0.03,0.03,0.05,0.04,0.08c0.45,0.88,1.07,1.63,1.86,2.27c0.44,0.36,1,0.69,1.69,0.99
			c1.76,0.67,3.41,0.61,4.94-0.17c0.75-0.38,1.42-0.96,2-1.75c0.21-0.27,0.44-0.66,0.68-1.17c0.04-0.12,0.1-0.28,0.18-0.48
			c0.14-0.46,0.25-0.85,0.3-1.18c0.18-1.45-0.05-2.81-0.7-4.08l-0.04-0.08C413.67,100.67,412.62,99.63,411.03,98.06z"/>
		<path d="M435.86,69.37c0.08-0.03,0.2-0.06,0.36-0.11c1.53-0.48,3.15-0.58,4.87-0.3c0.56,0.1,1.13,0.25,1.7,0.47
			c0.27,0.1,0.73,0.3,1.39,0.61c0.69,0.42,1.22,0.77,1.57,1.05c0.28,0.24,0.55,0.49,0.81,0.75c-0.66,0.63-1.64,1.59-2.94,2.89
			c-0.19-0.21-0.55-0.49-1.1-0.83c-1.66-0.96-3.41-1.16-5.23-0.58c-1.8,0.57-3.08,1.58-3.83,3.03c-0.29,0.58-0.44,1.04-0.45,1.37
			c-0.13,0.71-0.09,1.41,0.13,2.1c0.01,0.03,0.02,0.07,0.04,0.12c0.31,0.97,0.88,1.61,1.71,1.92c0.4,0.15,0.77,0.24,1.11,0.29
			c0.8,0.2,1.95,0.28,3.44,0.24c1.14-0.03,2.47-0.11,3.99-0.26c0.88-0.01,1.64,0.05,2.26,0.15c0.59,0.09,1.25,0.26,1.98,0.51
			c0.62,0.29,1.2,0.61,1.72,0.96c1.54,1.15,2.6,2.63,3.17,4.42l0.03,0.08c0.56,1.77,0.56,3.62,0.02,5.55
			c-0.1,0.34-0.3,0.82-0.6,1.46c-0.44,0.77-0.8,1.35-1.1,1.71c-0.34,0.41-0.73,0.81-1.18,1.19c-1.23,1.06-2.6,1.82-4.11,2.3
			c-2.34,0.74-4.7,0.71-7.07-0.09c-0.41-0.17-0.87-0.38-1.39-0.61c-0.71-0.38-1.22-0.69-1.53-0.93c-0.59-0.45-1.07-0.86-1.45-1.23
			c-0.39-0.39-0.6-0.63-0.62-0.71c0.66-0.63,1.65-1.57,2.97-2.8c0.37,0.43,0.83,0.85,1.37,1.25c0.27,0.19,0.64,0.42,1.11,0.7
			c0.66,0.31,1.18,0.51,1.56,0.6c1.29,0.26,2.53,0.2,3.71-0.17c0.05-0.02,0.11-0.03,0.16-0.05c1.18-0.37,2.23-1.04,3.14-1.99
			c0.23-0.29,0.47-0.62,0.71-1c0.25-0.5,0.41-0.93,0.48-1.29c0.2-0.94,0.17-1.86-0.11-2.74c-0.44-1.41-1.37-2.34-2.79-2.81
			c-0.39-0.12-0.75-0.19-1.08-0.2c-0.53-0.08-1.32-0.05-2.37,0.06c-3.03,0.23-5.3,0.2-6.81-0.09c-3.31-0.56-5.42-2.31-6.35-5.24
			c-0.63-1.99-0.57-3.96,0.17-5.93c0.24-0.65,0.53-1.23,0.87-1.73c0.43-0.59,0.82-1.06,1.15-1.41c0.41-0.4,0.9-0.81,1.47-1.24
			C433.83,70.18,434.81,69.7,435.86,69.37z"/>
		<path d="M452.97,65c0.66-0.14,1.98-0.43,3.96-0.86c0.39,1.78,1.17,5.35,2.33,10.69c0.85-0.19,2.56-0.56,5.12-1.12l0.05,0.03
			c0.15,0.68,0.44,2.04,0.89,4.07l-0.04,0.01c-0.85,0.19-2.56,0.56-5.12,1.12c0.38,1.73,1.12,5.15,2.24,10.27
			c0.17,0.79,0.56,1.26,1.17,1.39c0.38,0.15,0.78,0.19,1.19,0.1c0.52-0.11,1.24-0.46,2.15-1.05c0.02-0.03,0.07-0.09,0.14-0.16
			c0.39,0.6,1.17,1.78,2.33,3.54c-0.3,0.21-0.8,0.51-1.49,0.9c-0.83,0.42-1.58,0.7-2.24,0.84l-0.04,0.01
			c-1.29,0.28-2.61,0.14-3.94-0.43c-0.22-0.1-0.52-0.27-0.89-0.52c-0.11-0.09-0.26-0.22-0.47-0.39c-0.29-0.26-0.53-0.51-0.72-0.73
			c-0.55-0.8-0.92-1.62-1.1-2.47c-0.51-2.32-1.26-5.8-2.28-10.44c-0.5,0.11-1.47,0.32-2.93,0.64l-0.04,0.01
			c-0.15-0.68-0.44-2.04-0.89-4.07c0.03-0.01,0.04-0.02,0.03-0.05c0.5-0.11,1.47-0.32,2.93-0.64
			C454.92,73.91,454.14,70.34,452.97,65z"/>
		<path d="M472.97,72.24l0.22,0.41c0.87,1.52,2.17,3.83,3.89,6.91c0.69,1.2,2.09,3.63,4.19,7.31c0.02-0.09,0.22-0.84,0.61-2.26
			c0.43-1.54,1.1-3.84,1.99-6.9c0.33-1.18,1.01-3.54,2.01-7.08c0.75-0.09,2.24-0.28,4.44-0.56c-0.54,1.85-1.59,5.54-3.17,11.07
			c-0.43,1.57-1.32,4.67-2.67,9.31c-0.45,1.6-1.36,4.79-2.72,9.57c-0.08,0.27-0.23,0.8-0.44,1.59c-0.73,0.09-2.21,0.28-4.44,0.56
			l-0.01-0.04c0.48-1.64,1.42-4.89,2.83-9.76c-0.87-1.52-2.64-4.57-5.32-9.14c-0.9-1.55-2.71-4.64-5.42-9.26
			c-0.11-0.19-0.33-0.57-0.65-1.14C469.1,72.72,470.65,72.53,472.97,72.24z"/>
		<path d="M498.85,58.85l0.04,0c0.24,5.29,0.72,15.88,1.44,31.75l-0.04,0c-0.65,0.03-1.98,0.09-4.01,0.18l-0.04,0
			c-0.24-5.29-0.72-15.88-1.44-31.75l0.04,0C495.51,59,496.85,58.94,498.85,58.85z"/>
		<path d="M514.36,69.42c0.09,0,0.28,0.01,0.59,0.02c2.05,0.06,4.02,0.98,5.88,2.74c0.9,0.95,1.51,1.78,1.83,2.49
			c0.96,1.88,1.4,3.85,1.34,5.91c0,0.15-0.01,0.36-0.02,0.65c-0.01,0.41-0.03,0.61-0.06,0.61c-3.38-0.1-8.43-0.25-15.16-0.46
			c0.29,1.54,0.81,2.72,1.54,3.52c1.09,1.31,2.36,1.98,3.83,2.03c1.83,0.06,3.39-0.85,4.69-2.73c0.24-0.48,0.37-0.73,0.4-0.73
			c2.41,1.2,3.62,1.82,3.62,1.85c-0.21,0.51-0.67,1.25-1.38,2.22c-2.13,2.46-4.61,3.64-7.42,3.56c-0.03,0-0.07,0-0.13,0
			c-2.87-0.09-5.32-1.49-7.36-4.22c-1.37-2.1-2.02-4.38-1.95-6.84c0-0.03,0-0.06,0-0.09c0.1-3.39,1.46-6.21,4.06-8.48
			C510.58,70.04,512.47,69.36,514.36,69.42z M509.26,77.43c1.72,0.05,5.14,0.15,10.26,0.31V77.7c-0.2-0.73-0.73-1.57-1.57-2.52
			c-1.04-0.99-2.2-1.5-3.46-1.54c-1.94-0.06-3.56,0.95-4.87,3.03C509.56,76.83,509.44,77.09,509.26,77.43z"/>
		<path d="M544.54,61.31c1.66,0.32,4.99,0.97,10,1.95c3.23,0.63,5.59,2.25,7.06,4.87c0.77,1.51,0.98,3.15,0.63,4.95
			c-0.02,0.11-0.05,0.27-0.09,0.47c-0.46,2.39-1.74,4.23-3.83,5.54l-0.01,0.04c0.38,0.28,0.84,0.84,1.39,1.69
			c1.03,1.77,1.37,3.58,1,5.46c-0.07,0.34-0.17,0.85-0.3,1.53c-0.57,2.93-2.32,5.05-5.24,6.37c-1.44,0.46-2.32,0.65-2.65,0.59
			c-0.92,0.15-2.18,0.06-3.78-0.25c-2.27-0.44-5.68-1.11-10.24-2c-0.03-0.01-0.05-0.02-0.07-0.06c1.01-5.2,3.04-15.57,6.06-31.12
			L544.54,61.31z M545.11,79.12c-0.32,1.65-0.97,4.99-1.95,10.02c1.16,0.23,3.46,0.67,6.88,1.34c2.4,0.47,4.25-0.1,5.54-1.71
			c0.42-0.54,0.72-1.26,0.9-2.17c0.03-0.17,0.08-0.43,0.15-0.77c0.36-1.85-0.33-3.29-2.08-4.34c-0.81-0.57-1.86-0.98-3.16-1.24
			c-1.38-0.27-3.44-0.67-6.18-1.2C545.18,79.05,545.15,79.07,545.11,79.12z M547.68,66.17c-0.28,1.45-0.85,4.38-1.71,8.78
			c0.97,0.19,2.9,0.57,5.81,1.13c2.43,0.47,4.32-0.07,5.66-1.64c0.35-0.49,0.58-0.96,0.66-1.42c0.04-0.23,0.11-0.54,0.18-0.94
			c0.3-1.56-0.54-2.91-2.53-4.03c-0.6-0.32-1.46-0.59-2.6-0.82C551.94,67,550.11,66.64,547.68,66.17z"/>
		<path d="M577.75,80.24c2.22,0.72,3.84,2.22,4.85,4.49c0.16-0.5,0.41-1.25,0.74-2.27c0.03,0.01,0.06,0,0.09-0.02
			c0.64,0.21,1.9,0.62,3.78,1.22c0.03,0.01,0.05,0.03,0.07,0.07c-1.06,3.28-3.19,9.85-6.38,19.71c-0.03-0.01-0.06,0-0.09,0.02
			c-0.62-0.2-1.88-0.61-3.78-1.22l-0.07-0.07c0.11-0.33,0.32-0.99,0.64-1.98c-2.04,1.19-4.25,1.41-6.61,0.65
			c-2.92-0.95-5.02-2.96-6.3-6.06c-0.89-2.48-0.93-4.94-0.14-7.39c0.99-3.06,2.98-5.32,5.97-6.79
			C572.93,79.58,575.34,79.46,577.75,80.24z M568.46,88.65c-0.7,2.15-0.36,4.22,1.01,6.21c0.79,0.95,1.65,1.58,2.59,1.89
			c0.08,0.03,0.21,0.07,0.4,0.13c1.29,0.42,2.72,0.29,4.3-0.39c1.66-0.92,2.78-2.28,3.36-4.07c0.71-2.2,0.38-4.29-1-6.26
			c-0.79-0.93-1.68-1.55-2.64-1.86c-0.08-0.03-0.19-0.06-0.32-0.1c-1.61-0.52-3.32-0.24-5.12,0.85
			C569.78,86.05,568.92,87.24,568.46,88.65z"/>
		<path d="M602.47,90.01c0.1,0.04,0.27,0.12,0.5,0.22c1.29,0.57,2.44,1.53,3.44,2.88l-0.02,0.04c-1.62,2.29-2.49,3.48-2.62,3.55
			c-0.88-1.36-1.79-2.26-2.75-2.68c-0.05-0.02-0.15-0.07-0.31-0.14c-1.24-0.54-2.53-0.55-3.86-0.03c-1.11,0.56-2.21,2.08-3.3,4.58
			c-0.85,1.94-2.13,4.85-3.84,8.75l-0.04,0.08c-0.62-0.27-1.83-0.8-3.64-1.59c0.01-0.03,0-0.06-0.04-0.11
			c1.36-3.1,4.09-9.33,8.19-18.69c0.03,0.01,0.05,0.02,0.08,0.03c0.59,0.26,1.8,0.79,3.64,1.59c-0.1,0.24-0.31,0.72-0.63,1.43
			C599.27,89.34,601,89.37,602.47,90.01z"/>
		<path d="M620.5,86.76l0.04,0.02c-1.11,1.97-3.3,5.87-6.58,11.69c0.32-0.12,0.72-0.22,1.2-0.32c1.95-0.36,3.8-0.06,5.54,0.93
			c1.99,1.12,3.44,2.82,4.36,5.09c0.1,0.29,0.24,0.78,0.43,1.49c0.28,1.45,0.33,2.8,0.16,4.03c-0.22,1.37-0.67,2.66-1.36,3.87
			c-0.91,1.61-2.15,2.93-3.72,3.94c-0.53,0.37-1.17,0.7-1.93,1.01c-0.78,0.29-1.38,0.47-1.8,0.53c-0.53,0.07-0.99,0.12-1.4,0.16
			c-1.96,0.09-3.73-0.3-5.3-1.19c-0.05-0.03-0.12-0.07-0.22-0.12c-0.66-0.37-1.38-0.96-2.16-1.76c-0.38-0.41-0.69-0.84-0.93-1.27
			c-0.2-0.34-0.39-0.77-0.59-1.28c-0.08-0.31-0.16-0.64-0.23-0.98c-0.24,0.43-0.6,1.06-1.06,1.89c-0.59-0.33-1.78-1-3.57-2.01
			c2.6-4.62,7.8-13.85,15.59-27.7l0.04,0.02C617.59,85.12,618.76,85.78,620.5,86.76z M610.01,105.48c-0.02,0.03-0.03,0.05-0.04,0.08
			c-0.7,1.24-0.97,2.59-0.83,4.07c0.02,0.31,0.09,0.7,0.21,1.17c0.03,0.12,0.09,0.28,0.16,0.49c0.22,0.52,0.43,0.92,0.63,1.2
			c0.55,0.81,1.19,1.42,1.93,1.83c1.5,0.84,3.14,0.97,4.93,0.38c0.7-0.27,1.28-0.58,1.73-0.92c0.82-0.6,1.48-1.33,1.96-2.19
			c0.01-0.02,0.03-0.05,0.04-0.08c0.81-1.44,1.08-2.98,0.81-4.63c-0.42-1.9-1.43-3.29-3.02-4.19c-0.69-0.39-1.56-0.61-2.62-0.68
			c-0.47-0.03-0.98,0.03-1.55,0.17c-0.53,0.13-0.87,0.24-1.01,0.33C611.88,103.12,610.78,104.11,610.01,105.48z"/>
		<path d="M641.28,112.22c0.07,0.05,0.23,0.16,0.48,0.34c1.67,1.2,2.79,3.05,3.35,5.56c0.22,1.29,0.26,2.32,0.13,3.08
			c-0.26,2.1-0.98,3.98-2.18,5.65c-0.09,0.12-0.21,0.29-0.38,0.53c-0.24,0.33-0.37,0.49-0.39,0.47c-2.75-1.97-6.86-4.92-12.32-8.84
			c-0.62,1.44-0.85,2.71-0.69,3.78c0.17,1.69,0.86,2.96,2.04,3.82c1.49,1.07,3.29,1.19,5.41,0.36c0.47-0.27,0.71-0.4,0.74-0.38
			c1.33,2.35,1.99,3.53,1.97,3.55c-0.46,0.31-1.26,0.67-2.38,1.07c-3.14,0.85-5.85,0.45-8.14-1.19c-0.02-0.02-0.06-0.04-0.1-0.07
			c-2.34-1.67-3.58-4.21-3.75-7.61c0.03-2.51,0.76-4.76,2.2-6.76c0.02-0.02,0.03-0.05,0.05-0.07c1.97-2.75,4.68-4.34,8.1-4.77
			C637.79,110.63,639.74,111.12,641.28,112.22z M632.57,116.02c1.4,1,4.18,3,8.34,5.99l0.03-0.04c0.24-0.72,0.27-1.71,0.1-2.97
			c-0.31-1.4-0.98-2.47-2.01-3.21c-1.58-1.13-3.49-1.2-5.73-0.21C633.15,115.69,632.91,115.84,632.57,116.02z"/>
		<path d="M660.61,127.89c0.09,0.07,0.22,0.19,0.42,0.36c1.07,0.92,1.88,2.18,2.44,3.77l-0.03,0.03c-2.23,1.71-3.41,2.59-3.55,2.62
			c-0.44-1.56-1.05-2.69-1.84-3.37c-0.04-0.04-0.13-0.11-0.26-0.22c-1.02-0.88-2.25-1.27-3.68-1.17c-1.22,0.21-2.72,1.34-4.5,3.4
			c-1.38,1.6-3.46,4.01-6.25,7.23l-0.06,0.07c-0.51-0.44-1.51-1.31-3-2.6c0.02-0.02,0.02-0.06-0.01-0.12
			c2.21-2.56,6.66-7.71,13.35-15.44c0.02,0.02,0.04,0.04,0.06,0.06c0.49,0.42,1.49,1.29,3.01,2.6c-0.17,0.2-0.51,0.59-1.02,1.18
			C657.75,126.31,659.39,126.84,660.61,127.89z"/>
	</g>
	<path class="st0" d="M294.02,412.62c41.66,76.46,121.25,128.15,212.58,128.15c88.02,0,165.12-48,207.89-119.91"/>
	<g>
		<path d="M198.68,253.88c7.14-0.46,13.83,0.26,20.06,2.16c6.23,1.91,11.67,4.85,16.32,8.82c4.65,3.98,8.39,8.93,11.22,14.87
			c2.83,5.94,4.42,12.7,4.76,20.27c0.45,9.2-0.85,18.9-3.91,29.09c-3.06,10.19-7.4,20.3-13.01,30.31
			c-5.61,10.02-12.33,19.63-20.15,28.83c-7.82,9.2-16.29,17.36-25.42,24.46c-9.12,7.1-18.62,12.87-28.48,17.3
			c-9.86,4.42-19.72,6.87-29.58,7.34c-3.97,0.23-8.19-0.15-12.67-1.14c-4.48-0.99-8.76-2.65-12.84-4.98
			c-4.08-2.33-7.82-5.36-11.22-9.08c-3.4-3.73-6.01-8.27-7.82-13.63c-0.45-2.21-0.06-4.19,1.19-5.94c1.25-1.75,2.81-3.14,4.68-4.19
			c1.87-1.05,3.83-1.66,5.87-1.83s3.57,0.2,4.59,1.14c0.57,5.24,1.84,9.84,3.83,13.8c1.98,3.96,4.45,7.19,7.4,9.7
			c2.95,2.5,6.21,4.31,9.78,5.42c3.57,1.11,7.23,1.42,10.97,0.96c6.46-0.93,13.4-3.52,20.83-7.77c7.42-4.25,14.82-9.61,22.19-16.07
			c7.37-6.46,14.42-13.8,21.17-22.01c6.74-8.21,12.72-16.83,17.94-25.86c5.21-9.03,9.38-18.2,12.5-27.52
			c3.12-9.32,4.68-18.35,4.68-27.08c0-5.94-0.85-11.38-2.55-16.34c-1.7-4.95-4.05-9.23-7.06-12.84c-3-3.61-6.6-6.43-10.8-8.48
			c-4.19-2.04-8.84-3-13.94-2.88c-7.82,0.23-15.7,2.45-23.63,6.64c-7.93,4.19-15.61,9.58-23.04,16.16
			c-7.42,6.58-14.37,13.98-20.83,22.19s-12.04,16.37-16.75,24.46c-4.7,8.1-8.36,15.78-10.97,23.06c-2.61,7.28-3.74,13.31-3.4,18.08
			c0.11,1.4-0.23,2.21-1.02,2.45c-0.79,0.23-1.81-0.06-3.06-0.87c-1.25-0.81-2.55-1.98-3.91-3.49c-1.36-1.51-2.55-3.32-3.57-5.42
			c-1.02-2.1-1.73-4.34-2.13-6.73c-0.4-2.39-0.2-4.86,0.6-7.43c2.27-7.8,5.36-15.52,9.27-23.15c3.91-7.63,8.47-14.94,13.69-21.93
			c5.21-6.99,11.08-13.48,17.6-19.48c6.52-6,13.52-11.24,21-15.72c7.48-4.48,15.39-8.09,23.72-10.82S189.73,254.36,198.68,253.88z
			 M171.82,275.37c0.45-0.81,1.56-0.73,3.32,0.26c1.76,0.99,3.54,2.39,5.36,4.19c1.81,1.81,3.31,3.87,4.5,6.2
			c1.19,2.33,1.45,4.43,0.77,6.29c-11.9,20.5-22.61,41.32-32.13,62.46c-9.52,21.14-17.68,41.5-24.48,61.06
			c-0.23,0.81-0.88,0.73-1.96-0.26c-1.08-0.99-2.18-2.36-3.32-4.11c-1.13-1.75-2.12-3.55-2.98-5.42c-0.85-1.86-1.16-3.2-0.94-4.02
			c2.15-9.08,5.19-19.16,9.1-30.23c3.91-11.06,8.25-22.28,13.01-33.63c4.76-11.36,9.72-22.48,14.88-33.37
			C162.1,293.92,167.06,284.1,171.82,275.37z"/>
		<path d="M295.08,327.96c2.72,0.35,5.02,1.05,6.89,2.1s3.37,2.33,4.51,3.84c1.13,1.52,1.96,3.21,2.47,5.07
			c0.51,1.86,0.82,3.73,0.94,5.59c2.04,2.56,3.34,5.94,3.91,10.13c0.79,6.52,0.08,13.43-2.12,20.7c-2.21,7.28-5.44,13.95-9.69,20
			c-4.25,6.06-9.21,11.04-14.88,14.94c-5.67,3.9-11.5,5.85-17.51,5.85c-6.46-0.11-12.19-2.18-17.17-6.2
			c-4.99-4.02-8.33-10.16-10.03-18.43c-1.02-4.43-1.11-9.14-0.26-14.15c0.85-5.01,2.41-9.96,4.68-14.85
			c2.27-4.89,5.13-9.55,8.59-13.98c3.46-4.43,7.31-8.27,11.56-11.53c4.25-3.26,8.76-5.74,13.52-7.43
			C285.22,327.93,290.09,327.37,295.08,327.96z M292.19,363.07c-0.45-0.11-0.76-0.61-0.94-1.48c-0.17-0.87-0.31-1.86-0.42-2.97
			c-0.11-1.11-0.14-2.3-0.08-3.58c0.06-1.28,0.08-2.39,0.08-3.32c0.11-1.05,0.57-2.1,1.36-3.14c0.79-1.05,1.67-1.98,2.64-2.8
			c0.96-0.81,1.9-1.49,2.81-2.01c0.91-0.52,1.53-0.9,1.87-1.14c1.36-0.7,2.72-1.05,4.08-1.05c-0.23-1.63-0.96-3.03-2.21-4.19
			c-1.25-1.16-3.51-1.63-6.8-1.4c-2.72,0.23-5.78,1.25-9.18,3.06c-3.4,1.81-6.52,4.11-9.35,6.9c-3.06,3.26-5.81,6.96-8.25,11.09
			c-2.44,4.14-4.45,8.36-6.04,12.67c-1.59,4.31-2.64,8.53-3.15,12.67c-0.51,4.14-0.4,7.86,0.34,11.18c0.74,3.32,2.18,6.03,4.33,8.12
			c2.15,2.1,5.1,3.26,8.84,3.49c4.42,0.23,8.81-1.34,13.18-4.72c4.36-3.38,8.27-7.63,11.73-12.75c3.46-5.12,6.23-10.63,8.33-16.51
			c2.1-5.88,3.09-11.27,2.98-16.16c0-2.45-0.79-3.84-2.38-4.19c-1.25-0.23-2.63,0.06-4.17,0.87c-1.53,0.82-2.98,1.87-4.34,3.15
			c-1.36,1.28-2.55,2.68-3.57,4.19C292.87,360.57,292.3,361.91,292.19,363.07z"/>
		<path d="M343.19,328.65c1.13-0.58,2.64-0.49,4.51,0.26c1.87,0.76,3.57,1.89,5.1,3.41c1.53,1.52,2.72,3.26,3.57,5.24
			c0.85,1.98,0.88,3.9,0.08,5.77c-0.68,1.63-2.07,4.25-4.17,7.86c-2.1,3.61-4.36,7.72-6.8,12.32c-2.44,4.6-4.9,9.35-7.4,14.24
			c-2.49,4.89-4.51,9.38-6.04,13.45c-1.53,4.08-2.44,7.43-2.72,10.05c-0.28,2.62,0.6,3.99,2.64,4.11h1.87
			c4.08-1.16,7.88-3.17,11.39-6.03c3.51-2.85,6.83-6.08,9.95-9.7c3.12-3.61,6.06-7.4,8.84-11.36c2.78-3.96,5.35-7.69,7.74-11.18
			c0.45-0.58,1.02-0.9,1.7-0.96c0.68-0.06,1.25,0.06,1.7,0.35c0.45,0.29,0.74,0.76,0.85,1.4c0.11,0.64-0.17,1.37-0.85,2.18
			c-4.76,7.57-9.64,14.59-14.62,21.05c-4.99,6.46-10.94,12.43-17.85,17.91c-0.91,0.7-1.98,1.51-3.23,2.45
			c-1.25,0.93-2.66,1.78-4.25,2.53c-1.59,0.76-3.31,1.4-5.19,1.92c-1.87,0.52-3.77,0.79-5.7,0.79c-2.38-0.12-4.31-0.81-5.78-2.1
			c-1.47-1.28-2.55-2.97-3.23-5.07c-0.68-2.1-0.96-4.48-0.85-7.16c0.11-2.68,0.62-5.53,1.53-8.56c1.13-4.19,2.89-9.14,5.27-14.85
			c2.38-5.71,4.93-11.56,7.65-17.56c2.72-6,5.38-11.88,7.99-17.65C339.51,338,341.6,332.96,343.19,328.65z M359.51,280.43
			c1.02-0.11,2.38,0.47,4.08,1.75c1.7,1.28,3.37,2.8,5.02,4.54c1.64,1.75,3.03,3.52,4.17,5.33c1.13,1.81,1.7,3.06,1.7,3.76
			c-0.57,2.21-1.39,4.46-2.47,6.73c-1.08,2.27-2.21,4.6-3.4,6.99c-1.19,2.39-2.35,4.75-3.49,7.08c-1.13,2.33-1.98,4.66-2.55,6.99
			c-0.91-0.11-1.9-0.64-2.98-1.57c-1.08-0.93-2.07-2.01-2.98-3.23c-0.91-1.22-1.67-2.45-2.3-3.67c-0.62-1.22-0.94-2.3-0.94-3.23
			c0.11-1.98,0.45-4.25,1.02-6.81c0.57-2.56,1.22-5.24,1.96-8.04c0.74-2.8,1.42-5.62,2.04-8.47
			C359.03,285.7,359.4,283,359.51,280.43z"/>
		<path d="M489.91,338.44c-0.57,0.12-1.19,0.06-1.87-0.17c-0.34,0.12-0.85,0.17-1.53,0.17c-0.91,0.12-1.62,0-2.12-0.35
			c-0.51-0.35-0.85-0.81-1.02-1.4c-0.17-0.58-0.12-1.19,0.17-1.83c0.28-0.64,0.82-1.14,1.62-1.49c2.61-0.7,6.09-2.04,10.46-4.02
			c4.36-1.98,8.83-4.69,13.41-8.12c4.57-3.43,8.8-7.57,12.67-12.4c3.87-4.83,6.71-10.51,8.51-17.04c0.91-3.49,1.45-7.13,1.62-10.92
			c0.17-3.78-0.28-7.25-1.36-10.4c-1.08-3.14-2.96-5.68-5.66-7.6c-2.69-1.92-6.46-2.82-11.28-2.71c-5.77,0.23-11.62,1.57-17.58,4.02
			c-5.95,2.45-11.81,5.71-17.6,9.78c-5.78,4.08-11.39,8.82-16.83,14.24s-10.54,11.09-15.3,17.03c-4.76,5.94-9.12,12.03-13.09,18.26
			c-3.97,6.23-7.31,12.26-10.03,18.08c-2.72,5.83-4.79,11.24-6.21,16.25c-1.42,5.01-2.01,9.32-1.79,12.93
			c0.11,1.4-0.25,2.16-1.1,2.27c-0.85,0.12-1.9-0.26-3.15-1.14c-1.25-0.87-2.55-2.12-3.91-3.76c-1.36-1.63-2.52-3.46-3.49-5.5
			c-0.96-2.04-1.61-4.22-1.96-6.55c-0.34-2.33-0.11-4.66,0.68-6.99c2.61-7.69,5.92-15.31,9.95-22.89
			c4.02-7.57,8.64-14.85,13.86-21.84c5.21-6.99,11.02-13.48,17.43-19.48c6.4-6,13.29-11.27,20.66-15.81
			c7.37-4.54,15.13-8.18,23.29-10.92c8.16-2.74,16.71-4.34,25.65-4.8c6.29,0,11.74,1.08,16.37,3.23c4.62,2.16,8.38,4.98,11.27,8.47
			c2.89,3.49,4.87,7.46,5.95,11.88c1.08,4.43,1.16,8.97,0.26,13.63c-1.25,6.29-3.29,11.85-6.12,16.69
			c-2.83,4.83-6.2,9.06-10.09,12.67c-3.89,3.61-8.12,6.64-12.67,9.09c-4.55,2.45-9.15,4.43-13.79,5.94
			c3.17,1.28,6.22,3.09,9.15,5.42c2.93,2.33,5.57,4.92,7.93,7.77c2.36,2.86,4.27,5.94,5.73,9.26c1.46,3.32,2.3,6.61,2.53,9.87
			c0.57,10.13-1.37,19.37-5.81,27.69c-4.44,8.33-10.76,15.4-18.96,21.23c-8.2,5.82-17.88,10.34-29.04,13.54
			c-11.17,3.2-23.21,4.74-36.13,4.63c-5.9-0.12-11.59-0.87-17.09-2.27c-5.5-1.4-10.48-3.32-14.96-5.77
			c-4.48-2.45-8.27-5.33-11.39-8.65c-3.12-3.32-5.16-6.93-6.12-10.83c-0.96-3.9-0.77-8.01,0.6-12.32c1.36-4.31,4.31-8.68,8.84-13.1
			c0.23-0.35,1.33-0.41,3.32-0.17c1.98,0.23,4.11,0.58,6.38,1.05c2.27,0.47,4.39,1.02,6.38,1.66c1.98,0.64,3.09,1.31,3.31,2.01
			c-4.42,3.03-7.59,6.14-9.52,9.35c-1.93,3.21-2.86,6.32-2.81,9.35c0.06,3.03,1.02,5.85,2.89,8.47c1.87,2.62,4.34,4.95,7.4,6.99
			c3.06,2.04,6.6,3.64,10.63,4.8c4.02,1.16,8.3,1.75,12.84,1.75c8.95,0,17.74-1.37,26.35-4.11c8.61-2.74,16.26-6.64,22.95-11.71
			c6.69-5.07,12.01-11.18,15.98-18.34c3.97-7.16,5.89-15.23,5.78-24.2c0-4.08-0.68-7.98-2.04-11.71c-1.36-3.73-3.06-6.96-5.1-9.7
			c-2.04-2.74-4.34-4.89-6.88-6.46C494.75,338.88,492.29,338.21,489.91,338.44z M488.21,269.95c0.45-0.7,1.56-0.58,3.31,0.35
			c1.76,0.93,3.54,2.33,5.36,4.19c1.81,1.86,3.32,3.96,4.51,6.29c1.19,2.33,1.45,4.49,0.77,6.46
			c-11.9,20.38-22.61,41.15-32.13,62.29c-9.52,21.14-17.68,41.5-24.48,61.06c-0.23,0.82-0.88,0.73-1.96-0.26
			c-1.08-0.99-2.18-2.36-3.32-4.11c-1.13-1.75-2.12-3.55-2.98-5.42c-0.85-1.86-1.16-3.26-0.94-4.19c2.15-8.97,5.19-18.98,9.1-30.05
			c3.91-11.06,8.25-22.28,13.01-33.63s9.72-22.51,14.88-33.46C478.49,288.53,483.45,278.69,488.21,269.95z"/>
		<path d="M613.33,352.24c0,0.82-0.28,1.46-0.85,1.92c-0.57,0.47-1.16,0.73-1.79,0.79c-0.62,0.06-1.16-0.14-1.62-0.61
			c-0.46-0.46-0.68-1.16-0.68-2.1c-0.23-1.16-0.43-2.65-0.6-4.46c-0.17-1.8-0.57-3.55-1.19-5.24c-0.62-1.69-1.62-3.17-2.97-4.46
			c-1.36-1.28-3.35-1.98-5.95-2.1c-3.17-0.11-6.26,0.52-9.27,1.92c-3,1.4-5.87,3.32-8.59,5.77c-2.72,2.45-5.27,5.27-7.65,8.47
			c-2.38,3.2-4.54,6.52-6.46,9.96c-1.93,3.44-3.6,6.87-5.02,10.31c-1.42,3.44-2.52,6.61-3.31,9.52c-0.57,1.98-1.02,4.37-1.36,7.16
			s-0.23,5.39,0.34,7.78c0.56,2.39,1.76,4.22,3.57,5.5c1.81,1.28,4.64,1.46,8.5,0.52c1.81-0.46,4.02-1.8,6.63-4.02
			c2.61-2.21,5.24-4.8,7.9-7.77c2.66-2.97,5.19-6.09,7.57-9.35c2.38-3.26,4.31-6.12,5.78-8.56c1.24-3.38,2.29-6.64,3.14-9.78
			c0.85-3.14,1.39-5.88,1.62-8.21c1.13-0.58,2.66-0.46,4.59,0.35c1.93,0.82,3.74,1.98,5.44,3.5c1.7,1.51,3.06,3.26,4.08,5.24
			c1.02,1.98,1.25,3.9,0.68,5.77c-0.68,1.75-1.5,3.84-2.46,6.29c-0.96,2.45-1.93,4.95-2.89,7.51c-0.96,2.56-1.87,5.1-2.72,7.6
			c-0.85,2.51-1.42,4.78-1.7,6.81c-0.29,2.04-0.29,3.7,0,4.98c0.28,1.28,1.05,1.98,2.29,2.1h2.04c3.85-1.16,7.45-3.26,10.8-6.29
			c3.34-3.03,6.46-6.46,9.35-10.31c2.89-3.84,5.55-7.86,7.99-12.06c2.44-4.19,4.68-8.04,6.72-11.53c0.34-0.58,0.85-0.9,1.53-0.96
			c0.68-0.06,1.28,0.09,1.79,0.44c0.51,0.35,0.88,0.82,1.11,1.4c0.23,0.58,0.11,1.28-0.34,2.1c-2.27,3.61-4.48,7.28-6.63,11.01
			c-2.15,3.73-4.42,7.34-6.8,10.83c-2.38,3.49-4.9,6.87-7.56,10.13c-2.66,3.26-5.58,6.23-8.76,8.91c-0.79,0.7-1.79,1.51-2.97,2.45
			c-1.19,0.93-2.55,1.81-4.08,2.62c-1.53,0.82-3.17,1.49-4.93,2.01c-1.76,0.52-3.65,0.73-5.7,0.61c-3.17-0.24-5.75-1.05-7.74-2.45
			c-1.98-1.4-3.48-3.2-4.5-5.42c-1.02-2.21-1.56-4.72-1.62-7.51c-0.06-2.8,0.31-5.65,1.11-8.56c-2.27,2.91-4.68,5.77-7.23,8.56
			c-2.55,2.79-5.19,5.3-7.91,7.51c-2.72,2.21-5.5,3.99-8.33,5.33c-2.83,1.34-5.61,1.89-8.33,1.66c-4.88-0.23-8.64-1.42-11.31-3.58
			c-2.66-2.15-4.62-4.69-5.87-7.6c-1.25-2.91-1.96-5.94-2.12-9.08c-0.17-3.15-0.08-5.77,0.26-7.86c0.57-4.08,1.81-8.56,3.74-13.45
			c1.93-4.89,4.42-9.75,7.48-14.59c3.06-4.83,6.6-9.44,10.62-13.8c4.02-4.37,8.33-8.04,12.92-11.01s9.38-5.07,14.37-6.29
			c4.99-1.22,10.09-1.14,15.3,0.26c2.27,0.7,4.11,1.83,5.53,3.41c1.42,1.57,2.52,3.44,3.32,5.59c0.79,2.16,1.3,4.49,1.53,6.99
			C613.39,347.32,613.45,349.8,613.33,352.24z"/>
		<path d="M704.46,386.49c-2.38,3.5-5.1,7.05-8.16,10.66c-3.06,3.61-6.35,6.87-9.86,9.78c-3.51,2.91-7.25,5.27-11.22,7.08
			c-3.97,1.81-8.05,2.59-12.24,2.36c-4.31-0.23-7.48-1.86-9.52-4.89c-2.04-3.03-3-6.52-2.89-10.48c0.11-3.61,0.74-6.99,1.87-10.13
			c1.13-3.14,2.58-6.2,4.33-9.17c1.76-2.97,3.68-5.91,5.78-8.82c2.1-2.91,4.28-5.94,6.54-9.08c1.47-2.1,2.95-4.16,4.42-6.2
			c1.47-2.04,2.72-3.84,3.74-5.42c1.02-1.57,1.76-2.82,2.21-3.76c0.45-0.93,0.45-1.34,0-1.22c-1.7,0.23-3.14,0.5-4.34,0.79
			c-1.19,0.29-2.29,0.58-3.31,0.87c-1.02,0.29-2.1,0.5-3.23,0.61c-1.13,0.12-2.49,0.17-4.08,0.17c-0.57,0-1.13,0-1.7,0
			c-0.57,0-1.13-0.06-1.7-0.17c-2.61,3.73-5.1,7.46-7.48,11.18c-2.38,3.73-4.65,7.34-6.8,10.83c-0.34,0.58-0.82,0.9-1.45,0.96
			c-0.62,0.06-1.16-0.06-1.62-0.35c-0.45-0.29-0.79-0.76-1.02-1.4c-0.23-0.64-0.06-1.37,0.51-2.18c2.27-3.73,4.39-7.31,6.38-10.75
			c1.98-3.43,4.11-6.9,6.38-10.4c-2.04-1.75-2.78-4.11-2.21-7.08c0.57-2.97,1.7-6.11,3.4-9.43c1.7-3.32,3.51-6.49,5.44-9.52
			c1.93-3.03,3.23-5.47,3.91-7.34c1.36,0.58,2.75,1.31,4.16,2.18c1.42,0.87,2.58,1.92,3.49,3.15c0.9,1.22,1.47,2.74,1.7,4.54
			c0.23,1.81-0.17,3.99-1.19,6.55l-7.14,10.66c-0.46,0.7-0.06,0.93,1.19,0.7c1.25-0.23,3-0.73,5.27-1.49
			c2.27-0.76,4.79-1.69,7.56-2.8c2.78-1.11,5.47-2.24,8.08-3.41c2.61-1.16,4.9-2.3,6.88-3.41c1.98-1.11,3.26-2.01,3.83-2.71
			c0.34,0,0.82,0.23,1.45,0.7c0.62,0.47,1.3,0.99,2.04,1.57c0.74,0.58,1.39,1.17,1.96,1.75c0.57,0.58,0.91,0.93,1.02,1.05
			c1.13,1.75,1.1,4.05-0.09,6.9c-1.19,2.86-3.03,6.15-5.53,9.87c-2.49,3.73-5.44,7.72-8.84,11.97c-3.4,4.25-6.75,8.65-10.03,13.19
			c-1.13,1.4-2.38,3.06-3.74,4.98s-2.66,3.9-3.91,5.94c-1.25,2.04-2.32,4.05-3.23,6.03c-0.91,1.98-1.47,3.79-1.7,5.42
			c-0.23,1.63,0.03,2.94,0.77,3.93c0.74,0.99,2.18,1.55,4.34,1.66c1.47,0.12,3.26-0.32,5.36-1.31c2.1-0.99,4.33-2.39,6.71-4.19
			c2.38-1.8,4.76-3.93,7.14-6.38s4.53-5.07,6.46-7.86c2.27-3.38,4.33-6.64,6.21-9.78c1.87-3.14,3.43-5.88,4.68-8.21
			c0.45-0.58,0.99-0.9,1.62-0.96c0.62-0.06,1.19,0.09,1.7,0.44c0.51,0.35,0.85,0.82,1.02,1.4c0.17,0.58,0.03,1.28-0.42,2.1
			c-1.93,3.03-3.74,6.12-5.44,9.26C708.2,380.54,706.38,383.58,704.46,386.49z"/>
		<path d="M746.28,328.83c-1.59,3.03-3.12,5.94-4.59,8.74c-1.47,2.8-2.95,5.65-4.42,8.56c2.61-2.45,5.38-4.77,8.33-6.99
			c2.95-2.21,5.98-4.11,9.1-5.68c3.12-1.57,6.23-2.77,9.35-3.58c3.12-0.81,6.15-1.05,9.1-0.7c4.53,0.58,7.99,2.1,10.37,4.54
			c2.38,2.45,4.02,5.33,4.93,8.65c0.9,3.32,1.19,6.84,0.85,10.57c-0.34,3.73-0.96,7.22-1.87,10.48c-1.93,6.52-4.65,12.9-8.16,19.13
			c-3.51,6.23-7.56,11.79-12.16,16.69c-4.59,4.89-9.66,8.85-15.21,11.88c-5.55,3.03-11.28,4.6-17.17,4.72
			c-6.12,0.12-10.65-1.08-13.6-3.58c-2.95-2.5-4.87-5.62-5.78-9.35c-0.23-0.46-0.34-0.93-0.34-1.4c-0.57,2.33-0.96,4.63-1.19,6.9
			c-0.23,2.27-0.45,4.57-0.68,6.9c0,0.82-0.62,1.05-1.87,0.7c-1.25-0.35-2.63-0.96-4.17-1.83c-1.53-0.87-2.92-1.89-4.16-3.06
			c-1.25-1.16-1.93-2.21-2.04-3.15c0.34-7.1,1.5-14.27,3.48-21.49c1.98-7.22,4.48-14.5,7.48-21.84c3-7.34,6.26-14.65,9.78-21.93
			c3.51-7.28,6.97-14.53,10.37-21.75c1.93-4.08,3.8-8.18,5.61-12.32c1.81-4.13,3.54-8.18,5.19-12.14c1.64-3.96,3.09-7.74,4.33-11.36
			c1.25-3.61,2.27-6.93,3.06-9.96c1.13-0.58,2.66-0.49,4.59,0.26c1.93,0.76,3.74,1.86,5.44,3.32c1.7,1.46,3.06,3.17,4.08,5.15
			c1.02,1.98,1.19,3.9,0.51,5.77c-0.45,1.4-1.33,3.52-2.63,6.38c-1.3,2.86-2.8,6.09-4.51,9.7c-1.7,3.61-3.57,7.43-5.61,11.44
			C750.02,321.23,748.09,325.1,746.28,328.83z M729.11,362.03c-1.59,3.38-3.12,6.7-4.59,9.96c-1.47,3.26-2.83,6.58-4.08,9.96
			c-0.45,1.86-0.71,3.99-0.76,6.38c-0.06,2.39,0.25,4.63,0.93,6.73s1.79,3.9,3.32,5.42c1.53,1.52,3.65,2.33,6.38,2.45
			c3.51,0.35,7.42-0.99,11.73-4.02c4.31-3.03,8.5-6.87,12.58-11.53c4.08-4.66,7.76-9.75,11.05-15.29
			c3.29-5.53,5.72-10.71,7.31-15.55c1.59-4.83,2.01-8.91,1.28-12.23c-0.74-3.32-3.09-5.09-7.05-5.33c-2.95-0.11-6.15,0.41-9.61,1.57
			c-3.46,1.17-6.92,2.8-10.37,4.89c-3.46,2.1-6.74,4.57-9.86,7.43C734.24,355.71,731.49,358.77,729.11,362.03z"/>
		<path d="M855.6,352.07c-5.1,9.43-11.79,17.27-20.06,23.5c-8.27,6.23-17.4,10.74-27.37,13.54c-0.11,1.98,0,3.96,0.34,5.94
			c0.34,1.98,0.91,3.84,1.7,5.59c0.79,1.75,1.87,3.26,3.23,4.54c1.36,1.28,3.06,2.16,5.1,2.62c2.49,0.58,5.36,0.5,8.59-0.26
			c3.23-0.76,6.63-2.27,10.2-4.54c3.57-2.27,7.23-5.27,10.97-9c3.74-3.73,7.42-8.27,11.05-13.63c1.81-2.68,3.46-5.3,4.93-7.86
			c1.47-2.56,2.83-5.01,4.08-7.34c0.45-0.58,0.99-0.9,1.62-0.96c0.62-0.06,1.19,0.09,1.7,0.44c0.51,0.35,0.88,0.82,1.1,1.4
			c0.23,0.58,0.11,1.28-0.34,2.1c-1.59,2.56-3.29,5.36-5.1,8.39c-1.81,3.03-3.83,6.2-6.04,9.52c-2.21,3.32-4.65,6.64-7.31,9.96
			c-2.66,3.32-5.64,6.49-8.93,9.52c-3.29,3.03-6.46,5.33-9.52,6.9c-3.06,1.57-5.95,2.68-8.67,3.32s-5.16,0.99-7.31,1.05
			c-2.15,0.06-3.91,0.09-5.27,0.09c-7.71,0-13.72-2.1-18.02-6.29c-4.31-4.19-6.63-9.9-6.97-17.12c-0.23-6.64,0.94-13.25,3.48-19.83
			c2.55-6.58,6.66-13.71,12.33-21.4c1.81-2.45,4.25-5.09,7.31-7.95c3.06-2.85,6.46-5.5,10.2-7.95c3.74-2.45,7.71-4.42,11.9-5.94
			c4.19-1.51,8.39-2.21,12.58-2.1c2.72,0,5.07,0.64,7.05,1.92c1.98,1.28,3.43,3,4.34,5.15c0.9,2.16,1.16,4.66,0.76,7.51
			C858.85,345.75,857.64,348.81,855.6,352.07z M809.01,382.82c-0.11,0.24-0.17,0.47-0.17,0.7c9.18-2.68,17.45-6.96,24.82-12.84
			c7.37-5.88,13.32-13.25,17.85-22.1c1.59-3.38,1.98-6.26,1.19-8.65c-0.79-2.39-2.78-3.29-5.95-2.71
			c-4.76,0.93-9.24,3.14-13.43,6.64c-4.2,3.49-7.94,7.51-11.22,12.06c-3.29,4.54-6.06,9.23-8.33,14.06
			C811.51,374.81,809.92,379.09,809.01,382.82z"/>
		<path d="M927.85,386.49c-2.38,3.5-5.1,7.05-8.16,10.66c-3.06,3.61-6.35,6.87-9.86,9.78c-3.51,2.91-7.25,5.27-11.22,7.08
			c-3.97,1.81-8.05,2.59-12.24,2.36c-4.31-0.23-7.48-1.86-9.52-4.89c-2.04-3.03-3-6.52-2.89-10.48c0.11-3.61,0.74-6.99,1.87-10.13
			c1.13-3.14,2.58-6.2,4.33-9.17c1.76-2.97,3.68-5.91,5.78-8.82c2.1-2.91,4.28-5.94,6.54-9.08c1.47-2.1,2.95-4.16,4.42-6.2
			c1.47-2.04,2.72-3.84,3.74-5.42c1.02-1.57,1.76-2.82,2.21-3.76c0.45-0.93,0.45-1.34,0-1.22c-1.7,0.23-3.14,0.5-4.34,0.79
			c-1.19,0.29-2.29,0.58-3.31,0.87c-1.02,0.29-2.1,0.5-3.23,0.61c-1.13,0.12-2.49,0.17-4.08,0.17c-0.57,0-1.13,0-1.7,0
			c-0.57,0-1.13-0.06-1.7-0.17c-2.61,3.73-5.1,7.46-7.48,11.18c-2.38,3.73-4.65,7.34-6.8,10.83c-0.34,0.58-0.82,0.9-1.45,0.96
			c-0.62,0.06-1.16-0.06-1.62-0.35c-0.45-0.29-0.79-0.76-1.02-1.4c-0.23-0.64-0.06-1.37,0.51-2.18c2.27-3.73,4.39-7.31,6.38-10.75
			c1.98-3.43,4.11-6.9,6.38-10.4c-2.04-1.75-2.78-4.11-2.21-7.08c0.57-2.97,1.7-6.11,3.4-9.43c1.7-3.32,3.51-6.49,5.44-9.52
			c1.93-3.03,3.23-5.47,3.91-7.34c1.36,0.58,2.75,1.31,4.16,2.18c1.42,0.87,2.58,1.92,3.49,3.15c0.9,1.22,1.47,2.74,1.7,4.54
			c0.23,1.81-0.17,3.99-1.19,6.55l-7.14,10.66c-0.46,0.7-0.06,0.93,1.19,0.7c1.25-0.23,3-0.73,5.27-1.49
			c2.27-0.76,4.79-1.69,7.56-2.8c2.78-1.11,5.47-2.24,8.08-3.41c2.61-1.16,4.9-2.3,6.88-3.41c1.98-1.11,3.26-2.01,3.83-2.71
			c0.34,0,0.82,0.23,1.45,0.7c0.62,0.47,1.3,0.99,2.04,1.57c0.74,0.58,1.39,1.17,1.96,1.75c0.57,0.58,0.91,0.93,1.02,1.05
			c1.13,1.75,1.1,4.05-0.09,6.9c-1.19,2.86-3.03,6.15-5.53,9.87c-2.49,3.73-5.44,7.72-8.84,11.97c-3.4,4.25-6.75,8.65-10.03,13.19
			c-1.13,1.4-2.38,3.06-3.74,4.98s-2.66,3.9-3.91,5.94c-1.25,2.04-2.32,4.05-3.23,6.03c-0.91,1.98-1.47,3.79-1.7,5.42
			c-0.23,1.63,0.03,2.94,0.77,3.93c0.74,0.99,2.18,1.55,4.34,1.66c1.47,0.12,3.26-0.32,5.36-1.31c2.1-0.99,4.33-2.39,6.71-4.19
			c2.38-1.8,4.76-3.93,7.14-6.38s4.53-5.07,6.46-7.86c2.27-3.38,4.33-6.64,6.21-9.78c1.87-3.14,3.43-5.88,4.68-8.21
			c0.45-0.58,0.99-0.9,1.62-0.96c0.62-0.06,1.19,0.09,1.7,0.44c0.51,0.35,0.85,0.82,1.02,1.4c0.17,0.58,0.03,1.28-0.42,2.1
			c-1.93,3.03-3.74,6.12-5.44,9.26C931.59,380.54,929.78,383.58,927.85,386.49z"/>
	</g>
	<path d="M131.45,296.25"/>
	<g>
		<g>
			<path class="st2" d="M350.45,292.77c3.51,1.71,6.45,3.82,9.15,6.56c0.55,0.56,1.58,0.59,2.12,0c0.55-0.6,0.59-1.52,0-2.12
				c-2.83-2.86-6.14-5.27-9.76-7.03c-0.7-0.34-1.65-0.21-2.05,0.54C349.56,291.39,349.7,292.4,350.45,292.77L350.45,292.77z"/>
		</g>
	</g>
	<g>
		<g>
			<path class="st2" d="M360.74,275.58c0.69,10.86,0.35,21.78-1.09,32.56c-0.18,1.31-0.37,2.63-0.58,3.94
				c-0.03,0.18-0.41,1.7-0.3,1.79c0.09-0.04,0.18-0.08,0.27-0.12c0.35-0.05,0.37-0.18,0.05-0.39c-0.08-0.31-0.44-0.68-0.61-0.95
				c-1.33-2.09-2.58-4.24-3.73-6.44c-1.16-2.22-2.24-4.49-3.2-6.8c-0.23-0.56-0.46-1.12-0.68-1.68c-0.27-0.69-0.49-1,0.08-1.53
				c0.92-0.87,1.93-1.65,2.89-2.48c-0.05,0.04,0.69-0.57,0.69-0.59c-0.48-0.3-0.64-0.33-0.48-0.09c0.1,0.18,0.2,0.35,0.31,0.52
				c0.38,0.64,0.76,1.29,1.14,1.93c0.8,1.36,1.6,2.72,2.41,4.08c1.6,2.72,3.21,5.44,4.81,8.16c0.76,1.3,2.76,0.72,2.8-0.76
				c0.25-12,0.51-23.99,0.76-35.99c0.04-1.94-2.91-1.92-3,0c-0.36,7.31-2.11,14.57-5.21,21.21c-1.53,3.26-3.65,6.16-5.25,9.37
				c-1.36,2.72-2.05,6.1-0.43,8.88c1.61,2.78,4.87,3.49,7.85,3.51c1.79,0.01,3.58-0.12,5.36-0.22c0.98-0.05,1.96-0.11,2.93-0.17
				c0.49-0.03,0.98-0.06,1.47-0.09c0.33-0.02,0.65-0.04,0.98-0.07c-0.3-1.01-0.57-1.25-0.81-0.73c-0.3,0.12-0.7,0.64-0.94,0.85
				c-0.37,0.32-0.74,0.65-1.11,0.97c-0.74,0.65-1.48,1.29-2.22,1.94c-1.48,1.29-2.94,2.61-4.43,3.88c-0.29,0.25-0.8,0.41-0.42,0.54
				c-0.24-0.08-0.62-0.68-0.77-0.85c-0.63-0.73-1.25-1.47-1.88-2.2c-1.36-1.59-2.72-3.17-4.07-4.77c-0.06-0.07-0.64-0.92-0.72-0.94
				c-0.82,0.18-0.99,0.38-0.49,0.6c0.21,0.09,0.42,0.18,0.64,0.27c0.79,0.21,1.62-0.03,2.22-0.57c1.37-1.22,1.8-3.54,2.41-5.19
				c1.6-4.32,3.2-8.64,4.8-12.96c-0.98-0.13-1.96-0.27-2.95-0.4c-0.03,5.91-0.05,11.81-0.08,17.72c-0.01,1.75,2.4,1.96,2.95,0.4
				c1.33-3.81,1.28-7.9,1.39-11.88c0.06-1.95,0.13-3.91,0.54-5.82c0.19-0.9,0.44-1.81,0.81-2.65c0.27-0.62,0.78-1.96,1.43-2.25
				c-0.39,0.05-0.77,0.1-1.16,0.15c-0.51-0.1-0.46-0.66-0.41,0.26c0.01,0.28,0.03,0.56,0.05,0.83c0.04,0.63,0.1,1.25,0.17,1.87
				c0.15,1.31,0.34,2.61,0.59,3.91c0.49,2.53,1.19,5.01,2.09,7.42c1.8,4.8,4.35,9.23,7.57,13.22c0.86,1.06,2.54,0.13,2.56-1.06
				c0.19-9.12-1.3-18.24-4.41-26.81c-0.29-0.79-1-1.24-1.85-1.05c-1.46,0.34-2.06,1.71-2.18,3.08c-0.18,1.98,0.02,4.06,0.05,6.05
				c0.06,4.31,0.11,8.63,0.17,12.94c0.37-0.48,0.73-0.96,1.1-1.45c-1.39,0.53-2.69-0.44-3.27-1.72c-0.74-1.65-0.55-3.62-0.45-5.37
				c0.11-1.93-2.89-1.92-3,0c-0.15,2.62-0.22,5.55,1.41,7.77c1.37,1.87,3.82,3.09,6.11,2.21c0.62-0.24,1.11-0.74,1.1-1.45
				c-0.04-3.48-0.09-6.97-0.13-10.45c-0.02-1.66-0.04-3.32-0.06-4.98c-0.01-0.91-0.03-1.82-0.04-2.74c0-0.24,0.01-0.48,0.01-0.72
				c0-0.34,0.27-0.36-0.01-0.3c-0.62-0.35-1.23-0.7-1.85-1.05c3.03,8.35,4.49,17.14,4.31,26.02c0.85-0.35,1.71-0.71,2.56-1.06
				c-5.11-6.31-8.41-14.15-9.35-22.22c-0.11-0.97-0.19-1.94-0.24-2.92c-0.05-0.9-0.07-1.84-0.7-2.55c-1.51-1.7-3.19,0.17-4.01,1.48
				c-1.9,3.05-2.31,6.73-2.46,10.25c-0.17,4.1,0.05,8.28-1.32,12.21c0.98,0.13,1.96,0.27,2.95,0.4c0.03-5.91,0.05-11.81,0.08-17.72
				c0.01-1.77-2.38-1.93-2.95-0.4c-1.54,4.17-3.09,8.33-4.63,12.5c-0.37,1-0.74,2.01-1.11,3.01c-0.02,0.06-0.5,1.1-0.48,1.12
				c0.02,0.03,0.61,0.25,0.44-0.06c-0.07-0.13-0.44-0.26-0.57-0.32c-1.58-0.7-3.22,0.5-3.34,2.17c-0.12,1.84,1.62,3.31,2.7,4.58
				c1.41,1.65,2.82,3.3,4.23,4.95c1.13,1.33,2.34,2.96,4.31,2.27c0.83-0.29,1.47-0.99,2.12-1.55c0.86-0.75,1.72-1.51,2.59-2.26
				c1.66-1.46,3.32-2.91,4.99-4.37c1.11-0.97,2.35-2.48,1.56-4.03c-0.9-1.78-3.71-0.94-5.28-0.84c-2.16,0.13-4.31,0.26-6.47,0.33
				c-3.2,0.1-7-0.4-6.88-4.45c0.05-1.84,0.95-3.52,1.88-5.06c1-1.66,2.05-3.28,2.96-4.99c4.2-7.84,6.55-16.57,6.99-25.45
				c-1,0-2,0-3,0c-0.25,12-0.51,23.99-0.76,35.99c0.93-0.25,1.86-0.5,2.8-0.76c-1.77-3.01-3.54-6.01-5.32-9.02
				c-0.84-1.43-1.69-2.86-2.53-4.29c-0.68-1.15-1.34-2.72-2.87-2.82c-1.31-0.09-2.29,1.02-3.2,1.8c-1.07,0.92-2.55,1.85-3.31,3.05
				c-0.85,1.33-0.45,2.64,0.09,4c0.58,1.45,1.19,2.89,1.83,4.31c1.3,2.88,2.77,5.68,4.37,8.4c1.08,1.82,2.95,6.25,5.75,5.14
				c1.37-0.54,1.57-1.92,1.78-3.21c0.26-1.57,0.49-3.15,0.7-4.73c0.45-3.38,0.81-6.77,1.06-10.17c0.56-7.61,0.58-15.26,0.09-22.87
				C363.62,273.66,360.62,273.65,360.74,275.58L360.74,275.58z"/>
		</g>
	</g>
	<path d="M290.07,492.53l24.76,41.52l-27.8,31.7l76.46,15.63l-16.07-17.41c2.3-0.15,9.1-0.6,19.26-1.25
		c69.49-4.51,296.09-19.11,313.08-20.18l-18.25,15.18l76.89,13.84l-26.93-40.18l28.59-31.71l-53.79-14.28v-19.2l-332.33,21.43v17.49
		"/>
	<polyline class="st3" points="366.67,555.83 363.49,575.8 362.36,581.14 	"/>
	<path class="st2" d="M692.98,567.53"/>
	<path class="st2" d="M693.92,548.46"/>
	<polyline class="st3" points="662.74,557.65 663.56,540.42 663.56,538.59 	"/>
	<g>
		<path class="st4" d="M406.82,495.13c0.1-0.01,0.24-0.02,0.43-0.03c1.84-0.13,3.67,0.19,5.5,0.96c0.6,0.26,1.19,0.58,1.76,0.97
			c0.27,0.18,0.73,0.53,1.38,1.05c0.66,0.65,1.15,1.18,1.47,1.59c0.25,0.35,0.48,0.7,0.7,1.05c-0.9,0.53-2.26,1.34-4.06,2.43
			c-0.15-0.29-0.48-0.7-1-1.23c-1.59-1.52-3.48-2.2-5.67-2.05c-2.16,0.15-3.85,0.94-5.09,2.35c-0.48,0.57-0.77,1.04-0.88,1.41
			c-0.34,0.75-0.48,1.55-0.43,2.37c0,0.03,0.01,0.08,0.01,0.15c0.08,1.16,0.54,2.02,1.38,2.6c0.41,0.27,0.79,0.48,1.16,0.62
			c0.84,0.44,2.09,0.83,3.77,1.18c1.28,0.28,2.79,0.54,4.52,0.78c0.99,0.23,1.81,0.49,2.48,0.77c0.63,0.26,1.32,0.62,2.06,1.1
			c0.61,0.49,1.17,1,1.65,1.53c1.41,1.7,2.18,3.62,2.32,5.77l0.01,0.1c0.14,2.12-0.35,4.18-1.48,6.19c-0.2,0.35-0.56,0.84-1.07,1.47
			c-0.7,0.75-1.26,1.29-1.69,1.61c-0.49,0.37-1.04,0.71-1.63,1.01c-1.66,0.85-3.39,1.33-5.19,1.46c-2.8,0.2-5.42-0.47-7.85-2
			c-0.41-0.3-0.87-0.65-1.38-1.05c-0.69-0.62-1.17-1.1-1.45-1.45c-0.53-0.66-0.96-1.25-1.28-1.75c-0.33-0.54-0.49-0.86-0.5-0.96
			c0.9-0.53,2.26-1.31,4.07-2.33c0.3,0.58,0.69,1.17,1.18,1.76c0.25,0.28,0.59,0.64,1.04,1.07c0.65,0.52,1.17,0.88,1.58,1.09
			c1.37,0.64,2.76,0.91,4.18,0.81c0.06,0,0.13-0.01,0.19-0.01c1.42-0.1,2.76-0.56,4.03-1.38c0.34-0.26,0.69-0.56,1.06-0.92
			c0.42-0.49,0.71-0.93,0.88-1.31c0.48-1,0.69-2.03,0.62-3.09c-0.11-1.69-0.89-2.98-2.34-3.88c-0.4-0.24-0.79-0.41-1.15-0.52
			c-0.57-0.23-1.45-0.41-2.66-0.56c-3.43-0.56-5.95-1.2-7.55-1.92c-3.53-1.52-5.41-4.03-5.64-7.54c-0.16-2.38,0.44-4.57,1.8-6.56
			c0.44-0.66,0.92-1.23,1.44-1.7c0.64-0.54,1.2-0.96,1.66-1.26c0.56-0.34,1.22-0.67,1.97-0.99
			C404.33,495.49,405.56,495.22,406.82,495.13z"/>
		<path class="st4" d="M424.58,494.29c0.74-0.05,2.27-0.16,4.59-0.32l0.05,0c0.4,6.06,1.2,18.17,2.41,36.34l-0.05,0
			c-0.77,0.05-2.3,0.16-4.59,0.32l-0.05,0c-0.4-6.06-1.2-18.17-2.41-36.34L424.58,494.29z"/>
		<path class="st4" d="M437.57,493.38c0.84-0.06,2.51-0.18,5.02-0.35c3.09,4.14,9.31,12.4,18.68,24.78
			c0.28,0.38,0.85,1.15,1.71,2.33c-0.31-4.73-0.94-14.18-1.88-28.35l0.04-0.05c0.77-0.05,2.3-0.16,4.59-0.32l0.05,0.05
			c0.4,6.06,1.2,18.14,2.4,36.25l-0.04,0.05c-0.84,0.06-2.51,0.18-5.02,0.35c-0.95-1.2-4.5-5.9-10.64-14.12
			c-2.2-2.87-5.48-7.2-9.84-12.98c0.31,4.73,0.94,14.18,1.88,28.35l-0.04,0.05c-0.74,0.05-2.24,0.16-4.49,0.31
			c-0.03,0-0.07-0.01-0.1-0.04c-0.4-6.06-1.2-18.14-2.4-36.25L437.57,493.38z"/>
		<path class="st4" d="M488.98,489.79l0.05,0c4.54-0.32,8.66,1.23,12.34,4.62c1.29,1.34,2.22,2.51,2.8,3.5
			c-0.12,0.14-1.44,1.01-3.95,2.62c-0.51-0.8-1.21-1.69-2.12-2.7c-2.68-2.41-5.6-3.5-8.76-3.28c-3.19,0.22-5.94,1.73-8.24,4.52
			c-2.23,2.95-3.23,6.18-3,9.69c0.27,4.1,2.03,7.51,5.29,10.21c2.45,1.76,4.96,2.55,7.53,2.37c0.1-0.01,0.26-0.02,0.48-0.03
			c2.83-0.2,5.4-1.58,7.69-4.13c0.98-1.27,1.67-2.36,2.06-3.29c0.93,0.43,2.33,1.07,4.2,1.9c0,0.03,0.01,0.08,0.01,0.15
			c-0.48,1.06-1.13,2.21-1.96,3.43c-3.25,4.18-7.24,6.44-11.98,6.77c-4.7,0.33-8.94-1.32-12.71-4.95
			c-3.21-3.47-4.96-7.45-5.26-11.95c0-0.03-0.01-0.1-0.01-0.2c-0.3-4.57,0.92-8.78,3.68-12.63
			C480.36,492.32,484.31,490.12,488.98,489.79z"/>
		<path class="st4" d="M509.37,488.37c3.16-0.22,9.49-0.66,18.99-1.33c0.05,0.79,0.16,2.38,0.32,4.77c-2.38,0.17-7.17,0.5-14.35,1
			c0.12,1.85,0.37,5.53,0.73,11.02c1.87-0.13,5.65-0.4,11.35-0.79l0.05,0.05c0.05,0.76,0.15,2.32,0.31,4.67l-0.04,0.05
			c-1.9,0.13-5.69,0.4-11.35,0.79c0.12,1.82,0.36,5.5,0.73,11.02c2.38-0.17,7.17-0.5,14.35-1c0.05,0.79,0.16,2.38,0.32,4.77
			c-3.19,0.22-9.52,0.67-18.99,1.33l-0.05,0c-0.4-6.06-1.2-18.17-2.41-36.34L509.37,488.37z"/>
		<path class="st4" d="M555.36,487.35c0.38,5.7,1.13,17.08,2.26,34.16c-0.77,0.05-2.32,0.16-4.64,0.32
			c-0.32-4.9-0.97-14.7-1.95-29.39c-0.61,0.04-1.84,0.13-3.67,0.26l-0.05,0c-0.05-0.79-0.16-2.38-0.31-4.77
			C548.39,487.83,551.17,487.64,555.36,487.35z"/>
		<path class="st4" d="M575.6,485.08c2.71-0.19,5.25,0.43,7.65,1.86c0.44,0.27,0.98,0.66,1.63,1.18c0.73,0.71,1.21,1.21,1.46,1.49
			c0.46,0.57,0.85,1.14,1.18,1.71c1.02,1.76,1.6,3.63,1.73,5.62l0.01,0.1c0.16,2.42-0.39,4.78-1.67,7.1
			c-1.23,2.48-3.1,6.19-5.62,11.12c-2.12,4.21-3.22,6.38-3.3,6.52c-0.67-0.39-2.03-1.12-4.08-2.21l0-0.05l1.38-2.69
			c0.71-1.41,1.8-3.55,3.27-6.41c-0.64,0.11-1.22,0.19-1.73,0.22c-0.1,0.01-0.22,0.02-0.38,0.03c-1.96,0.14-3.95-0.22-5.95-1.08
			c-0.63-0.29-1.31-0.66-2.01-1.1c-0.41-0.3-0.89-0.7-1.44-1.2c-0.72-0.65-1.26-1.24-1.62-1.78c-0.5-0.7-0.92-1.37-1.25-2.01
			c-0.72-1.55-1.12-3.06-1.22-4.55c0-0.07-0.01-0.2-0.03-0.4c-0.13-1.95,0.26-3.96,1.15-6.02c0.28-0.62,0.67-1.31,1.17-2.08
			c0.33-0.45,0.75-0.95,1.26-1.49c1.19-1.18,2.45-2.08,3.8-2.71C572.41,485.59,573.95,485.2,575.6,485.08z M568.28,498.42
			c0.12,1.85,0.83,3.48,2.12,4.89c0.45,0.47,0.85,0.82,1.19,1.06c1.66,1.11,3.46,1.61,5.39,1.47c2-0.14,3.74-0.93,5.23-2.36
			c0.39-0.43,0.72-0.83,0.99-1.22c1.03-1.57,1.49-3.23,1.37-4.98c-0.12-1.89-0.87-3.56-2.22-5.03c-0.58-0.49-1.01-0.83-1.28-1.01
			c-1.59-1.05-3.3-1.51-5.14-1.39c-2.06,0.14-3.87,0.99-5.42,2.52c-0.54,0.63-0.85,1.02-0.94,1.16
			C568.59,495.07,568.16,496.7,568.28,498.42z"/>
		<path class="st4" d="M604.39,483.12l0.05,0c2.38-0.17,4.59,0.46,6.63,1.88c0.68,0.52,1.25,1.03,1.7,1.53
			c0.39,0.5,0.73,1,1.02,1.48c0.84,1.41,1.3,2.85,1.4,4.34c0,0.07,0.01,0.15,0.02,0.25c0.1,1.56-0.2,3.14-0.9,4.75
			c-0.2,0.48-0.49,0.98-0.87,1.51c-0.23,0.38-0.64,0.88-1.21,1.48c0.3,0.15,0.78,0.51,1.43,1.1c0.73,0.75,1.24,1.36,1.53,1.84
			c1.15,1.68,1.78,3.47,1.91,5.35c0,0.07,0.01,0.13,0.01,0.2c0.13,2.05-0.31,4.06-1.35,6.03c-0.29,0.49-0.64,0.99-1.06,1.52
			c-0.54,0.67-0.96,1.1-1.28,1.29c-0.55,0.54-1.1,0.96-1.66,1.26c-0.43,0.3-1.03,0.6-1.78,0.92c-1.11,0.41-2.14,0.65-3.11,0.72
			c-0.13,0.01-0.34,0.02-0.63,0.04c-1.16,0.08-2.48-0.09-3.97-0.52c-0.79-0.28-1.58-0.64-2.35-1.08c-0.5-0.26-1.04-0.64-1.63-1.13
			c-0.55-0.49-0.98-0.95-1.3-1.36c-0.5-0.66-0.88-1.22-1.13-1.67c-0.78-1.44-1.21-2.89-1.31-4.35c0-0.03-0.01-0.08-0.01-0.15
			l0.04-0.05c0.77-0.05,2.3-0.16,4.59-0.32c0.03,0,0.05,0.01,0.05,0.05c0.09,1.42,0.68,2.7,1.76,3.82c0.42,0.4,0.72,0.67,0.93,0.78
			c0.57,0.36,1.06,0.61,1.46,0.75c0.96,0.33,1.92,0.46,2.89,0.4c1.83-0.13,3.4-0.88,4.7-2.27c1.11-1.34,1.61-2.81,1.5-4.39
			c-0.09-1.42-0.65-2.7-1.66-3.82c-1.49-1.49-3.33-2.16-5.52-2.01c-0.52,0.04-1.3,0.09-2.37,0.17c-0.05-0.79-0.16-2.38-0.31-4.77
			l0-0.05c0.45-0.03,1.35-0.09,2.71-0.19c0.06,0.03,0.21,0.04,0.44,0.02c0.29-0.02,0.73-0.13,1.34-0.34
			c0.38-0.16,0.74-0.33,1.08-0.52c0.28-0.18,0.63-0.51,1.05-0.97c0.96-1.13,1.39-2.39,1.3-3.78c-0.09-1.42-0.72-2.64-1.89-3.66
			c-1.16-0.95-2.45-1.37-3.87-1.28c-1.54,0.11-2.84,0.8-3.89,2.07c-0.39,0.46-0.67,0.91-0.83,1.36c-0.31,0.72-0.43,1.54-0.37,2.47
			c-0.77,0.05-2.32,0.16-4.64,0.32l-0.05,0c0-0.03-0.01-0.1-0.01-0.2c-0.15-2.35,0.48-4.56,1.89-6.62c0.54-0.67,0.93-1.11,1.17-1.33
			c0.55-0.54,1.12-0.98,1.71-1.32C601.17,483.75,602.72,483.24,604.39,483.12z"/>
		<path class="st4" d="M632.7,481.79c2.71,1.41,4.11,2.16,4.18,2.25c-1.03,2.04-2.59,5.09-4.68,9.16c0.61-0.11,1.23-0.19,1.88-0.23
			c2.8-0.2,5.44,0.49,7.9,2.04c0.44,0.27,0.97,0.66,1.58,1.19c0.66,0.62,1.07,1.09,1.26,1.41c0.42,0.5,0.81,1.01,1.17,1.51
			c1.06,1.79,1.65,3.69,1.79,5.71l0,0.05c0.17,2.62-0.42,5.1-1.79,7.46c-0.26,0.42-0.68,0.96-1.25,1.63
			c-0.69,0.78-1.24,1.35-1.63,1.71c-0.59,0.41-1.07,0.72-1.44,0.95c-0.56,0.34-1.07,0.62-1.54,0.86c-1.42,0.6-2.77,0.94-4.06,1.03
			c-0.13,0.01-0.31,0.02-0.53,0.04c-1.55,0.11-3.16-0.13-4.85-0.71c-0.7-0.22-1.41-0.53-2.15-0.95c-2.39-1.4-4.17-3.37-5.34-5.91
			c-0.61-1.42-0.96-2.79-1.05-4.12c-0.01-0.1-0.02-0.25-0.03-0.45c-0.12-1.85,0.22-3.75,1.03-5.71c0.23-0.48,1.23-2.46,3-5.95
			c1.03-2,2.55-5.03,4.54-9.1C631.02,485.05,631.7,483.76,632.7,481.79z M626.75,506.3c0.14,2.15,1.09,4.01,2.84,5.59
			c0.54,0.36,0.83,0.54,0.86,0.54c1.55,0.99,3.2,1.42,4.94,1.3c0.03,0,0.08,0,0.15-0.01c2-0.14,3.75-0.96,5.27-2.46
			c0.45-0.46,0.77-0.83,0.95-1.11c1.03-1.57,1.49-3.21,1.37-4.93c-0.11-1.62-0.71-3.13-1.8-4.51c-0.21-0.25-0.57-0.61-1.09-1.07
			c-0.48-0.37-0.87-0.62-1.17-0.77c-1.48-0.83-2.99-1.19-4.54-1.08c-0.06,0-0.13,0.01-0.19,0.01c-1.8,0.13-3.44,0.82-4.91,2.09
			c-0.25,0.21-0.56,0.56-0.95,1.01C627.2,502.54,626.62,504.35,626.75,506.3z"/>
	</g>
	<line class="st5" x1="395.51" y1="547.33" x2="652.02" y2="529.51"/>
	<path class="st2" d="M488.85,170.49"/>
	<ellipse cx="472.02" cy="230.4" rx="15.82" ry="16.26"/>
	<path d="M487.84,230.4l29.66-86.91c0,0,5.85-17.38,3-32l-37.35,107.36"/>
	<path class="st2" d="M524.07,170.49"/>
	<ellipse cx="536.5" cy="230.4" rx="15.82" ry="16.26"/>
	<path d="M520.68,230.4l-29.66-86.91c0,0-5.85-17.38-3-32l37.35,107.36"/>
	<ellipse class="st2" cx="504.34" cy="170.18" rx="0.59" ry="0.61"/>
	<g>
		<g>
			<path class="st2" d="M346.25,300.83c-0.23,8.98,6.06,17.05,14.84,18.96c1.88,0.41,2.69-2.48,0.8-2.89
				c-7.53-1.64-12.84-8.35-12.64-16.07C349.29,298.9,346.29,298.9,346.25,300.83L346.25,300.83z"/>
		</g>
	</g>
	<g>
		<g>
			<path class="st2" d="M360.67,320.61c2.51-2.06,4.63-4.52,6.35-7.27c0.89-1.42-1.22-3.12-2.36-1.82
				c-3.62,4.14-6.02,9.2-6.78,14.65c0.91-0.12,1.83-0.24,2.74-0.36c-3.47-5.2-3.81-11.57-4.08-17.62c-0.98,0.13-1.96,0.27-2.95,0.4
				c0.85,5.09,2.48,10.11,5.61,14.28c0.8,1.06,2.91,0.89,2.8-0.76c-0.3-4.32-1.2-8.54-2.73-12.6c-0.68-1.8-3.25-1.12-2.89,0.8
				c0.67,3.56,2.24,6.78,4.5,9.59c0.84,1.05,2.57,0.15,2.56-1.06c-0.02-2.13-0.23-4.24-0.6-6.34c-0.3-1.73-2.88-1.22-2.95,0.4
				c-0.29,7.5-0.12,15.1,1.99,22.35c0.45,1.56,3.12,1.34,2.95-0.4c-0.96-9.79-1.12-19.65-0.47-29.47c-0.93,0.25-1.86,0.5-2.8,0.76
				c2.7,6.23,5.66,12.33,8.87,18.31c0.82,1.52,3.16,0.47,2.74-1.16c-1.86-7.25-4.37-14.29-7.47-21.1c-0.62-1.37-2.86-0.67-2.8,0.76
				c0.31,6.86,1.88,13.54,3.48,20.19c0.91-0.39,1.83-0.77,2.74-1.16c-1.61-2.64-3.23-5.29-4.84-7.93c-0.74-1.22-1.44-2.52-2.42-3.57
				c-0.89-0.96-2-1.5-3.21-1.93c-2.27-0.8-4.1-2.07-4.54-4.61c-0.05-0.31-0.25-1.32-0.01-1.58c0.29-0.31,1.28-0.04,1.58,0.08
				c1.21,0.49,1.74,1.79,1.46,3.01c0.98,0.13,1.96,0.27,2.95,0.4c-0.37-3.67-0.74-7.34-1.11-11.01c-0.19-1.92-2.83-1.94-3,0
				c-0.22,2.55-0.44,5.1-0.66,7.65c-0.03,0.38,0.01,0.9-0.17,1.26c0.25-0.04,0.2-0.02-0.14,0.05c-0.23,0.06-0.44,0.14-0.65,0.24
				c-0.88,0.44-1.23,1.2-1.02,2.16c0.18,0.85,1.08,1.17,1.85,1.05c0.77-0.13,1.55,0.69,2.07,1.14c0.71,0.63,1.45,1.52,2.39,1.77
				c2.42,0.64,3.21-3.08,3.99-4.64c2.22-4.51,4.95-8.74,7.67-12.96c-0.93-0.25-1.86-0.5-2.8-0.76c0.28,7.17,0.81,14.33,1.59,21.46
				c0.93-0.25,1.86-0.5,2.8-0.76c-3.29-7.28-5.06-15.17-5.25-23.15c-0.85,0.35-1.71,0.71-2.56,1.06c2.52,2.07,4.93,4.27,7.22,6.59
				c0.86,0.87,2.68,0.27,2.56-1.06c-0.31-3.59-1.19-7-2.62-10.31c-0.7-1.62-3.09-0.42-2.74,1.16c0.75,3.4,1.5,6.81,2.25,10.21
				c0.84-0.49,1.67-0.97,2.51-1.46c-2.48-2.19-4.56-4.71-6.23-7.56c-0.86,0.5-1.73,1.01-2.59,1.51c3.02,5.14,6.04,10.29,9.05,15.43
				c0.98,1.67,3.54,0.17,2.59-1.51c-3.02-5.39-6.22-10.67-9.6-15.83c-1.05-1.6-3.56-0.17-2.59,1.51c1.01,1.75,2.35,3.15,4.02,4.28
				c1.22,0.82,2.37-0.53,2.2-1.69c-0.52-3.72-1.46-7.34-2.82-10.84c-0.91,0.39-1.83,0.77-2.74,1.16c0.99,1.96,1.81,3.98,2.46,6.08
				c0.62-0.62,1.23-1.23,1.85-1.85c-1.51-0.61-3.02-1.22-4.54-1.83c-0.94-0.38-1.87,0.57-1.9,1.45c-0.02,0.65-0.16,1.97-0.86,2.3
				c-0.79,0.37-1.24-0.8-1.42-1.38c-0.76-2.44-0.12-5.53,0.86-7.81c-0.91-0.39-1.83-0.77-2.74-1.16c-0.94,4.96-2.52,9.75-4.77,14.27
				c-0.86,1.72,1.73,3.24,2.59,1.51c2.37-4.75,4.09-9.77,5.07-14.99c0.29-1.54-2.03-2.83-2.74-1.16c-1.52,3.54-2.78,9.22,0.08,12.47
				c1.17,1.33,3.12,1.72,4.66,0.77c1.62-0.99,2.23-3.06,2.28-4.85c-0.63,0.48-1.27,0.96-1.9,1.45c1.51,0.61,3.02,1.22,4.54,1.83
				c1.07,0.43,2.16-0.84,1.85-1.85c-0.73-2.34-1.65-4.61-2.76-6.8c-0.76-1.49-3.36-0.44-2.74,1.16c1.36,3.5,2.3,7.12,2.82,10.84
				c0.73-0.56,1.47-1.13,2.2-1.69c-1.24-0.84-2.2-1.91-2.94-3.2c-0.86,0.5-1.73,1.01-2.59,1.51c3.38,5.16,6.59,10.44,9.6,15.83
				c0.86-0.5,1.73-1.01,2.59-1.51c-3.02-5.14-6.04-10.29-9.05-15.43c-0.98-1.66-3.57-0.16-2.59,1.51c1.79,3.06,4.04,5.82,6.7,8.17
				c1.13,1,2.84,0.03,2.51-1.46c-0.75-3.4-1.5-6.81-2.25-10.21c-0.91,0.39-1.83,0.77-2.74,1.16c1.2,2.79,1.94,5.77,2.21,8.79
				c0.85-0.35,1.71-0.71,2.56-1.06c-2.29-2.32-4.7-4.52-7.22-6.59c-0.94-0.78-2.6-0.34-2.56,1.06c0.21,8.54,2.15,16.89,5.66,24.67
				c0.6,1.33,2.95,0.7,2.8-0.76c-0.78-7.13-1.3-14.29-1.59-21.46c-0.06-1.5-1.98-2.02-2.8-0.76c-2.55,3.97-5.12,7.94-7.26,12.15
				c-0.55,1.08-1.08,2.18-1.56,3.29c-0.09,0.21-0.18,0.42-0.27,0.63c-0.25,0.43,0.02,0.47,0.82,0.11c0.01-0.14-0.93-0.84-1.07-0.96
				c-1.48-1.31-2.95-2.25-4.99-1.92c0.62,0.35,1.23,0.7,1.85,1.05c-0.01-0.07-0.03-0.13-0.04-0.2c-0.13,0.49-0.26,0.97-0.39,1.46
				c0.04-0.04,0.81-0.23,0.92-0.3c0.37-0.21,0.71-0.56,0.93-0.92c0.5-0.82,0.57-1.78,0.65-2.71c0.24-2.63,0.46-5.27,0.69-7.9
				c-1,0-2,0-3,0c0.37,3.67,0.74,7.34,1.11,11.01c0.16,1.57,2.54,2.17,2.95,0.4c0.81-3.51-1.67-7.08-5.43-6.99
				c-1.76,0.04-3.14,0.9-3.46,2.7c-0.29,1.63,0.07,3.33,0.78,4.81c0.69,1.46,1.85,2.74,3.24,3.57c1.47,0.88,3.38,0.97,4.58,2.27
				c1.32,1.43,2.22,3.4,3.22,5.05c1.19,1.95,2.38,3.9,3.57,5.85c0.89,1.46,3.14,0.5,2.74-1.16c-1.54-6.39-3.08-12.8-3.38-19.39
				c-0.93,0.25-1.86,0.5-2.8,0.76c2.99,6.57,5.38,13.39,7.17,20.38c0.91-0.39,1.83-0.77,2.74-1.16c-3.21-5.98-6.17-12.08-8.87-18.31
				c-0.64-1.48-2.71-0.57-2.8,0.76c-0.65,9.82-0.5,19.67,0.47,29.47c0.98-0.13,1.96-0.27,2.95-0.4c-2.03-7.01-2.16-14.31-1.88-21.56
				c-0.98,0.13-1.96,0.27-2.95,0.4c0.32,1.84,0.47,3.68,0.49,5.54c0.85-0.35,1.71-0.71,2.56-1.06c-1.94-2.41-3.16-5.24-3.73-8.27
				c-0.96,0.27-1.93,0.53-2.89,0.8c1.43,3.8,2.33,7.75,2.62,11.8c0.93-0.25,1.86-0.5,2.8-0.76c-2.99-3.99-4.49-8.7-5.3-13.56
				c-0.28-1.67-3.02-1.28-2.95,0.4c0.29,6.57,0.73,13.5,4.49,19.14c0.63,0.94,2.55,1.03,2.74-0.36c0.69-4.94,2.71-9.57,6-13.33
				c-0.79-0.61-1.57-1.21-2.36-1.82c-1.59,2.54-3.57,4.75-5.88,6.66C357.05,319.72,359.19,321.83,360.67,320.61L360.67,320.61z"/>
		</g>
	</g>
	<path d="M316.25,289.55c0,0-1.4,41.36,42.1,14.61c0,0,35.91,25.94,41.77-13.44c0,0-4.2,7.14-11.07,8.21
		c-2.92,0.46-5.82-1.48-8.15-3.43c-1.48-1.24-2.85-2.66-4.16-4.17c-1.18-1.36-2.25-3.03-3.54-4.22c-1.77-1.63-4.29-1.56-6.4-1.52
		c-1.25,0.03-2.51,0.24-3.7,0.7c-0.63,0.25-1.25,0.56-1.84,0.95c-0.42,0.28-1.2,1.28-1.62,1.35c0,0-1.47,0.24-1.47,0.24
		s-6.38-6.7-13.93-0.89C344.24,287.95,324.9,310.31,316.25,289.55z"/>
</g>
<g>
</g>
<g>
</g>
<g>
</g>
<g>
</g>
<g>
</g>
<g>
</g>
</svg>
