<?xml version="1.0" encoding="utf-8"?>
<!-- Generator: Adobe Illustrator 26.1.0, SVG Export Plug-In . SVG Version: 6.00 Build 0)  -->
<svg version="1.1" id="Layer_1" xmlns="http://www.w3.org/2000/svg" xmlns:xlink="http://www.w3.org/1999/xlink" x="0px" y="0px"
	 viewBox="0 0 1024 700" style="enable-background:new 0 0 1024 700;" xml:space="preserve">
<style type="text/css">
	.st0{fill:#E93225;}
	.st1{fill:none;stroke:#FFFFFF;stroke-miterlimit:10;}
	.st2{fill:#FFFFFF;}
</style>
<rect x="318.15" y="22.22" class="st0" width="387.7" height="583.56"/>
<path class="st1" d="M601.58,99.52c0,0,19.09-0.16,19.09,11.94h5.46c0-14.23,18.45-11.94,18.45-11.94s-2.57-8.51-6.58-8.51
	s-11.87,5.56-11.87,6.38c0,0.82-0.16-5.56-0.16-5.56s5.46-5.07,5.46-10.47s-8.34-15.21-8.34-15.21"/>
<path class="st1" d="M644.58,99.52c0,0-19.09-0.16-19.09,11.94h-5.46c0-14.23-18.45-11.94-18.45-11.94s2.57-8.51,6.58-8.51
	c4.01,0,11.87,5.56,11.87,6.38c0,0.82,0.16-5.56,0.16-5.56s-5.46-5.07-5.46-10.47s8.34-15.21,8.34-15.21l0.12,0.14"/>
<rect x="360.71" y="140.27" class="st2" width="28.26" height="348.84"/>
<rect x="473.77" y="140.27" class="st2" width="28.26" height="300.06"/>
<rect x="530.3" y="140.27" class="st2" width="28.26" height="251.28"/>
<rect x="586.82" y="140.27" class="st2" width="28.26" height="201.71"/>
<rect x="417.24" y="183.5" class="st2" width="28.26" height="242.43"/>
<rect x="360.71" y="460.29" class="st2" width="298.29" height="28.82"/>
<rect x="473.77" y="411.52" class="st2" width="185.23" height="28.82"/>
<rect x="530.3" y="362.74" class="st2" width="127.19" height="28.82"/>
<path class="st2" d="M656.72,169.09h-26.74c-0.42,0-0.76-0.34-0.76-0.76v-27.29c0-0.42,0.34-0.76,0.76-0.76h26.74
	c0.42,0,0.76,0.34,0.76,0.76v27.29C657.48,168.75,657.14,169.09,656.72,169.09z"/>
<path class="st2" d="M444.74,169.09h-26.74c-0.42,0-0.76-0.34-0.76-0.76v-27.29c0-0.42,0.34-0.76,0.76-0.76h26.74
	c0.42,0,0.76,0.34,0.76,0.76v27.29C445.51,168.75,445.16,169.09,444.74,169.09z"/>
<path class="st2" d="M656.72,257.14h-26.74c-0.42,0-0.76-0.34-0.76-0.76v-27.29c0-0.42,0.34-0.76,0.76-0.76h26.74
	c0.42,0,0.76,0.34,0.76,0.76v27.29C657.48,256.79,657.14,257.14,656.72,257.14z"/>
<path class="st2" d="M657.95,342.78h-26.74c-0.42,0-0.76-0.34-0.76-0.76v-27.29c0-0.42,0.34-0.76,0.76-0.76h26.74
	c0.42,0,0.76,0.34,0.76,0.76v27.29C658.72,342.44,658.37,342.78,657.95,342.78z"/>
<g>
</g>
<g>
</g>
<g>
</g>
<g>
</g>
<g>
</g>
<g>
</g>
</svg>
