<?xml version="1.0" encoding="utf-8"?>
<!-- Generator: Adobe Illustrator 26.1.0, SVG Export Plug-In . SVG Version: 6.00 Build 0)  -->
<svg version="1.1" id="Layer_1" xmlns="http://www.w3.org/2000/svg" xmlns:xlink="http://www.w3.org/1999/xlink" x="0px" y="0px"
	 viewBox="0 0 1024 700" style="enable-background:new 0 0 1024 700;" xml:space="preserve">
<style type="text/css">
	.st0{fill:#221F1F;}
	.st1{fill:#FFFFFF;}
	.st2{fill:none;}
</style>
<g>
	<g>
		
			<ellipse transform="matrix(0.7071 -0.7071 0.7071 0.7071 -93.731 461.7133)" class="st0" cx="510.47" cy="344" rx="236.13" ry="236.13"/>
		<path class="st1" d="M768.16,294.33c0,0,14.19,97.53-91.33,65.61c0,0-55.64-26.79-77.98-18.18s-54.89,23.62-69.41,24.09
			c-14.52,0.48-24.89,4.15-21.38,12.77c3.51,8.62,18.19,19.79,51.7,8.62s42.75,4.44,20.68,18.4
			c-22.07,13.97-82.45,15.06-139.8-19.76c0,0-8.45-4.3-17.04,4.3c-8.6,8.6,8.15,18.82,8.15,18.82s96.67,65.26,221.96,42.61
			C779,428.96,780.27,347.36,780.27,347.36l0.51-29.77L768.16,294.33z"/>
		<path class="st1" d="M261.31,416.71c0,0-25.04-95.32,83.39-75.44c0,0,58.3,20.38,79.53,9.31c21.23-11.07,51.9-29.62,66.27-31.73
			c14.38-2.1,24.27-6.92,19.82-15.08c-4.45-8.17-20.3-17.62-52.34-2.76s-42.98,0.39-22.61-15.97
			c20.37-16.35,80.24-24.22,141.13,3.96c0,0,8.88,3.32,16.45-6.18c7.58-9.51-10.21-17.79-10.21-17.79s-103.39-54-225.34-17.44
			S243.33,365.37,243.33,365.37l2.84,29.64L261.31,416.71z"/>
	</g>
	<g>
		<circle class="st2" cx="510.47" cy="344" r="263.28"/>
		<path class="st0" d="M230.61,464.87l-0.02-0.05c-2.15-4.89-2.13-10.02,0.05-15.4c0.93-1.94,1.8-3.42,2.63-4.44
			c0.2,0.08,1.66,1.19,4.38,3.34c-0.65,0.87-1.34,1.99-2.05,3.38c-1.51,3.89-1.53,7.53-0.03,10.93c1.51,3.43,4.22,5.88,8.13,7.34
			c4.05,1.32,7.92,1.17,11.59-0.44c4.3-1.89,7.25-5.15,8.85-9.78c0.91-3.38,0.76-6.45-0.46-9.22c-0.05-0.1-0.12-0.28-0.23-0.52
			c-1.34-3.05-3.84-5.34-7.49-6.88c-1.75-0.6-3.2-0.93-4.35-1c0.09-1.2,0.22-2.99,0.37-5.37c0.03-0.01,0.09-0.04,0.16-0.07
			c1.33,0.12,2.82,0.4,4.46,0.83c5.78,1.96,9.79,5.49,12.03,10.58c2.22,5.06,2.14,10.37-0.26,15.93
			c-2.44,4.88-6.02,8.35-10.74,10.42c-0.03,0.02-0.1,0.05-0.21,0.09c-4.78,2.1-9.79,2.38-15.01,0.83
			C236.75,473.4,232.82,469.9,230.61,464.87z"/>
		<path class="st0" d="M215.17,419.87l-0.01-0.06c-1.36-5.16-0.54-10.23,2.45-15.21c1.22-1.77,2.32-3.09,3.29-3.98
			c0.19,0.11,1.46,1.44,3.81,3.99c-0.78,0.75-1.63,1.76-2.55,3.02c-2.1,3.61-2.68,7.2-1.74,10.79c0.96,3.62,3.25,6.46,6.88,8.52
			c3.8,1.93,7.64,2.39,11.52,1.37c4.54-1.2,7.96-3.96,10.26-8.28c1.43-3.2,1.76-6.25,0.98-9.18c-0.03-0.11-0.08-0.29-0.15-0.55
			c-0.85-3.22-2.96-5.87-6.32-7.96c-1.64-0.86-3.02-1.42-4.14-1.67c0.28-1.17,0.68-2.92,1.2-5.25c0.04-0.01,0.09-0.02,0.16-0.04
			c1.3,0.32,2.72,0.83,4.27,1.51c5.41,2.84,8.82,6.95,10.24,12.33c1.41,5.34,0.5,10.57-2.73,15.69c-3.18,4.44-7.25,7.31-12.23,8.62
			c-0.04,0.01-0.11,0.03-0.22,0.06c-5.05,1.33-10.04,0.83-14.96-1.52C219.91,429.25,216.56,425.18,215.17,419.87z"/>
		<path class="st0" d="M207.22,379.78c-0.01-0.11-0.03-0.28-0.06-0.51c-0.25-2.14,0.01-4.31,0.78-6.49
			c0.26-0.72,0.59-1.42,1.01-2.12c0.19-0.33,0.56-0.89,1.12-1.68c0.71-0.81,1.28-1.41,1.73-1.81c0.38-0.31,0.77-0.6,1.15-0.88
			c0.66,1.03,1.66,2.57,3,4.62c-0.32,0.19-0.77,0.6-1.34,1.24c-1.64,1.95-2.31,4.2-2,6.75c0.3,2.52,1.29,4.46,2.97,5.82
			c0.67,0.53,1.22,0.85,1.66,0.95c0.88,0.35,1.79,0.47,2.73,0.36c0.04,0,0.09-0.01,0.17-0.02c1.32-0.16,2.28-0.74,2.88-1.77
			c0.28-0.49,0.5-0.95,0.64-1.39c0.45-1.01,0.83-2.5,1.13-4.48c0.24-1.52,0.45-3.29,0.63-5.33c0.21-1.17,0.45-2.15,0.74-2.95
			c0.25-0.75,0.63-1.58,1.14-2.48c0.52-0.75,1.07-1.42,1.65-2.02c1.85-1.74,4-2.76,6.44-3.05l0.11-0.01
			c2.41-0.29,4.79,0.18,7.14,1.39c0.41,0.22,0.99,0.61,1.74,1.17c0.89,0.77,1.54,1.4,1.94,1.89c0.45,0.56,0.86,1.17,1.25,1.85
			c1.06,1.89,1.72,3.9,1.97,6c0.39,3.27-0.22,6.37-1.82,9.3c-0.32,0.49-0.69,1.05-1.12,1.67c-0.66,0.84-1.18,1.44-1.56,1.79
			c-0.72,0.66-1.36,1.19-1.93,1.6c-0.6,0.41-0.96,0.63-1.07,0.64c-0.65-1.03-1.62-2.57-2.89-4.63c0.64-0.38,1.29-0.88,1.94-1.49
			c0.31-0.3,0.7-0.73,1.16-1.28c0.56-0.79,0.94-1.43,1.15-1.91c0.65-1.64,0.87-3.28,0.67-4.94c-0.01-0.08-0.02-0.15-0.03-0.23
			c-0.2-1.65-0.8-3.2-1.81-4.64c-0.31-0.38-0.68-0.78-1.11-1.18c-0.59-0.46-1.1-0.78-1.54-0.96c-1.17-0.51-2.35-0.69-3.55-0.55
			c-1.92,0.23-3.34,1.21-4.28,2.96c-0.25,0.49-0.42,0.95-0.52,1.38c-0.23,0.67-0.39,1.72-0.49,3.14c-0.44,4.05-1.02,7.04-1.74,8.95
			c-1.52,4.22-4.27,6.56-8.26,7.04c-2.71,0.32-5.23-0.26-7.58-1.73c-0.78-0.48-1.45-1.01-2.02-1.59c-0.66-0.72-1.17-1.35-1.54-1.88
			c-0.42-0.64-0.83-1.39-1.24-2.25C207.77,382.67,207.39,381.24,207.22,379.78z"/>
		<path class="st0" d="M205.6,353.96c0-3.71-0.01-11.15-0.03-22.31c0.91,0,2.72,0,5.45-0.01c0,2.84,0.01,8.46,0.02,16.86
			c2.12,0,6.32-0.01,12.6-0.02c0-2.27-0.01-6.83-0.02-13.68c0.91,0,2.73,0,5.45-0.01c0,2.27,0.01,6.83,0.02,13.68
			c2.99,0,9.01-0.01,18.05-0.02v0.06c0,0.91,0,2.71,0.01,5.39l0,0.06c-6.93,0.01-20.78,0.03-41.56,0.05L205.6,353.96z"/>
		<path class="st0" d="M208.24,303.01c0.14-0.86,0.44-2.63,0.89-5.32l0.01-0.06c5.93,1,17.8,2.99,35.61,5.99
			c0.5-2.95,1.49-8.86,2.98-17.75c0.9,0.15,2.69,0.45,5.37,0.9c-0.65,3.84-1.94,11.55-3.89,23.12l-0.01,0.06
			c-6.83-1.15-20.49-3.45-40.98-6.89L208.24,303.01z"/>
		<path class="st0" d="M214.58,270.68c0.22-0.84,0.67-2.58,1.34-5.22l0.01-0.06c6.71,1.73,20.12,5.18,40.25,10.36l-0.01,0.06
			c-0.23,0.88-0.67,2.62-1.34,5.22l-0.01,0.06c-6.71-1.73-20.12-5.18-40.24-10.36L214.58,270.68z"/>
		<path class="st0" d="M225.78,235.02l0.02-0.05c1.88-5,5.48-8.65,10.8-10.98c2.02-0.74,3.68-1.18,4.99-1.34
			c0.09,0.2,0.35,2.01,0.8,5.46c-1.07,0.16-2.35,0.49-3.83,0.99c-3.8,1.72-6.36,4.32-7.66,7.79c-1.32,3.51-1.09,7.15,0.68,10.93
			c1.98,3.78,4.84,6.37,8.6,7.78c4.39,1.65,8.78,1.38,13.16-0.81c3.01-1.78,5.05-4.08,6.12-6.92c0.04-0.11,0.11-0.28,0.2-0.53
			c1.17-3.12,0.99-6.5-0.55-10.15c-0.84-1.65-1.64-2.9-2.41-3.76c0.9-0.79,2.24-1.99,4.02-3.58c0.04,0.01,0.09,0.03,0.16,0.06
			c0.87,1.01,1.74,2.25,2.61,3.71c2.76,5.45,3.17,10.78,1.21,15.98c-1.95,5.17-5.72,8.91-11.31,11.21
			c-5.16,1.78-10.15,1.76-14.96-0.05c-0.03-0.01-0.11-0.04-0.21-0.08c-4.89-1.84-8.66-5.14-11.32-9.9
			C224.22,245.41,223.85,240.16,225.78,235.02z"/>
		<path class="st0" d="M237.5,207.89c1.76-3.26,5.3-9.81,10.6-19.63c0.8,0.43,2.4,1.3,4.8,2.59c-1.33,2.46-4,7.41-8.01,14.83
			c1.87,1.01,5.56,3,11.09,5.99c1.04-1.93,3.16-5.84,6.34-11.74l0.08-0.02c0.77,0.41,2.33,1.26,4.7,2.54l0.02,0.08
			c-1.06,1.97-3.17,5.88-6.34,11.74c1.83,0.99,5.53,2.99,11.09,5.99c1.33-2.46,4-7.41,8.01-14.83c0.8,0.43,2.4,1.29,4.8,2.59
			c-1.78,3.3-5.32,9.84-10.6,19.63l-0.03,0.05c-6.09-3.29-18.28-9.88-36.56-19.75L237.5,207.89z"/>
		<path class="st0" d="M255.24,176.42c0.58-0.79,1.75-2.38,3.5-4.76c5.95,0.29,17.85,0.8,35.73,1.55c0.54,0.02,1.65,0.09,3.32,0.19
			c-4.36-3.21-13.06-9.61-26.11-19.22l-0.01-0.08c0.54-0.73,1.6-2.18,3.2-4.34l0.08-0.01c5.58,4.11,16.7,12.29,33.38,24.57
			l0.01,0.08c-0.58,0.79-1.75,2.38-3.5,4.76c-1.76-0.03-8.55-0.32-20.36-0.88c-4.16-0.15-10.42-0.4-18.75-0.76
			c4.36,3.21,13.06,9.61,26.11,19.22l0.01,0.08c-0.52,0.7-1.56,2.12-3.13,4.25c-0.02,0.03-0.06,0.05-0.11,0.06
			c-5.58-4.11-16.7-12.29-33.38-24.57L255.24,176.42z"/>
		<path class="st0" d="M292.89,129.75c0.08-0.08,0.2-0.2,0.36-0.36c1.51-1.54,3.36-2.69,5.55-3.46c0.72-0.25,1.48-0.43,2.28-0.54
			c0.37-0.06,1.04-0.12,2.01-0.18c1.07,0.05,1.9,0.12,2.49,0.22c0.48,0.1,0.95,0.22,1.41,0.35c-0.39,1.15-0.97,2.9-1.73,5.23
			c-0.35-0.13-0.95-0.22-1.81-0.27c-2.54-0.06-4.72,0.83-6.52,2.66c-1.78,1.81-2.67,3.8-2.68,5.96c0.01,0.86,0.1,1.49,0.3,1.88
			c0.27,0.91,0.75,1.69,1.42,2.36c0.03,0.03,0.07,0.07,0.12,0.12c0.94,0.93,2,1.31,3.18,1.14c0.56-0.08,1.06-0.21,1.48-0.37
			c1.07-0.28,2.47-0.92,4.2-1.92c1.33-0.76,2.85-1.71,4.55-2.85c1.04-0.57,1.96-0.99,2.76-1.27c0.75-0.27,1.63-0.49,2.65-0.66
			c0.91-0.06,1.78-0.05,2.61,0.02c2.52,0.36,4.65,1.4,6.41,3.12l0.08,0.08c1.73,1.7,2.85,3.85,3.38,6.44
			c0.08,0.45,0.14,1.15,0.18,2.09c-0.04,1.18-0.13,2.07-0.26,2.69c-0.15,0.7-0.38,1.41-0.67,2.13c-0.81,2.01-1.96,3.78-3.45,5.29
			c-2.31,2.35-5.11,3.81-8.4,4.4c-0.59,0.06-1.26,0.12-2.01,0.18c-1.07,0.01-1.86-0.03-2.37-0.1c-0.96-0.15-1.78-0.32-2.45-0.5
			c-0.7-0.21-1.09-0.35-1.17-0.43c0.39-1.15,0.99-2.87,1.81-5.15c0.7,0.26,1.49,0.46,2.37,0.58c0.43,0.05,1,0.09,1.73,0.11
			c0.96-0.06,1.7-0.16,2.21-0.3c1.68-0.52,3.11-1.38,4.28-2.56c0.05-0.05,0.11-0.11,0.16-0.16c1.17-1.19,2-2.62,2.5-4.31
			c0.1-0.48,0.18-1.02,0.23-1.61c-0.01-0.75-0.08-1.35-0.22-1.8c-0.33-1.23-0.93-2.27-1.79-3.12c-1.38-1.35-3.04-1.85-4.99-1.49
			c-0.53,0.11-1,0.26-1.4,0.45c-0.67,0.25-1.59,0.78-2.76,1.59c-3.44,2.19-6.13,3.61-8.08,4.24c-4.24,1.45-7.79,0.77-10.65-2.04
			c-1.94-1.91-3.07-4.24-3.39-7c-0.11-0.91-0.12-1.77-0.02-2.57c0.15-0.97,0.32-1.76,0.5-2.37c0.24-0.73,0.56-1.52,0.98-2.38
			C290.98,131.99,291.86,130.8,292.89,129.75z"/>
		<path class="st0" d="M312.07,112.27c2.9-2.31,8.71-6.95,17.44-13.92c0.57,0.71,1.7,2.13,3.4,4.26
			c-2.19,1.75-6.58,5.25-13.18,10.52c1.32,1.66,3.94,4.94,7.86,9.85c1.71-1.37,5.19-4.14,10.43-8.32l0.08,0.01
			c0.54,0.68,1.65,2.07,3.33,4.17l-0.01,0.08c-1.75,1.39-5.22,4.17-10.43,8.32c1.3,1.63,3.92,4.91,7.86,9.85
			c2.19-1.75,6.58-5.25,13.18-10.52c0.57,0.71,1.7,2.13,3.4,4.26c-2.93,2.34-8.74,6.98-17.44,13.92l-0.04,0.04
			c-4.32-5.41-12.96-16.24-25.92-32.48L312.07,112.27z"/>
		<path class="st0" d="M340.56,90.47c1.52-0.92,4.6-2.77,9.24-5.56c4.28-2.58,9.02-3.46,14.23-2.67c2.12,0.44,3.55,0.84,4.29,1.19
			c4.34,1.85,7.65,4.67,9.93,8.47c0.02,0.03,0.07,0.11,0.15,0.24c2.85,4.74,3.59,10.03,2.21,15.9c-0.9,2.97-2.08,5.38-3.53,7.23
			c-1.67,2.15-3.54,3.85-5.61,5.1c-2.11,1.27-5.27,3.17-9.49,5.71c-0.03,0.02-0.08,0.02-0.13,0.01
			c-3.57-5.94-10.69-17.75-21.34-35.46L340.56,90.47z M348.05,92.46c2.62,4.35,7.87,13.07,15.75,26.17
			c0.71-0.43,2.14-1.29,4.28-2.58c4.15-2.5,6.66-6.11,7.53-10.83c0.59-3.8-0.06-7.25-1.93-10.37c-1.93-3.21-4.75-5.43-8.44-6.65
			c-2.08-0.6-3.58-0.85-4.49-0.74c-0.92-0.06-2.21,0.07-3.86,0.4c-1.47,0.35-3.17,1.11-5.12,2.28c-0.81,0.49-2.04,1.23-3.7,2.22
			C348.03,92.4,348.03,92.43,348.05,92.46z"/>
		<path class="st0" d="M398.1,60.29c0.08,0.01,1.6,1.73,4.55,5.15c4.24,4.82,10.59,12.07,19.08,21.75l0.05-0.02
			c0.29-5.87,0.88-17.61,1.78-35.23c0.01-0.32,0.03-0.49,0.07-0.5c1.29-0.45,3.2-1.11,5.74-1.99l0.05-0.02
			c-0.41,7.36-1.26,22.01-2.54,43.96c0.04,0.59,0.03,0.89-0.04,0.92c-1.04,0.36-2.59,0.9-4.67,1.62c-0.11,0.04-0.42-0.28-0.93-0.94
			c-13.66-15.37-20.88-23.54-21.66-24.52c-0.34-0.28-2.77-3.01-7.28-8.17C393.27,61.96,395.2,61.29,398.1,60.29z"/>
		<path class="st0" d="M459.07,43.46c0.04-0.01,0.07-0.01,0.11-0.02c5.41-0.93,10.51,0.37,15.3,3.89c4.33,3.52,6.95,7.93,7.85,13.23
			c0.99,5.78-0.27,11.18-3.79,16.2c-3.38,4.26-7.49,6.81-12.34,7.64c-4.89,0.84-9.59-0.14-14.1-2.94c-2.02-1.5-3.38-2.7-4.08-3.62
			c-2.71-3.03-4.4-6.52-5.08-10.48c-0.01-0.04-0.02-0.09-0.03-0.17c-0.99-5.78,0.31-11.21,3.89-16.28c0.39-0.41,0.94-1.02,1.64-1.84
			C451.5,46.02,455.04,44.15,459.07,43.46z M448.3,66.33c0.76,4.44,3.11,7.99,7.07,10.65c3.13,1.92,6.43,2.58,9.9,1.99
			c4.48-0.77,7.91-3.39,10.29-7.87c1.45-3.17,1.92-6.3,1.39-9.4c-0.01-0.07-0.03-0.18-0.06-0.33c-0.66-3.84-2.57-7.07-5.75-9.67
			c-3.52-2.58-7.19-3.55-11.04-2.89c-4.29,0.73-7.67,3.21-10.13,7.44C448.27,59.54,447.71,62.9,448.3,66.33z"/>
		<path class="st0" d="M510.31,39.11h0.06c5.34-0.03,10.04,2.03,14.11,6.17c1.41,1.62,2.42,3.02,3.03,4.19
			c-0.15,0.15-1.75,1.05-4.81,2.69c-0.54-0.94-1.3-2.02-2.29-3.22c-2.97-2.94-6.31-4.39-10.01-4.37c-3.75,0.02-7.07,1.53-9.97,4.54
			c-2.82,3.19-4.22,6.8-4.2,10.81c0.02,4.69,1.84,8.7,5.46,12.01c2.74,2.18,5.62,3.26,8.65,3.25c0.11,0,0.3,0,0.57,0
			c3.33-0.02,6.43-1.4,9.29-4.14c1.24-1.37,2.12-2.57,2.65-3.59c1.06,0.56,2.66,1.39,4.78,2.47c0,0.04,0,0.09,0,0.17
			c-0.64,1.18-1.48,2.43-2.53,3.76c-4.1,4.53-8.93,6.8-14.5,6.83c-5.53,0.03-10.36-2.16-14.51-6.57c-3.5-4.18-5.27-8.85-5.3-14
			c0-0.04,0-0.11,0-0.23c-0.03-5.22,1.71-9.92,5.21-14.11C500.05,41.36,504.83,39.14,510.31,39.11z"/>
		<path class="st0" d="M558.31,42.92c0.07,0.01,0.58,2.15,1.5,6.43c2.01,8.26,5.02,20.66,9.04,37.19c-0.04-0.01-0.08-0.01-0.11-0.02
			c-0.97-0.15-2.92-0.44-5.84-0.88c-0.08-0.01-0.24-0.67-0.51-1.97c-0.4-1.67-1-4.13-1.81-7.39c-3.26-0.49-9.77-1.47-19.54-2.94
			c-0.78,1.38-2.4,4.14-4.86,8.28c-0.97-0.15-2.92-0.44-5.84-0.88c3.28-5.51,9.79-16.49,19.54-32.94c0.56-0.95,1.69-2.83,3.38-5.64
			C554.08,42.28,555.76,42.54,558.31,42.92z M544.12,68.17c2.51,0.38,7.52,1.13,15.05,2.27c-0.77-3.25-2.34-9.79-4.69-19.59
			c-0.08-0.01-1.48,2.36-4.23,7.11C548.87,60.23,546.83,63.64,544.12,68.17z"/>
		<path class="st0" d="M607.95,54.85c-0.25,0.87-0.75,2.62-1.51,5.24c-1.78-0.51-5.31-1.53-10.58-3.05
			c-1.66,5.78-4.99,17.35-9.98,34.7c-0.87-0.25-2.62-0.75-5.24-1.51l-0.05-0.02c1.66-5.78,4.99-17.35,9.98-34.7
			c-1.78-0.51-5.31-1.53-10.58-3.04c0.25-0.87,0.75-2.62,1.51-5.24C585.89,48.5,594.71,51.04,607.95,54.85z"/>
		<path class="st0" d="M616.73,58.27c0.81,0.31,2.49,0.95,5.04,1.92l0.05,0.02c-2.47,6.47-7.41,19.41-14.81,38.83l-0.05-0.02
			c-0.85-0.32-2.53-0.96-5.04-1.92l-0.05-0.02c2.47-6.47,7.41-19.41,14.81-38.83L616.73,58.27z"/>
		<path class="st0" d="M651.42,73.69c0.03,0.02,0.07,0.03,0.1,0.05c4.87,2.53,8.14,6.65,9.83,12.35c1.32,5.42,0.74,10.52-1.75,15.28
			c-2.71,5.21-6.98,8.74-12.82,10.61c-5.27,1.35-10.09,0.9-14.45-1.38c-4.4-2.29-7.55-5.91-9.45-10.87
			c-0.71-2.42-1.06-4.2-1.06-5.35c-0.33-4.05,0.44-7.86,2.29-11.41c0.02-0.03,0.04-0.08,0.08-0.15c2.71-5.2,7.02-8.74,12.94-10.61
			c0.56-0.09,1.37-0.25,2.42-0.47C643.85,71.15,647.8,71.8,651.42,73.69z M629.02,85.38c-2.08,4-2.35,8.25-0.82,12.76
			c1.33,3.42,3.56,5.95,6.68,7.57c4.03,2.1,8.35,2.08,12.95-0.04c3.07-1.64,5.33-3.86,6.79-6.65c0.04-0.07,0.09-0.17,0.16-0.3
			c1.8-3.46,2.22-7.18,1.27-11.18c-1.24-4.18-3.58-7.18-7.04-8.98c-3.86-2.01-8.05-2.08-12.57-0.2
			C633.1,79.96,630.62,82.3,629.02,85.38z"/>
		<path class="st0" d="M681.07,90.77c0.78,0.59,2.36,1.78,4.71,3.56c-0.36,5.94-1.02,17.84-1.98,35.7
			c-0.03,0.54-0.11,1.65-0.23,3.31c3.26-4.32,9.77-12.94,19.53-25.88l0.08-0.01c0.72,0.55,2.16,1.63,4.31,3.25l0.01,0.08
			c-4.17,5.53-12.49,16.56-24.96,33.08l-0.08,0.01c-0.79-0.59-2.36-1.78-4.71-3.56c0.05-1.76,0.43-8.54,1.13-20.34
			c0.2-4.16,0.53-10.41,0.99-18.74c-3.26,4.32-9.77,12.95-19.53,25.88l-0.08,0.01c-0.7-0.52-2.1-1.58-4.21-3.18
			c-0.03-0.02-0.05-0.06-0.06-0.11c4.17-5.53,12.49-16.56,24.96-33.08L681.07,90.77z"/>
		<path class="st0" d="M732.07,134.56c0.05,0.05-0.86,2.06-2.73,6.01c-3.45,7.77-8.62,19.44-15.51,34.98
			c-0.03-0.03-0.05-0.06-0.08-0.08c-0.68-0.71-2.05-2.13-4.09-4.26c-0.05-0.05,0.21-0.68,0.8-1.87c0.7-1.57,1.72-3.89,3.07-6.97
			c-2.28-2.37-6.84-7.12-13.69-14.24c-1.46,0.61-4.43,1.81-8.9,3.6c-0.68-0.71-2.04-2.13-4.09-4.26c5.96-2.37,17.82-7.1,35.58-14.19
			c1.03-0.41,3.06-1.21,6.11-2.41C729.11,131.48,730.29,132.71,732.07,134.56z M705.42,145.92c1.76,1.83,5.27,5.49,10.54,10.97
			c1.37-3.05,4.12-9.18,8.24-18.39c-0.05-0.06-2.62,0.97-7.69,3.06C714.03,142.53,710.33,143.98,705.42,145.92z"/>
		<path class="st0" d="M750.5,155.78c0.51,0.7,1.58,2.15,3.19,4.35l0.03,0.05c-4.85,3.56-14.56,10.68-29.12,21.35
			c1.77,2.41,5.32,7.25,10.64,14.51c-0.73,0.54-2.2,1.61-4.4,3.22c-2.3-3.14-6.93-9.45-13.86-18.91l-0.03-0.05
			c5.58-4.1,16.76-12.29,33.51-24.57L750.5,155.78z"/>
		<path class="st0" d="M779.27,199.3c0.42,0.89,1.26,2.67,2.52,5.34c-3.08,5.09-9.2,15.32-18.36,30.68
			c-0.28,0.47-0.86,1.41-1.74,2.83c4.9-2.31,14.67-6.91,29.32-13.82l0.08,0.03c0.39,0.82,1.15,2.45,2.3,4.88l-0.03,0.08
			c-6.26,2.95-18.76,8.84-37.49,17.67l-0.08-0.03c-0.42-0.89-1.26-2.67-2.52-5.34c0.86-1.54,4.35-7.37,10.46-17.48
			c2.11-3.59,5.31-8.97,9.59-16.13c-4.9,2.31-14.67,6.91-29.32,13.82l-0.08-0.03c-0.37-0.79-1.12-2.38-2.25-4.78
			c-0.02-0.03-0.02-0.08,0-0.13c6.27-2.95,18.76-8.84,37.49-17.67L779.27,199.3z"/>
		<path class="st0" d="M799.09,244.48c0.24,0.83,0.73,2.53,1.46,5.07l-0.04,0.07c-4.07,1.17-12.19,3.5-24.33,7
			c-2.95,0.85-4.97,1.96-6.07,3.34c-1.3,1.36-2.01,3.22-2.12,5.57c0.02,0.9,0.14,1.73,0.36,2.5c0.24,0.84,0.61,2.13,1.11,3.87
			c0.89,3.09,3,5.1,6.34,6.03c1.71,0.34,3.58,0.21,5.62-0.38c5.56-1.6,13.91-4,25.04-7.2l0.09,0.09c0.24,0.84,0.73,2.53,1.46,5.07
			c0.01,0.04,0,0.08-0.02,0.12c-3.97,1.14-11.88,3.41-23.73,6.82c-3.17,0.91-5.52,1.29-7.06,1.14c-3.49-0.22-6.41-1.35-8.77-3.38
			c-2.06-1.81-3.54-4.28-4.43-7.41c-0.17-0.58-0.42-1.46-0.75-2.62c-1.2-4.18-0.93-7.88,0.82-11.11c0.8-1.45,1.67-2.63,2.59-3.52
			c1.99-1.83,4.32-3.13,6.97-3.89c5.64-1.62,14.09-4.05,25.37-7.3L799.09,244.48z"/>
		<path class="st0" d="M811,291.12c0.3,2.25,0.91,6.75,1.82,13.5c0.59,4.35-0.55,8.27-3.4,11.74c-2.33,2.53-5.07,4.01-8.22,4.43
			c-3.86,0.52-7.41-0.59-10.64-3.32c-1.57-1.47-2.63-2.8-3.17-3.98c-0.11,0.01-3.06,2.26-8.83,6.75c-1.1,0.87-2.76,2.17-4.98,3.88
			l-0.06,0.01c-0.15-1.09-0.43-3.23-0.86-6.41c-0.01-0.08,0.82-0.7,2.5-1.88c6.47-4.96,9.97-7.61,10.5-7.94
			c-0.23-1.73-0.58-4.33-1.05-7.82c-2.33,0.31-7,0.94-14.01,1.89l-0.06-0.05c-0.12-0.86-0.35-2.61-0.71-5.23
			c-0.01-0.04,0.01-0.08,0.04-0.12c6.86-0.93,20.55-2.77,41.07-5.53L811,291.12z M806.26,297.15c-2.7,0.36-8.1,1.09-16.2,2.18
			c0.19,1.43,0.57,4.26,1.14,8.5c0.36,2.7,1.8,4.87,4.32,6.52c1.65,0.89,3.24,1.23,4.78,1.02c0.08-0.01,0.21-0.03,0.39-0.05
			c2.44-0.33,4.38-1.79,5.82-4.39c0.89-1.61,1.16-3.71,0.81-6.3c-0.22-1.65-0.55-4.11-0.99-7.37
			C806.33,297.22,806.3,297.18,806.26,297.15z"/>
		<path class="st0" d="M815.8,341.84c0,0.11,0,0.28,0,0.51c0.01,2.16-0.48,4.28-1.49,6.37c-0.34,0.68-0.75,1.35-1.24,2
			c-0.22,0.3-0.66,0.82-1.29,1.54c-0.79,0.72-1.43,1.26-1.92,1.6c-0.42,0.27-0.83,0.52-1.24,0.75c-0.54-1.09-1.36-2.74-2.47-4.92
			c0.34-0.15,0.83-0.52,1.47-1.09c1.84-1.75,2.76-3.92,2.74-6.49c-0.02-2.54-0.79-4.57-2.31-6.12c-0.61-0.6-1.12-0.98-1.54-1.12
			c-0.84-0.45-1.73-0.67-2.67-0.66c-0.04,0-0.09,0-0.17,0c-1.33,0.01-2.34,0.49-3.06,1.44c-0.34,0.46-0.6,0.89-0.79,1.31
			c-0.56,0.95-1.1,2.39-1.62,4.33c-0.41,1.48-0.81,3.22-1.21,5.23c-0.33,1.14-0.69,2.09-1.06,2.85c-0.34,0.72-0.8,1.5-1.4,2.34
			c-0.6,0.69-1.22,1.29-1.86,1.83c-2.03,1.53-4.28,2.3-6.74,2.32l-0.11,0c-2.42,0.02-4.74-0.71-6.94-2.17
			c-0.38-0.26-0.91-0.71-1.6-1.35c-0.8-0.87-1.37-1.56-1.72-2.09c-0.38-0.6-0.73-1.26-1.04-1.98c-0.85-2-1.28-4.06-1.29-6.18
			c-0.02-3.29,0.92-6.31,2.83-9.05c0.37-0.46,0.81-0.97,1.29-1.54c0.75-0.76,1.33-1.3,1.75-1.6c0.79-0.57,1.49-1.03,2.09-1.38
			c0.64-0.35,1.02-0.52,1.13-0.52c0.54,1.09,1.32,2.73,2.36,4.92c-0.68,0.31-1.38,0.73-2.09,1.26c-0.34,0.27-0.77,0.65-1.3,1.14
			c-0.64,0.72-1.09,1.31-1.35,1.77c-0.82,1.56-1.23,3.17-1.22,4.83c0,0.08,0,0.15,0,0.23c0.01,1.66,0.44,3.27,1.28,4.82
			c0.27,0.41,0.59,0.85,0.97,1.3c0.53,0.53,1.01,0.9,1.43,1.13c1.1,0.64,2.26,0.95,3.47,0.94c1.93-0.01,3.46-0.84,4.58-2.47
			c0.3-0.46,0.52-0.89,0.67-1.31c0.3-0.65,0.58-1.67,0.83-3.07c0.88-3.98,1.79-6.88,2.72-8.7c1.98-4.03,4.97-6.05,8.99-6.08
			c2.73-0.02,5.17,0.83,7.34,2.56c0.72,0.56,1.33,1.16,1.83,1.8c0.57,0.79,1.01,1.47,1.32,2.03c0.35,0.68,0.67,1.47,0.98,2.38
			C815.58,338.91,815.79,340.37,815.8,341.84z"/>
		<path class="st0" d="M814.49,366.88c-0.07,0.87-0.23,2.66-0.46,5.37l0,0.06c-6.9-0.59-20.7-1.76-41.41-3.52l0-0.06
			c0.08-0.91,0.23-2.7,0.46-5.38l0-0.06c6.9,0.58,20.7,1.76,41.41,3.51L814.49,366.88z"/>
		<path class="st0" d="M812.73,386.96c-0.19,0.96-0.57,2.89-1.15,5.79c-5.5,2.26-16.5,6.85-33,13.77c-0.5,0.21-1.53,0.62-3.08,1.24
			c5.31,1.05,15.91,3.16,31.8,6.31l0.04,0.07c-0.18,0.89-0.53,2.65-1.05,5.29l-0.07,0.04c-6.79-1.35-20.34-4.04-40.65-8.07
			l-0.04-0.07c0.19-0.96,0.57-2.89,1.15-5.79c1.61-0.72,7.88-3.34,18.8-7.84c3.83-1.63,9.6-4.06,17.3-7.28
			c-5.31-1.05-15.91-3.16-31.8-6.31l-0.04-0.07c0.17-0.85,0.51-2.58,1.03-5.18c0.01-0.04,0.03-0.07,0.08-0.1
			c6.79,1.35,20.34,4.04,40.65,8.06L812.73,386.96z"/>
		<path class="st0" d="M795.64,451.71c-0.01,0.04-0.03,0.07-0.04,0.11c-1.86,4.92-5.37,8.57-10.52,10.95
			c-1.93,0.81-3.65,1.31-5.18,1.5c-0.17,0.02-0.4,0.05-0.71,0.1c-0.42-3.07-0.62-4.89-0.61-5.45c1.06-0.12,2.26-0.42,3.61-0.88
			c1.6-0.69,2.64-1.25,3.12-1.67c2.46-1.7,4.19-3.86,5.18-6.47c1.54-4.07,1.12-8.24-1.28-12.5c-1.97-3.13-4.58-5.32-7.84-6.55
			c-4.21-1.59-8.47-1.37-12.77,0.69c-3.24,1.72-5.49,4.23-6.74,7.53c-1.42,3.75-1.16,7.61,0.77,11.58c1.32,2.4,2.99,4.25,5.01,5.54
			c0.82-2.16,2.05-5.42,3.7-9.77l0.05,0.02c0.81,0.31,2.46,0.93,4.94,1.87l0.05,0.02l0.05,0.02c-0.67,1.77-1.99,5.32-3.97,10.64
			c-0.29,0.78-0.9,2.37-1.81,4.78c-0.04-0.01-0.08,0.01-0.15,0.07c-2.67-1.17-4.39-2.03-5.16-2.56c-2.5-1.63-4.43-3.38-5.79-5.23
			c-2.72-3.62-4.08-7.76-4.1-12.42c0.08-2.36,0.51-4.54,1.27-6.56c1.73-4.57,4.94-8.08,9.64-10.55c5.65-2.64,11.26-2.9,16.81-0.8
			c0.04,0.01,0.09,0.03,0.16,0.06c5.48,2.08,9.5,5.95,12.05,11.61c0.47,1.31,0.74,2.12,0.78,2.42
			C797.28,443.91,797.09,447.89,795.64,451.71z"/>
	</g>
</g>
<g>
</g>
<g>
</g>
<g>
</g>
<g>
</g>
<g>
</g>
<g>
</g>
</svg>
