<?xml version="1.0" encoding="utf-8"?>
<!-- Generator: Adobe Illustrator 26.1.0, SVG Export Plug-In . SVG Version: 6.00 Build 0)  -->
<svg version="1.1" id="Layer_1" xmlns="http://www.w3.org/2000/svg" xmlns:xlink="http://www.w3.org/1999/xlink" x="0px" y="0px"
	 viewBox="0 0 1024 700" style="enable-background:new 0 0 1024 700;" xml:space="preserve">
<style type="text/css">
	.st0{fill:#231F20;}
</style>
<g>
	<g>
		<g>
			<circle class="st0" cx="276.69" cy="246.54" r="28.97"/>
			<circle class="st0" cx="276.69" cy="453.17" r="28.97"/>
		</g>
		<g>
			<circle class="st0" cx="380.01" cy="353.29" r="28.97"/>
			<circle class="st0" cx="173.38" cy="353.29" r="28.97"/>
		</g>
		<g>
			<path class="st0" d="M154.94,228.14L154.94,228.14c10.79-10.79,28.29-10.79,39.09,0l56.23,56.23c10.79,10.79,10.79,28.29,0,39.09
				l0,0c-10.79,10.79-28.29,10.79-39.09,0l-56.23-56.23C144.15,256.44,144.15,238.94,154.94,228.14z"/>
			<path class="st0" d="M303.63,376.83L303.63,376.83c10.79-10.79,28.29-10.79,39.09,0l56.23,56.23c10.79,10.79,10.79,28.29,0,39.09
				l0,0c-10.79,10.79-28.29,10.79-39.09,0l-56.23-56.23C292.84,405.12,292.84,387.62,303.63,376.83z"/>
		</g>
		<g>
			<path class="st0" d="M397.97,227.85L397.97,227.85c10.79,10.79,10.79,28.29,0,39.09l-56.23,56.23
				c-10.79,10.79-28.29,10.79-39.09,0l0,0c-10.79-10.79-10.79-28.29,0-39.09l56.23-56.23C369.68,217.06,387.18,217.06,397.97,227.85
				z"/>
			<path class="st0" d="M249.29,376.54L249.29,376.54c10.79,10.79,10.79,28.29,0,39.09l-56.23,56.23
				c-10.79,10.79-28.29,10.79-39.09,0l0,0c-10.79-10.79-10.79-28.29,0-39.09l56.23-56.23C220.99,365.75,238.49,365.75,249.29,376.54
				z"/>
		</g>
	</g>
	<g>
		<path class="st0" d="M484.5,233.64h0.08c7.83,0,14.7,3.06,20.61,9.19c5.24,6.01,7.86,12.83,7.86,20.44
			c0,6.9-2.15,13.13-6.46,18.71c1.49,1.49,3.75,3.7,6.79,6.62v0.08c-0.88,0.94-2.7,2.79-5.46,5.55c-1.16-1.1-3.48-3.34-6.95-6.7
			c-5.08,3.59-10.54,5.38-16.39,5.38c-7.06,0-13.41-2.54-19.04-7.61c-2.54-2.59-4.19-4.58-4.97-5.96
			c-3.04-4.91-4.55-10.23-4.55-15.97c0-0.05,0-0.14,0-0.25c0-8.33,3.14-15.61,9.44-21.85c0.61-0.5,1.52-1.27,2.73-2.32
			C473.21,235.4,478.65,233.64,484.5,233.64z M463.89,263.19c0,6.4,2.43,11.97,7.28,16.72c3.97,3.42,8.44,5.13,13.41,5.13
			c3.7,0,7.23-1.02,10.59-3.06c-0.77-0.77-2.35-2.32-4.72-4.63c0.88-0.94,2.7-2.81,5.46-5.63c0.83,0.77,2.51,2.37,5.05,4.8
			c2.81-4.03,4.22-8.33,4.22-12.91c0-0.11,0-0.28,0-0.5c0-5.57-1.93-10.57-5.79-14.98c-4.3-4.47-9.24-6.7-14.81-6.7
			c-6.24,0-11.59,2.65-16.06,7.95C465.43,253.67,463.89,258.28,463.89,263.19z"/>
		<path class="st0" d="M525.58,233.64c1.27,0,3.84,0,7.7,0l0.08,0.08c0,6.18,0,18.49,0,36.91c0,4.47,0.74,7.75,2.23,9.85
			c1.38,2.37,3.7,4.11,6.95,5.21c1.27,0.33,2.48,0.5,3.64,0.5c1.27,0,3.23,0,5.88,0c4.69,0,8.36-2.15,11.01-6.46
			c1.16-2.26,1.74-4.94,1.74-8.03c0-8.44,0-21.11,0-37.99l0.17-0.08c1.27,0,3.83,0,7.7,0c0.05,0,0.11,0.03,0.16,0.08
			c0,6.02,0,18.02,0,36c0,4.8-0.41,8.25-1.24,10.35c-1.71,4.8-4.47,8.44-8.28,10.92c-3.37,2.15-7.42,3.23-12.17,3.23
			c-0.88,0-2.21,0-3.97,0c-6.35,0-11.42-1.88-15.23-5.63c-1.71-1.71-3.01-3.39-3.89-5.05c-1.77-3.53-2.65-7.31-2.65-11.34
			c0-8.55,0-21.38,0-38.49L525.58,233.64z"/>
		<path class="st0" d="M588.35,233.64c5.41,0,16.25,0,32.53,0c0,1.32,0,3.97,0,7.95c-4.08,0-12.28,0-24.58,0c0,3.09,0,9.22,0,18.37
			c3.2,0,9.68,0,19.45,0l0.08,0.08c0,1.27,0,3.86,0,7.78l-0.08,0.08c-3.26,0-9.74,0-19.45,0c0,3.04,0,9.16,0,18.37
			c4.08,0,12.28,0,24.58,0c0,1.32,0,3.97,0,7.95c-5.46,0-16.3,0-32.53,0h-0.08c0-10.1,0-30.29,0-60.58H588.35z"/>
		<path class="st0" d="M633.81,233.64c5.41,0,16.25,0,32.53,0c0,1.32,0,3.97,0,7.95c-4.08,0-12.28,0-24.58,0c0,3.09,0,9.22,0,18.37
			c3.2,0,9.68,0,19.45,0l0.08,0.08c0,1.27,0,3.86,0,7.78l-0.08,0.08c-3.26,0-9.74,0-19.45,0c0,3.04,0,9.16,0,18.37
			c4.08,0,12.28,0,24.58,0c0,1.32,0,3.97,0,7.95c-5.46,0-16.3,0-32.53,0h-0.08c0-10.1,0-30.29,0-60.58H633.81z"/>
		<path class="st0" d="M679.37,233.64c3.31,0,9.93,0,19.87,0c6.4,0,11.84,2.4,16.3,7.2c3.2,3.86,4.8,8.11,4.8,12.75
			c0,5.68-2.29,10.59-6.87,14.73c-2.43,1.99-4.55,3.26-6.37,3.81c0,0.17,2.68,4.86,8.03,14.07c1.05,1.77,2.59,4.42,4.63,7.95v0.08
			c-1.6,0-4.75,0-9.44,0c-0.11,0-0.86-1.32-2.23-3.97c-5.9-10.32-9.05-15.89-9.44-16.72c-2.54,0-6.37,0-11.5,0
			c0,3.42,0,10.29,0,20.61l-0.08,0.08c-1.27,0-3.83,0-7.7,0c-0.05,0-0.11-0.03-0.16-0.08c0-10.1,0-30.24,0-60.42L679.37,233.64z
			 M687.15,241.67c0,3.97,0,11.92,0,23.84c2.1,0,6.26,0,12.5,0c3.97,0,7.39-1.66,10.26-4.97c1.6-2.21,2.4-4.44,2.4-6.7
			c0-0.11,0-0.3,0-0.58c0-3.59-1.74-6.68-5.21-9.27c-2.15-1.6-5.13-2.4-8.94-2.4c-2.43,0-6.04,0-10.84,0
			C687.26,241.58,687.2,241.61,687.15,241.67z"/>
		<path class="st0" d="M459.25,318.39c3.31,0,9.93,0,19.86,0c6.4,0,11.84,2.4,16.3,7.2c3.2,3.86,4.8,8.11,4.8,12.75
			c0,5.68-2.29,10.59-6.87,14.73c-2.43,1.99-4.55,3.26-6.37,3.81c0,0.17,2.68,4.86,8.03,14.07c1.05,1.77,2.59,4.42,4.64,7.95v0.08
			c-1.6,0-4.75,0-9.44,0c-0.11,0-0.86-1.32-2.24-3.97c-5.9-10.32-9.05-15.89-9.43-16.72c-2.54,0-6.37,0-11.5,0
			c0,3.42,0,10.29,0,20.61l-0.08,0.08c-1.27,0-3.83,0-7.7,0c-0.06,0-0.11-0.03-0.17-0.08c0-10.1,0-30.24,0-60.42L459.25,318.39z
			 M467.03,326.42c0,3.97,0,11.92,0,23.84c2.1,0,6.26,0,12.5,0c3.97,0,7.39-1.66,10.26-4.97c1.6-2.21,2.4-4.44,2.4-6.7
			c0-0.11,0-0.3,0-0.58c0-3.59-1.74-6.68-5.21-9.27c-2.15-1.6-5.13-2.4-8.94-2.4c-2.43,0-6.04,0-10.84,0
			C467.14,326.34,467.09,326.37,467.03,326.42z"/>
		<path class="st0" d="M510.68,318.39c5.41,0,16.25,0,32.53,0c0,1.32,0,3.97,0,7.95c-4.08,0-12.28,0-24.58,0c0,3.09,0,9.22,0,18.37
			c3.2,0,9.68,0,19.45,0l0.08,0.08c0,1.27,0,3.86,0,7.78l-0.08,0.08c-3.26,0-9.74,0-19.45,0c0,3.04,0,9.16,0,18.37
			c4.08,0,12.28,0,24.58,0c0,1.32,0,3.97,0,7.95c-5.46,0-16.3,0-32.53,0h-0.08c0-10.1,0-30.29,0-60.58H510.68z"/>
		<path class="st0" d="M572.46,317.73c0.17,0,0.41,0,0.75,0c3.14,0,6.23,0.74,9.27,2.23c0.99,0.5,1.96,1.1,2.9,1.82
			c0.44,0.33,1.19,0.97,2.23,1.9c1.05,1.16,1.82,2.1,2.32,2.81c0.38,0.61,0.74,1.21,1.07,1.82c-1.6,0.77-4,1.96-7.2,3.56
			c-0.22-0.5-0.75-1.21-1.57-2.15c-2.54-2.7-5.68-4.06-9.44-4.06c-3.7,0-6.68,1.1-8.94,3.31c-0.88,0.88-1.44,1.63-1.66,2.23
			c-0.66,1.21-0.99,2.51-0.99,3.89c0,0.06,0,0.14,0,0.25c0,1.93,0.69,3.42,2.07,4.47c0.66,0.5,1.3,0.88,1.9,1.16
			c1.38,0.83,3.48,1.63,6.29,2.4c2.15,0.61,4.69,1.21,7.61,1.82c1.66,0.5,3.04,1.02,4.14,1.57c1.05,0.5,2.18,1.19,3.39,2.07
			c0.99,0.88,1.88,1.79,2.65,2.73c2.21,2.98,3.31,6.26,3.31,9.85v0.17c0,3.53-1.08,6.9-3.23,10.1c-0.39,0.55-1.05,1.32-1.99,2.32
			c-1.27,1.16-2.29,1.99-3.06,2.48c-0.88,0.55-1.85,1.05-2.9,1.49c-2.93,1.21-5.93,1.82-9.02,1.82c-4.8,0-9.19-1.41-13.16-4.22
			c-0.66-0.55-1.41-1.19-2.23-1.9c-1.11-1.1-1.88-1.96-2.32-2.57c-0.83-1.16-1.49-2.18-1.99-3.06c-0.5-0.94-0.74-1.49-0.74-1.66
			c1.6-0.77,4-1.9,7.2-3.39c0.44,0.99,1.05,2.01,1.82,3.06c0.38,0.5,0.94,1.13,1.65,1.9c1.05,0.94,1.9,1.6,2.57,1.99
			c2.26,1.21,4.61,1.82,7.04,1.82c0.11,0,0.22,0,0.33,0c2.43,0,4.77-0.61,7.04-1.82c0.61-0.38,1.24-0.85,1.9-1.41
			c0.77-0.77,1.32-1.46,1.66-2.07c0.94-1.6,1.41-3.28,1.41-5.05c0-2.81-1.19-5.05-3.56-6.7c-0.66-0.44-1.3-0.77-1.9-0.99
			c-0.94-0.44-2.43-0.86-4.47-1.24c-5.79-1.32-10.02-2.68-12.66-4.06c-5.85-2.92-8.77-7.31-8.77-13.16c0-3.97,1.27-7.53,3.81-10.68
			c0.83-1.05,1.71-1.93,2.65-2.65c1.16-0.83,2.15-1.46,2.98-1.9c0.99-0.5,2.15-0.96,3.48-1.41
			C568.18,318.03,570.3,317.73,572.46,317.73z"/>
		<path class="st0" d="M630.01,318.39c0.05,0,0.11,0,0.17,0c8,0,15.01,3.12,21.02,9.35c5.35,6.12,8.03,13.11,8.03,20.94
			c0,8.55-3.15,16-9.44,22.35c-5.91,5.3-12.44,7.95-19.62,7.95c-7.23,0-13.74-2.57-19.53-7.7c-2.54-2.65-4.2-4.72-4.97-6.21
			c-3.14-5.02-4.72-10.46-4.72-16.31c0-0.05,0-0.14,0-0.25c0-8.55,3.2-16.03,9.6-22.43c0.66-0.5,1.6-1.24,2.81-2.23
			C618.5,320.21,624.05,318.39,630.01,318.39z M608.9,348.6c0,6.57,2.51,12.25,7.53,17.05c4.03,3.53,8.61,5.3,13.74,5.3
			c6.62,0,12.19-2.92,16.72-8.77c2.87-4.19,4.3-8.58,4.3-13.16c0-0.11,0-0.28,0-0.5c0-5.68-1.96-10.79-5.88-15.31
			c-4.41-4.58-9.46-6.87-15.14-6.87c-6.35,0-11.81,2.73-16.39,8.19C610.53,338.83,608.9,343.52,608.9,348.6z"/>
		<path class="st0" d="M671.5,318.39c1.27,0,3.84,0,7.7,0l0.08,0.08c0,6.18,0,18.49,0,36.91c0,4.47,0.74,7.75,2.23,9.85
			c1.38,2.37,3.7,4.11,6.95,5.21c1.27,0.33,2.48,0.5,3.64,0.5c1.27,0,3.23,0,5.88,0c4.69,0,8.36-2.15,11.01-6.46
			c1.16-2.26,1.74-4.94,1.74-8.03c0-8.44,0-21.1,0-37.99l0.17-0.08c1.27,0,3.83,0,7.7,0c0.05,0,0.11,0.03,0.16,0.08
			c0,6.02,0,18.02,0,36c0,4.8-0.41,8.25-1.24,10.35c-1.71,4.8-4.47,8.44-8.28,10.92c-3.37,2.15-7.42,3.23-12.17,3.23
			c-0.88,0-2.21,0-3.97,0c-6.35,0-11.42-1.88-15.23-5.63c-1.71-1.71-3.01-3.39-3.89-5.05c-1.77-3.53-2.65-7.31-2.65-11.34
			c0-8.55,0-21.38,0-38.49L671.5,318.39z"/>
		<path class="st0" d="M734.35,318.39c3.31,0,9.93,0,19.86,0c6.4,0,11.84,2.4,16.3,7.2c3.2,3.86,4.8,8.11,4.8,12.75
			c0,5.68-2.29,10.59-6.87,14.73c-2.43,1.99-4.55,3.26-6.37,3.81c0,0.17,2.68,4.86,8.03,14.07c1.05,1.77,2.59,4.42,4.64,7.95v0.08
			c-1.6,0-4.75,0-9.44,0c-0.11,0-0.86-1.32-2.24-3.97c-5.9-10.32-9.05-15.89-9.43-16.72c-2.54,0-6.37,0-11.51,0
			c0,3.42,0,10.29,0,20.61l-0.08,0.08c-1.27,0-3.84,0-7.7,0c-0.06,0-0.11-0.03-0.17-0.08c0-10.1,0-30.24,0-60.42L734.35,318.39z
			 M742.13,326.42c0,3.97,0,11.92,0,23.84c2.1,0,6.26,0,12.5,0c3.97,0,7.39-1.66,10.26-4.97c1.6-2.21,2.4-4.44,2.4-6.7
			c0-0.11,0-0.3,0-0.58c0-3.59-1.74-6.68-5.21-9.27c-2.15-1.6-5.13-2.4-8.94-2.4c-2.43,0-6.04,0-10.84,0
			C742.24,326.34,742.19,326.37,742.13,326.42z"/>
		<path class="st0" d="M811.19,318.39h0.08c7.78,0,14.62,3.04,20.53,9.1c2.04,2.37,3.5,4.42,4.39,6.12
			c-0.22,0.22-2.57,1.52-7.04,3.89c-0.77-1.38-1.88-2.95-3.31-4.72c-4.3-4.3-9.16-6.46-14.57-6.46c-5.46,0-10.32,2.18-14.57,6.54
			c-4.14,4.64-6.21,9.88-6.21,15.73c0,6.84,2.62,12.69,7.86,17.55c3.97,3.2,8.16,4.8,12.58,4.8c0.17,0,0.44,0,0.83,0
			c4.85,0,9.38-1.99,13.57-5.96c1.82-1.99,3.12-3.72,3.89-5.21c1.54,0.83,3.86,2.04,6.95,3.64c0,0.06,0,0.14,0,0.25
			c-0.94,1.71-2.18,3.53-3.72,5.46c-6.02,6.57-13.08,9.85-21.19,9.85c-8.06,0-15.09-3.23-21.11-9.68
			c-5.08-6.12-7.61-12.94-7.61-20.44c0-0.05,0-0.17,0-0.33c0-7.61,2.56-14.46,7.7-20.53C796.21,321.59,803.19,318.39,811.19,318.39z
			"/>
		<path class="st0" d="M847.39,318.39c5.41,0,16.25,0,32.53,0c0,1.32,0,3.97,0,7.95c-4.08,0-12.28,0-24.58,0c0,3.09,0,9.22,0,18.37
			c3.2,0,9.68,0,19.45,0l0.08,0.08c0,1.27,0,3.86,0,7.78l-0.08,0.08c-3.26,0-9.74,0-19.45,0c0,3.04,0,9.16,0,18.37
			c4.08,0,12.28,0,24.58,0c0,1.32,0,3.97,0,7.95c-5.46,0-16.3,0-32.53,0h-0.08c0-10.1,0-30.29,0-60.58H847.39z"/>
		<path class="st0" d="M484.58,403.14h0.08c7.78,0,14.62,3.04,20.53,9.1c2.04,2.37,3.5,4.42,4.39,6.12
			c-0.22,0.22-2.57,1.52-7.04,3.89c-0.77-1.38-1.88-2.95-3.31-4.72c-4.3-4.3-9.16-6.46-14.57-6.46c-5.46,0-10.32,2.18-14.57,6.54
			c-4.14,4.63-6.21,9.88-6.21,15.73c0,6.84,2.62,12.69,7.86,17.55c3.97,3.2,8.17,4.8,12.58,4.8c0.17,0,0.44,0,0.83,0
			c4.85,0,9.38-1.99,13.57-5.96c1.82-1.99,3.12-3.72,3.89-5.21c1.54,0.83,3.86,2.04,6.95,3.64c0,0.06,0,0.14,0,0.25
			c-0.94,1.71-2.18,3.53-3.72,5.46c-6.01,6.57-13.08,9.85-21.19,9.85c-8.06,0-15.09-3.23-21.11-9.68
			c-5.08-6.12-7.61-12.94-7.61-20.44c0-0.05,0-0.17,0-0.33c0-7.61,2.57-14.46,7.7-20.53C469.6,406.34,476.58,403.14,484.58,403.14z"
			/>
		<path class="st0" d="M520.78,403.14c5.41,0,16.25,0,32.53,0c0,1.32,0,3.97,0,7.95c-4.08,0-12.28,0-24.58,0c0,3.09,0,9.22,0,18.37
			c3.2,0,9.68,0,19.45,0l0.08,0.08c0,1.27,0,3.86,0,7.78l-0.08,0.08c-3.26,0-9.74,0-19.45,0c0,3.04,0,9.16,0,18.37
			c4.08,0,12.28,0,24.58,0c0,1.32,0,3.97,0,7.95c-5.46,0-16.3,0-32.53,0h-0.08c0-10.1,0-30.29,0-60.58H520.78z"/>
		<path class="st0" d="M566.33,403.14c1.43,0,4.3,0,8.61,0c4.8,7.23,14.48,21.66,29.05,43.29c0.44,0.66,1.32,2.01,2.65,4.06
			c0-7.89,0-23.64,0-47.26l0.08-0.08c1.32,0,3.94,0,7.86,0l0.08,0.08c0,10.1,0,30.24,0,60.42l-0.08,0.08c-1.44,0-4.3,0-8.61,0
			c-1.49-2.1-7.01-10.32-16.55-24.66c-3.42-5.02-8.53-12.58-15.31-22.68c0,7.89,0,23.64,0,47.26l-0.08,0.08c-1.27,0-3.84,0-7.7,0
			c-0.06,0-0.11-0.03-0.17-0.08c0-10.1,0-30.24,0-60.42L566.33,403.14z"/>
		<path class="st0" d="M663.86,403.14c0,1.32,0,3.97,0,7.95c-2.71,0-8.06,0-16.06,0c0,8.77,0,26.32,0,52.64c-1.32,0-3.97,0-7.95,0
			h-0.08c0-8.77,0-26.32,0-52.64c-2.7,0-8.06,0-16.06,0c0-1.32,0-3.97,0-7.95C630.39,403.14,643.77,403.14,663.86,403.14z"/>
		<path class="st0" d="M672.99,403.14c5.41,0,16.25,0,32.53,0c0,1.32,0,3.97,0,7.95c-4.08,0-12.28,0-24.58,0c0,3.09,0,9.22,0,18.37
			c3.2,0,9.68,0,19.45,0l0.08,0.08c0,1.27,0,3.86,0,7.78l-0.08,0.08c-3.26,0-9.74,0-19.45,0c0,3.04,0,9.16,0,18.37
			c4.08,0,12.28,0,24.58,0c0,1.32,0,3.97,0,7.95c-5.46,0-16.3,0-32.53,0h-0.08c0-10.1,0-30.29,0-60.58H672.99z"/>
		<path class="st0" d="M718.54,403.14c3.31,0,9.93,0,19.86,0c6.4,0,11.84,2.4,16.3,7.2c3.2,3.86,4.8,8.11,4.8,12.75
			c0,5.68-2.29,10.59-6.87,14.73c-2.43,1.99-4.55,3.26-6.37,3.81c0,0.17,2.68,4.86,8.03,14.07c1.05,1.77,2.59,4.42,4.64,7.95v0.08
			c-1.6,0-4.75,0-9.44,0c-0.11,0-0.86-1.32-2.24-3.97c-5.9-10.32-9.05-15.89-9.43-16.72c-2.54,0-6.37,0-11.51,0
			c0,3.42,0,10.29,0,20.61l-0.08,0.08c-1.27,0-3.84,0-7.7,0c-0.06,0-0.11-0.03-0.17-0.08c0-10.1,0-30.24,0-60.42L718.54,403.14z
			 M726.32,411.17c0,3.97,0,11.92,0,23.84c2.1,0,6.26,0,12.5,0c3.97,0,7.39-1.66,10.26-4.97c1.6-2.21,2.4-4.44,2.4-6.7
			c0-0.11,0-0.3,0-0.58c0-3.59-1.74-6.68-5.21-9.27c-2.15-1.6-5.13-2.4-8.94-2.4c-2.43,0-6.04,0-10.84,0
			C726.44,411.09,726.38,411.12,726.32,411.17z"/>
	</g>
</g>
<g>
</g>
<g>
</g>
<g>
</g>
<g>
</g>
<g>
</g>
<g>
</g>
</svg>
