<?xml version="1.0" encoding="utf-8"?>
<!-- Generator: Adobe Illustrator 26.1.0, SVG Export Plug-In . SVG Version: 6.00 Build 0)  -->
<svg version="1.1" id="Layer_1" xmlns="http://www.w3.org/2000/svg" xmlns:xlink="http://www.w3.org/1999/xlink" x="0px" y="0px"
	 viewBox="0 0 1024 700" style="enable-background:new 0 0 1024 700;" xml:space="preserve">
<style type="text/css">
	.st0{fill:none;stroke:#000000;stroke-width:0.5;stroke-miterlimit:10;}
	.st1{fill:none;stroke:#000000;stroke-miterlimit:10;}
	.st2{fill:none;stroke:#000000;stroke-width:2;stroke-miterlimit:10;}
</style>
<g>
	<g id="XMLID_1_">
		<g>
			<path d="M512,23.51c126.6,0,229.23,102.63,229.23,229.23S638.61,481.97,512,481.97V381.68c71.21,0,128.94-57.74,128.94-128.94
				c0-71.22-57.74-128.94-128.94-128.94V95.08V66.46V54.09V23.51z"/>
			<path d="M512,209.76c23.74,0,42.98,19.25,42.98,42.98s-19.25,42.98-42.98,42.98V209.76z"/>
			<path d="M512,66.46v28.62H345.59c10.01-10.55,21-20.15,32.82-28.62H512z"/>
			<path d="M512,23.51v30.58H400.33l-0.67-1.21C432.85,34.17,471.17,23.51,512,23.51z"/>
		</g>
		<g>
			<path class="st0" d="M512,295.72c23.74,0,42.98-19.25,42.98-42.98s-19.25-42.98-42.98-42.98"/>
			<path class="st0" d="M512,123.8c71.21,0,128.94,57.72,128.94,128.94c0,71.21-57.74,128.94-128.94,128.94"/>
			<path class="st1" d="M512,181.11c16.13,0,31.01,5.33,42.98,14.33"/>
			<path class="st1" d="M583.64,252.74c0,23.43-11.25,44.24-28.65,57.31"/>
			<path class="st1" d="M512,152.45c9.95,0,19.56,1.45,28.65,4.15"/>
			<path class="st1" d="M582.19,324.38c-11.49,11.27-25.69,19.79-41.53,24.5"/>
			<path class="st0" d="M583.64,322.93c-0.48,0.49-0.97,0.97-1.45,1.45"/>
			<path class="st1" d="M569.31,170.42c25.98,18.13,42.98,48.23,42.98,82.32c0,9.95-1.45,19.58-4.15,28.65"/>
			<path class="st2" d="M398.72,53.4c0.32-0.18,0.62-0.35,0.94-0.53c33.19-18.7,71.51-29.37,112.34-29.37
				c126.6,0,229.23,102.63,229.23,229.23S638.61,481.97,512,481.97c-40.83,0-79.15-10.67-112.36-29.37"/>
			<path class="st2" d="M344.95,95.75c0.21-0.22,0.43-0.45,0.64-0.67c10.01-10.55,21-20.15,32.82-28.62
				c0.92-0.68,1.85-1.34,2.77-1.99"/>
			<path class="st2" d="M312.73,139.35c6.26-10.97,13.37-21.36,21.3-31.09"/>
			<path class="st2" d="M293.87,182.08c3.45-10.7,7.69-21.04,12.61-30.98"/>
			<path class="st2" d="M284.41,225.14c1.26-10.47,3.22-20.73,5.84-30.71"/>
			<path class="st2" d="M283.25,267.67c-0.32-4.93-0.48-9.92-0.48-14.93c0-5.09,0.16-10.16,0.49-15.17"/>
			<path class="st2" d="M290.19,310.8c-2.58-9.84-4.51-19.95-5.75-30.26"/>
			<path class="st2" d="M306.11,353.62c-4.71-9.58-8.77-19.55-12.11-29.83"/>
			<path class="st2" d="M332.66,395.53c-7.26-9.11-13.83-18.77-19.66-28.92"/>
			<path class="st2" d="M378.38,439.02c-12.24-8.8-23.58-18.77-33.84-29.75"/>
		</g>
	</g>
	<polyline points="399.65,452.6 512,452.6 512,438.79 378.06,438.79 344.53,409.27 512,409.27 512,395.53 332.66,395.53 
		313.53,367.52 313,366.6 512,366.6 512,353.62 306.1,353.62 293.99,323.78 512,323.78 512,310.05 289.99,310.05 284.54,281.37 
		512,281.37 512,266.6 283.18,266.6 282.77,238.4 511.35,238.4 511.35,224.09 284.54,224.09 289.99,195.43 512,195.43 512,181.1 
		294.18,181.1 305.81,152.45 512,152.45 512,138.33 313.32,138.33 333.08,109.43 512,109.43 	"/>
	<g>
		<path d="M391.21,540.88l2.74-1.65c1.93,3.55,4.15,5.32,6.67,5.32c1.09,0,2.11-0.25,3.06-0.76c0.96-0.51,1.68-1.18,2.17-2.02
			c0.49-0.84,0.74-1.74,0.74-2.69c0-1.07-0.36-2.13-1.09-3.17c-1.01-1.43-2.86-2.9-5.54-4.39c-2.69-2.03-4.36-3.5-5-4.41
			c-1.14-1.51-1.72-3.15-1.72-4.93c0-1.4,0.33-2.68,1-3.82c0.67-1.14,1.61-2.05,2.83-2.73c1.22-0.67,2.55-1.01,3.99-1.01
			c1.51,0,2.92,0.38,4.24,1.14c1.32,0.76,2.72,2.15,4.19,4.16l-2.63,1.98c-1.2-1.59-2.23-2.65-3.08-3.16s-1.79-0.77-2.8-0.77
			c-1.29,0-2.35,0.39-3.17,1.18c-0.83,0.79-1.24,1.76-1.24,2.9c0,0.69,0.15,1.38,0.43,2.04c0.29,0.67,0.83,1.38,1.61,2.13
			c0.42,0.42,1.81,1.5,4.17,3.24c2.78,2.06,4.69,3.76,5.72,5.1c1.04,1.35,1.55,2.82,1.55,4.43c0,2.35-0.89,4.38-2.66,6.1
			c-1.77,1.72-3.93,2.58-6.46,2.58c-1.97,0-3.75-0.52-5.34-1.56C394,545.07,392.54,543.33,391.21,540.88z"/>
		<path d="M415.21,514.4h3.08v33.04h-3.08V514.4z"/>
		<path d="M425.7,513.82c0.69,0,1.29,0.25,1.79,0.74s0.75,1.09,0.75,1.78s-0.25,1.29-0.75,1.79c-0.5,0.5-1.1,0.75-1.79,0.75
			c-0.7,0-1.29-0.25-1.78-0.75c-0.49-0.5-0.74-1.1-0.74-1.79s0.25-1.29,0.74-1.78S425.01,513.82,425.7,513.82z M424.18,523.61h3.06
			v23.83h-3.06V523.61z"/>
		<path d="M456.7,528l-2.43,1.52c-2.1-2.81-4.97-4.21-8.6-4.21c-2.91,0-5.33,0.93-7.24,2.8c-1.92,1.87-2.88,4.14-2.88,6.82
			c0,1.74,0.44,3.38,1.32,4.92c0.88,1.54,2.09,2.73,3.63,3.57c1.54,0.84,3.26,1.26,5.17,1.26c3.52,0,6.39-1.39,8.6-4.17l2.43,1.59
			c-1.14,1.71-2.68,3.03-4.59,3.96c-1.92,0.93-4.11,1.4-6.57,1.4c-3.75,0-6.87-1.19-9.35-3.58c-2.48-2.39-3.73-5.29-3.73-8.71
			c0-2.32,0.58-4.46,1.75-6.44c1.17-1.98,2.76-3.52,4.78-4.63c2.02-1.11,4.29-1.66,6.81-1.66c1.56,0,3.08,0.24,4.55,0.72
			s2.72,1.1,3.75,1.88C455.12,525.81,455.99,526.8,456.7,528z"/>
		<path d="M482.61,538.97l2.56,1.37c-0.83,1.67-1.8,3-2.91,4.02c-1.12,1.01-2.37,1.78-3.76,2.31c-1.39,0.53-2.96,0.79-4.71,0.79
			c-3.88,0-6.92-1.27-9.1-3.81c-2.19-2.54-3.28-5.41-3.28-8.61c0-3.03,0.93-5.72,2.78-8.08c2.35-3.01,5.5-4.52,9.45-4.52
			c4.04,0,7.28,1.54,9.71,4.63c1.72,2.17,2.59,4.88,2.61,8.12h-21.4c0.06,2.78,0.94,5.06,2.65,6.83c1.71,1.77,3.82,2.66,6.32,2.66
			c1.22,0,2.4-0.21,3.54-0.64c1.14-0.43,2.12-0.99,2.92-1.68C480.8,541.66,481.67,540.53,482.61,538.97z M482.61,532.56
			c-0.41-1.64-1-2.94-1.78-3.92c-0.78-0.98-1.82-1.77-3.11-2.37c-1.29-0.6-2.64-0.9-4.06-0.9c-2.33,0-4.34,0.75-6.02,2.26
			c-1.22,1.1-2.14,2.74-2.76,4.93H482.61z"/>
		<path d="M508.99,546.34c-1.7,0.75-3.52,1.12-5.46,1.12c-3.39,0-6.28-1.22-8.69-3.65s-3.61-5.37-3.61-8.8
			c0-3.49,1.19-6.46,3.58-8.91c2.39-2.45,5.26-3.67,8.62-3.67c1.9,0,3.64,0.39,5.23,1.16c1.59,0.77,3.03,1.95,4.32,3.53v-13.29h3.04
			c0-0.03,0,7.49,0,22.57c-0.26,2.1-1.04,4.24-2.35,6.41C512.26,544.42,510.69,545.6,508.99,546.34z M510.48,541.75
			c1.82-1.85,2.74-4.16,2.74-6.93c0-1.79-0.4-3.42-1.22-4.88s-1.97-2.61-3.48-3.45c-1.51-0.85-3.1-1.27-4.78-1.27
			c-1.65,0-3.2,0.42-4.66,1.27c-1.46,0.85-2.61,2.04-3.48,3.58c-0.86,1.54-1.29,3.15-1.29,4.83c0,1.71,0.43,3.32,1.28,4.82
			c0.85,1.51,2,2.68,3.44,3.53c1.44,0.85,3.02,1.27,4.75,1.27C506.42,544.53,508.65,543.6,510.48,541.75z"/>
		<path d="M531.5,515.27h3.5l10.67,24.89l10.86-24.89h3.52l-14.03,32.21h-0.7L531.5,515.27z"/>
		<path d="M564.33,513.82c0.7,0,1.29,0.25,1.79,0.74s0.75,1.09,0.75,1.78s-0.25,1.29-0.75,1.79c-0.5,0.5-1.1,0.75-1.79,0.75
			s-1.29-0.25-1.78-0.75c-0.49-0.5-0.74-1.1-0.74-1.79s0.25-1.29,0.74-1.78S563.63,513.82,564.33,513.82z M562.8,523.61h3.06v23.83
			h-3.06V523.61z"/>
		<path d="M572.19,538.4l-0.04-2.54c-0.04-1.25,0.01-2.3,0.15-3.17c0.32-2.74,1.01-4.74,2.08-6.02c1.04-1.11,2.11-1.98,3.19-2.58
			c1.79-0.77,3.84-1.13,6.15-1.09c1.79,0,3.46,0.45,4.98,1.36c1.53,0.9,2.62,2.12,3.27,3.65c0.65,1.53,0.98,3.92,0.98,7.18v12.25
			h-3.04v-11.36c0-2.75-0.12-4.59-0.35-5.52c-0.36-1.58-1.08-2.7-2.15-3.36c-1.07-0.66-2.66-0.99-4.76-0.99
			c-1.85,0-3.5,0.54-4.95,1.61c-1.45,1.07-2.12,2.53-2.02,4.39c-0.28,1.19-0.41,3.35-0.41,6.5v8.73h-3.08V538.4z"/>
		<path d="M596.93,523.05h3.24l8.19,18.35l7.95-18.35h3.28l-14.23,32.52h-3.24l4.58-10.49L596.93,523.05z"/>
		<path d="M623.04,514.4h3.08v33.04h-3.08V514.4z"/>
		<path d="M644.43,525.65l-1.96,2.04c-1.65-1.59-3.25-2.39-4.8-2.39c-1,0-1.85,0.33-2.56,0.98c-0.71,0.65-1.06,1.43-1.06,2.32
			c0,0.75,0.3,1.48,0.89,2.17c0.58,0.74,1.8,1.59,3.67,2.54c2.29,1.17,3.84,2.31,4.65,3.41c0.8,1.12,1.19,2.37,1.19,3.76
			c0,1.94-0.68,3.59-2.05,4.94c-1.37,1.35-3.08,2.03-5.14,2.03c-1.38,0-2.69-0.29-3.94-0.88c-1.25-0.59-2.29-1.41-3.1-2.47
			l1.93-2.19c1.56,1.77,3.22,2.65,4.97,2.65c1.22,0,2.26-0.39,3.12-1.18s1.29-1.71,1.29-2.77c0-0.88-0.28-1.67-0.85-2.35
			s-1.85-1.54-3.84-2.56c-2.16-1.09-3.62-2.18-4.39-3.28c-0.78-1.07-1.17-2.3-1.17-3.69c0-1.81,0.62-3.31,1.86-4.51
			s2.79-1.79,4.66-1.79C639.99,522.44,642.2,523.51,644.43,525.65z"/>
	</g>
	<g>
		<path d="M480.24,561.52h2c1.12,0,1.88,0.04,2.27,0.14c0.6,0.14,1.08,0.43,1.46,0.88c0.38,0.45,0.56,1,0.56,1.66
			c0,0.55-0.13,1.03-0.39,1.45s-0.63,0.73-1.11,0.94s-0.9,0.32-1.25,0.32l2.88,4.68h-1.24l-2.88-4.68h-1.31v4.68h-1V561.52z
			 M481.25,562.5v3.42l1.73,0.01c0.67,0,1.17-0.06,1.49-0.19c0.32-0.13,0.57-0.33,0.75-0.61c0.18-0.28,0.27-0.6,0.27-0.94
			c0-0.33-0.09-0.64-0.28-0.92c-0.18-0.28-0.42-0.47-0.72-0.59c-0.29-0.12-0.79-0.18-1.48-0.18H481.25z"/>
		<path d="M494.79,568.95l0.8,0.43c-0.26,0.52-0.56,0.94-0.91,1.26c-0.35,0.32-0.74,0.56-1.17,0.72c-0.43,0.17-0.93,0.25-1.47,0.25
			c-1.21,0-2.16-0.4-2.84-1.19c-0.68-0.79-1.02-1.69-1.02-2.69c0-0.95,0.29-1.79,0.87-2.53c0.73-0.94,1.72-1.41,2.95-1.41
			c1.26,0,2.27,0.48,3.03,1.45c0.54,0.68,0.81,1.53,0.81,2.54h-6.69c0.02,0.87,0.29,1.58,0.83,2.13c0.53,0.55,1.19,0.83,1.98,0.83
			c0.38,0,0.75-0.07,1.11-0.2s0.66-0.31,0.91-0.53C494.23,569.79,494.5,569.44,494.79,568.95z M494.79,566.95
			c-0.13-0.51-0.31-0.92-0.56-1.23c-0.24-0.31-0.57-0.55-0.97-0.74c-0.4-0.19-0.83-0.28-1.27-0.28c-0.73,0-1.36,0.24-1.88,0.71
			c-0.38,0.34-0.67,0.86-0.86,1.54H494.79z"/>
		<path d="M504.85,565.52l-0.76,0.47c-0.66-0.88-1.55-1.32-2.69-1.32c-0.91,0-1.66,0.29-2.26,0.88c-0.6,0.58-0.9,1.29-0.9,2.13
			c0,0.54,0.14,1.06,0.41,1.54c0.28,0.48,0.65,0.85,1.13,1.12s1.02,0.39,1.62,0.39c1.1,0,2-0.43,2.69-1.3l0.76,0.5
			c-0.36,0.53-0.84,0.95-1.44,1.24c-0.6,0.29-1.28,0.44-2.05,0.44c-1.17,0-2.15-0.37-2.92-1.12c-0.78-0.75-1.16-1.65-1.16-2.72
			c0-0.72,0.18-1.4,0.55-2.01c0.36-0.62,0.86-1.1,1.49-1.45c0.63-0.35,1.34-0.52,2.13-0.52c0.49,0,0.96,0.08,1.42,0.22
			c0.46,0.15,0.85,0.34,1.17,0.59C504.35,564.84,504.63,565.14,504.85,565.52z"/>
		<path d="M510.2,563.78c1.14,0,2.09,0.41,2.85,1.24c0.68,0.76,1.03,1.66,1.03,2.7s-0.36,1.94-1.09,2.72
			c-0.72,0.78-1.65,1.16-2.79,1.16c-1.14,0-2.07-0.39-2.79-1.16c-0.72-0.78-1.08-1.68-1.08-2.72c0-1.03,0.34-1.93,1.02-2.69
			C508.1,564.2,509.05,563.78,510.2,563.78z M510.2,564.72c-0.79,0-1.47,0.29-2.04,0.88c-0.57,0.59-0.85,1.3-0.85,2.13
			c0,0.54,0.13,1.04,0.39,1.51c0.26,0.47,0.61,0.83,1.06,1.08c0.44,0.25,0.93,0.38,1.45,0.38c0.53,0,1.02-0.12,1.46-0.38
			c0.44-0.25,0.79-0.61,1.05-1.08c0.26-0.47,0.39-0.97,0.39-1.51c0-0.83-0.28-1.54-0.85-2.13
			C511.67,565.01,510.99,564.72,510.2,564.72z"/>
		<path d="M515.47,568.19v-0.9c0.07-0.45,0.18-0.81,0.31-1.09c0.32-0.78,0.74-1.35,1.28-1.71c0.53-0.36,0.98-0.54,1.33-0.54
			c0.26,0,0.54,0.09,0.84,0.26l-0.5,0.8c-0.42-0.15-0.84-0.03-1.25,0.37s-0.7,0.84-0.86,1.32c-0.12,0.42-0.18,1.21-0.18,2.37v2.52
			h-0.98V568.19z"/>
		<path d="M525.46,571.25c-0.53,0.23-1.1,0.35-1.71,0.35c-1.06,0-1.96-0.38-2.72-1.14c-0.75-0.76-1.13-1.68-1.13-2.75
			c0-1.09,0.37-2.02,1.12-2.78c0.75-0.76,1.65-1.15,2.7-1.15c0.59,0,1.14,0.12,1.64,0.36s0.95,0.61,1.35,1.1v-4.15h0.95
			c0-0.01,0,2.34,0,7.05c-0.08,0.66-0.33,1.32-0.73,2C526.48,570.65,525.99,571.02,525.46,571.25z M525.92,569.82
			c0.57-0.58,0.86-1.3,0.86-2.17c0-0.56-0.13-1.07-0.38-1.52c-0.25-0.46-0.62-0.81-1.09-1.08s-0.97-0.4-1.49-0.4
			c-0.52,0-1,0.13-1.46,0.4c-0.45,0.26-0.82,0.64-1.09,1.12c-0.27,0.48-0.4,0.99-0.4,1.51c0,0.53,0.13,1.04,0.4,1.51
			c0.27,0.47,0.62,0.84,1.08,1.1s0.95,0.4,1.48,0.4C524.66,570.69,525.35,570.4,525.92,569.82z"/>
		<path d="M533.21,561.27h0.96v10.32h-0.96V561.27z"/>
		<path d="M539.67,563.78c1.14,0,2.09,0.41,2.85,1.24c0.7,0.76,1.05,1.65,1.05,2.7c0.01,2.57,0.01,3.88,0,3.92
			c-0.43,0-0.77,0-1.01,0c0-0.03,0-0.6,0-1.69c-0.53,0.99-1.49,1.54-2.88,1.66c-1.14,0-2.07-0.39-2.79-1.16
			c-0.72-0.78-1.08-1.68-1.08-2.72c0-1.03,0.34-1.93,1.02-2.69C537.57,564.2,538.52,563.78,539.67,563.78z M539.67,564.72
			c-0.79,0-1.47,0.29-2.04,0.88c-0.57,0.59-0.86,1.3-0.86,2.13c0,0.54,0.15,1.06,0.44,1.55c0.29,0.5,0.79,0.92,1.48,1.26
			c1.75,0.39,2.99-0.4,3.73-2.38c0.04-0.63-0.03-1.24-0.2-1.82c-0.13-0.26-0.3-0.51-0.52-0.75
			C541.13,565.01,540.46,564.72,539.67,564.72z"/>
		<path d="M546.02,570.15c-0.41-0.68-0.65-1.35-0.73-2c0-4.71,0-7.06,0-7.05h0.95v4.15c0.4-0.49,0.85-0.86,1.35-1.1
			c0.5-0.24,1.04-0.36,1.64-0.36c1.05,0,1.95,0.38,2.69,1.15c0.75,0.76,1.12,1.69,1.12,2.78c0,1.07-0.38,1.99-1.13,2.75
			c-0.75,0.76-1.66,1.14-2.71,1.14c-0.61,0-1.18-0.12-1.71-0.35C546.96,571.02,546.47,570.65,546.02,570.15z M549.12,570.69
			c0.54,0,1.03-0.13,1.48-0.4s0.81-0.63,1.08-1.1c0.27-0.47,0.4-0.97,0.4-1.51c0-0.52-0.13-1.03-0.4-1.51
			c-0.27-0.48-0.63-0.86-1.09-1.12c-0.45-0.26-0.94-0.4-1.46-0.4c-0.52,0-1.02,0.13-1.49,0.4s-0.83,0.62-1.09,1.08
			c-0.25,0.46-0.38,0.96-0.38,1.52c0,0.87,0.29,1.59,0.86,2.17S548.29,570.69,549.12,570.69z"/>
		<path d="M561.23,568.95l0.8,0.43c-0.26,0.52-0.56,0.94-0.91,1.26c-0.35,0.32-0.74,0.56-1.17,0.72s-0.93,0.25-1.47,0.25
			c-1.21,0-2.16-0.4-2.84-1.19c-0.68-0.79-1.02-1.69-1.02-2.69c0-0.95,0.29-1.79,0.87-2.53c0.73-0.94,1.72-1.41,2.95-1.41
			c1.26,0,2.27,0.48,3.03,1.45c0.54,0.68,0.81,1.53,0.81,2.54h-6.69c0.02,0.87,0.29,1.58,0.83,2.13c0.53,0.55,1.19,0.83,1.97,0.83
			c0.38,0,0.75-0.07,1.11-0.2s0.66-0.31,0.91-0.53C560.66,569.79,560.93,569.44,561.23,568.95z M561.23,566.95
			c-0.13-0.51-0.31-0.92-0.56-1.23s-0.57-0.55-0.97-0.74c-0.4-0.19-0.83-0.28-1.27-0.28c-0.73,0-1.36,0.24-1.88,0.71
			c-0.38,0.34-0.67,0.86-0.86,1.54H561.23z"/>
		<path d="M563.91,561.27h0.96v10.32h-0.96V561.27z"/>
	</g>
	<g>
		<path d="M508.11,584.92h1.84v9.4h-0.93v-8.48h-1.48L508.11,584.92z"/>
		<path d="M514,594.4l-0.77-0.49l2.54-3.59c-0.34,0.11-0.66,0.17-0.96,0.17c-0.74,0-1.38-0.27-1.89-0.81
			c-0.52-0.54-0.78-1.2-0.78-1.99c0-0.54,0.13-1.03,0.38-1.47c0.25-0.43,0.61-0.78,1.07-1.04s0.96-0.39,1.49-0.39
			c0.52,0,1,0.12,1.44,0.38c0.44,0.25,0.79,0.6,1.04,1.05s0.38,0.93,0.38,1.44c0,0.39-0.08,0.79-0.23,1.22
			c-0.15,0.42-0.43,0.93-0.83,1.52L514,594.4z M515.03,589.65c0.55,0,1.02-0.19,1.4-0.58c0.38-0.38,0.58-0.85,0.58-1.39
			c0-0.55-0.19-1.02-0.58-1.4c-0.38-0.38-0.85-0.58-1.4-0.58c-0.54,0-1.01,0.19-1.4,0.58c-0.39,0.38-0.58,0.85-0.58,1.4
			c0,0.54,0.19,1,0.58,1.39C514.01,589.46,514.48,589.65,515.03,589.65z"/>
		<path d="M525.16,584.77v0.89h-3.34l-0.46,2.57c0.41-0.12,0.77-0.18,1.1-0.18c0.86,0,1.56,0.29,2.12,0.86s0.83,1.31,0.83,2.2
			c0,0.62-0.14,1.18-0.43,1.7c-0.29,0.51-0.67,0.91-1.16,1.18c-0.49,0.27-1.05,0.41-1.69,0.41c-0.76,0-1.4-0.23-1.93-0.7
			c-0.52-0.47-0.84-1.07-0.94-1.81h0.96c0.07,0.36,0.19,0.65,0.37,0.88c0.17,0.23,0.4,0.41,0.69,0.55c0.29,0.14,0.59,0.21,0.9,0.21
			c0.62,0,1.15-0.23,1.59-0.7s0.66-1.05,0.66-1.75c0-0.64-0.2-1.15-0.6-1.55c-0.4-0.39-0.93-0.59-1.61-0.59
			c-0.55,0-1.22,0.17-2.01,0.51l0.87-4.66H525.16z"/>
		<path d="M526.38,589.7c0-1.24,0.13-2.2,0.4-2.88c0.27-0.68,0.64-1.19,1.13-1.54c0.49-0.35,1.03-0.53,1.63-0.53
			c0.61,0,1.16,0.18,1.65,0.53c0.49,0.35,0.88,0.88,1.17,1.58s0.43,1.65,0.43,2.83c0,1.18-0.14,2.08-0.43,2.7s-0.67,1.11-1.17,1.47
			c-0.5,0.35-1.05,0.53-1.66,0.53c-0.6,0-1.14-0.17-1.62-0.52c-0.48-0.34-0.86-0.86-1.13-1.54
			C526.52,591.66,526.38,590.78,526.38,589.7z M527.27,589.72c0,1.06,0.09,1.82,0.29,2.29c0.19,0.46,0.47,0.84,0.84,1.12
			c0.37,0.28,0.76,0.42,1.17,0.42c0.41,0,0.8-0.14,1.17-0.41s0.64-0.69,0.82-1.24c0.23-0.67,0.35-1.4,0.35-2.19
			c0-0.94-0.1-1.71-0.31-2.32c-0.21-0.6-0.49-1.04-0.86-1.32c-0.37-0.28-0.76-0.42-1.17-0.42c-0.42,0-0.81,0.14-1.18,0.42
			c-0.37,0.28-0.65,0.69-0.84,1.23C527.37,587.85,527.27,588.66,527.27,589.72z"/>
	</g>
</g>
<g>
</g>
<g>
</g>
<g>
</g>
<g>
</g>
<g>
</g>
<g>
</g>
</svg>
