<?xml version="1.0" encoding="utf-8"?>
<!-- Generator: Adobe Illustrator 26.1.0, SVG Export Plug-In . SVG Version: 6.00 Build 0)  -->
<svg version="1.1" id="Layer_1" xmlns="http://www.w3.org/2000/svg" xmlns:xlink="http://www.w3.org/1999/xlink" x="0px" y="0px"
	 viewBox="0 0 1024 700" style="enable-background:new 0 0 1024 700;" xml:space="preserve">
<style type="text/css">
	.st0{fill:none;}
	.st1{fill:none;stroke:#000000;stroke-miterlimit:10;}
	.st2{fill:#FFFFFF;}
	.st3{fill:none;stroke:#000000;stroke-width:8;stroke-miterlimit:10;}
	.st4{fill:#F2F2F2;}
	.st5{fill:#FFFFFF;stroke:#000000;stroke-miterlimit:10;}
</style>
<rect x="207.48" y="43.48" width="613.04" height="613.04"/>
<g>
	<path class="st0" d="M523.71,130.39"/>
	<g>
	</g>
	<g>
	</g>
	<path class="st1" d="M251.18,103.84"/>
	<g id="XMLID_1_">
		<g>
			<polygon class="st2" points="752.09,413.44 752.09,494.13 541.03,494.13 565.64,413.44 			"/>
			<path class="st2" d="M752.09,353.42v27.52c0,3.54-3.38,6.42-7.54,6.42H573.6L585.9,347h158.65
				C748.7,347,752.09,349.88,752.09,353.42z"/>
			<path class="st2" d="M749.17,303.73v27.52c0,3.54-3.38,6.42-7.54,6.42H588.75l12.31-40.36h140.57
				C745.79,297.31,749.17,300.19,749.17,303.73z"/>
			<path class="st2" d="M749.17,277.95H606.96l25.1-82.3l3.9-12.81C689.34,192.69,749.17,217.29,749.17,277.95z"/>
		</g>
		<g>
			<path class="st1" d="M635.96,182.83c-1.88-0.34-3.75-0.67-5.61-0.98c-0.45,0.96-0.94,1.9-1.44,2.84
				c0.32,1.44,0.08,3.02-0.95,4.64c-0.02,0.01-0.03,0.03-0.03,0.06c1.49,1.4,2.26,3.34,1.54,5.69c-0.07,0.21-0.13,0.41-0.22,0.63
				c-4.31,10.81-9.38,21.37-12.31,32.54c-1.71,6.51-4.29,12.71-6.99,18.87c1.26,3.92-0.13,7.75-3.13,10.86
				c-0.37,1.88-0.84,3.72-1.41,5.54c0.13,4.96,0.02,9.82-1.39,14.44h2.95h142.21C749.17,217.29,689.34,192.69,635.96,182.83z"/>
			<path class="st1" d="M565.64,413.44h-5.55c0.92,1.98,0.97,4.29-0.34,6.25c-0.2,0.57-0.47,1.11-0.8,1.64
				c0.54,0.96,0.79,2.11,0.65,3.5c-1.22,11.38-9.11,21.04-12.77,31.9c-1.14,3.42-2.3,6.83-3.67,10.17c-0.8,3.11-1.64,6.22-2.7,9.29
				c0.5,2.94,0.18,5.45-0.87,7.93c0,0.19,0.02,0.36,0,0.56c-0.13,3.32-0.92,6.46-2.14,9.46h3.57h211.06v-80.69H565.64z"/>
			<path class="st1" d="M573.6,387.36h170.95c4.16,0,7.54-2.88,7.54-6.42v-27.52c0-3.54-3.38-6.42-7.54-6.42H585.9h-3.67
				c0.1,0.51,0.13,1.06,0.1,1.63c-0.4,7.42-5.06,12.81-7.37,19.73c-2.09,6.31-5.61,12.61-7.64,19H573.6z"/>
			<path class="st1" d="M588.75,337.67h152.88c4.16,0,7.54-2.88,7.54-6.42v-27.52c0-3.54-3.38-6.42-7.54-6.42H601.06h-3.23
				c0,0.04,0,0.09,0,0.13c0.08,8.42-3.23,15.59-6.85,23.27c-2.61,5.55-3.79,11.4-6.1,16.96H588.75z"/>
			<polyline class="st3" points="524.23,549.26 541.03,494.13 565.64,413.44 573.6,387.36 585.9,347 588.75,337.67 601.06,297.31 
				606.96,277.95 632.06,195.64 635.96,182.83 650.84,134.04 			"/>
		</g>
	</g>
	<g id="XMLID_2_">
		<g>
			<polygon class="st2" points="281,413.69 281,493.76 492.06,493.76 467.45,413.69 			"/>
			<path class="st2" d="M281,354.16v27.29c0,3.52,3.38,6.37,7.54,6.37h170.96l-12.31-40.03H288.54
				C284.39,347.79,281,350.64,281,354.16z"/>
			<path class="st2" d="M283.92,304.86v27.29c0,3.52,3.38,6.37,7.54,6.37h152.88l-12.3-40.03H291.46
				C287.3,298.49,283.92,301.34,283.92,304.86z"/>
			<path class="st2" d="M283.92,279.27h142.23l-25.1-81.64l-3.9-12.71C343.75,194.7,283.92,219.09,283.92,279.27z"/>
		</g>
		<g>
			<path class="st1" d="M397.15,184.92c1.88-0.34,3.75-0.67,5.61-0.98c0.44,0.93,0.92,1.88,1.42,2.82c-0.32,1.42-0.08,2.99,0.95,4.6
				c0.02,0.01,0.03,0.03,0.03,0.04c-1.49,1.39-2.26,3.33-1.54,5.66c0.07,0.2,0.13,0.4,0.22,0.61c4.31,10.73,9.38,21.2,12.31,32.29
				c1.73,6.47,4.29,12.61,7,18.74c-1.27,3.88,0.12,7.67,3.12,10.77c0.37,1.85,0.84,3.69,1.41,5.49c-0.13,4.91-0.02,9.74,1.39,14.31
				h-2.93H283.92C283.92,219.09,343.75,194.7,397.15,184.92z"/>
			<path class="st1" d="M467.45,413.69h5.56c-0.94,1.98-0.99,4.26,0.32,6.21c0.2,0.55,0.47,1.1,0.82,1.61
				c-0.55,0.95-0.8,2.11-0.67,3.47c1.22,11.3,9.11,20.88,12.77,31.65c1.14,3.41,2.3,6.78,3.67,10.09c0.82,3.1,1.64,6.19,2.7,9.23
				c-0.5,2.92-0.18,5.39,0.87,7.87c0,0.17-0.02,0.35,0,0.54c0.13,3.31,0.94,6.41,2.14,9.4h-3.57H281v-80.07H467.45z"/>
			<path class="st1" d="M459.51,387.82H288.54c-4.16,0-7.54-2.85-7.54-6.37v-27.29c0-3.52,3.38-6.37,7.54-6.37h158.65h3.67
				c-0.1,0.5-0.13,1.03-0.1,1.61c0.4,7.36,5.08,12.7,7.37,19.58c2.09,6.24,5.61,12.51,7.64,18.84H459.51z"/>
			<path class="st1" d="M444.34,338.52H291.46c-4.16,0-7.54-2.84-7.54-6.37v-27.29c0-3.52,3.38-6.37,7.54-6.37h140.59h3.22
				c0,0.04,0,0.08,0,0.13c-0.08,8.34,3.23,15.47,6.85,23.09c2.61,5.49,3.79,11.3,6.12,16.82H444.34z"/>
			<polyline class="st3" points="508.87,548.45 492.06,493.76 467.45,413.69 459.51,387.82 447.19,347.79 444.34,338.52 
				432.05,298.49 426.15,279.27 401.05,197.63 397.15,184.92 382.27,136.51 			"/>
		</g>
	</g>
	<polyline class="st4" points="515.33,443.01 447.18,125.06 410.55,125.06 510.48,490.99 522.22,490.99 	"/>
	<polyline class="st4" points="517.36,443.03 585.52,125.06 622.15,125.06 522.22,491.01 510.48,491.01 	"/>
	<g>
		<path class="st4" d="M302.74,508.42c0.08,0,0.25,0.61,0.51,1.82c0.34,1.02,2.83,9.9,7.45,26.62c0.19,0.57,0.44,1.46,0.74,2.67
			h0.06c1.71-4.85,5.12-14.51,10.24-28.96c0.46-1.37,0.74-2.08,0.85-2.16c0.8,0,2.03,0,3.7,0c0.08,0,0.3,0.63,0.68,1.88
			c2.31,6.49,5.78,16.23,10.41,29.24c1.44-5.2,4.32-15.57,8.65-31.12h0.06c0.99,0,2.94,0,5.86,0h0.06
			c-1.9,6.75-5.73,20.2-11.49,40.33c-0.23,0.87-0.36,1.31-0.4,1.31c-1.06,0-2.66,0-4.78,0c-0.11-0.11-1.25-3.28-3.41-9.5
			c-0.53-1.4-3.02-8.42-7.45-21.05c-0.15,0.19-0.49,1.1-1.02,2.73c-2.2,6.18-5.5,15.46-9.9,27.82c-0.8,0-2.39,0-4.78,0
			c-0.04,0-0.28-0.83-0.74-2.5c-2.5-8.68-6.24-21.73-11.21-39.14C297.81,508.42,299.78,508.42,302.74,508.42z"/>
		<path class="st4" d="M358.72,508.42c0.87,0,2.67,0,5.4,0h0.06c0,6.94,0,20.82,0,41.64h-0.06c-0.91,0-2.71,0-5.4,0h-0.06
			c0-6.94,0-20.82,0-41.64H358.72z"/>
		<path class="st4" d="M374.02,508.42c0.99,0,2.96,0,5.92,0c3.3,4.97,9.96,14.89,19.97,29.75c0.3,0.46,0.91,1.38,1.82,2.79
			c0-5.42,0-16.25,0-32.48l0.06-0.06c0.91,0,2.71,0,5.4,0l0.06,0.06c0,6.94,0,20.78,0,41.53l-0.06,0.06c-0.99,0-2.96,0-5.92,0
			c-1.02-1.44-4.82-7.09-11.38-16.95c-2.35-3.45-5.86-8.65-10.52-15.59c0,5.42,0,16.25,0,32.48l-0.06,0.06c-0.87,0-2.64,0-5.29,0
			c-0.04,0-0.08-0.02-0.11-0.06c0-6.94,0-20.78,0-41.53L374.02,508.42z"/>
		<path class="st4" d="M434.67,508.42c0.04,0,0.08,0,0.11,0c5.27,0,9.94,1.99,13.99,5.97c1.44,1.52,2.52,2.96,3.24,4.32
			c0.08,0.15,0.19,0.36,0.34,0.63c-2.73,1.48-4.36,2.31-4.89,2.5c-0.49-0.95-1.19-1.97-2.1-3.07c-1.21-1.25-2.1-2.03-2.67-2.33
			c-2.47-1.71-5.1-2.56-7.91-2.56c-4.36,0-8.12,1.88-11.26,5.63c-2.24,2.96-3.36,6.18-3.36,9.67c0,4.51,1.73,8.42,5.18,11.72
			c2.77,2.43,5.92,3.64,9.44,3.64c4.02,0,7.55-1.61,10.58-4.83c1.78-2.09,2.92-4.3,3.41-6.66c-2.31,0-5.8,0-10.47,0V533
			c0-0.87,0-2.64,0-5.29v-0.06v-0.06c1.9,0,5.69-0.02,11.38-0.06c0.83,0,2.54,0,5.12,0c0,0.04,0.04,0.08,0.11,0.11
			c-0.15,2.92-0.34,4.83-0.57,5.75c-0.65,2.92-1.59,5.35-2.84,7.28c-2.43,3.83-5.82,6.58-10.18,8.25c-2.24,0.76-4.44,1.14-6.6,1.14
			c-4.89,0-9.33-1.76-13.31-5.29c-4.48-4.36-6.71-9.52-6.71-15.47c0-0.04,0-0.09,0-0.17c0-5.88,2.2-11.02,6.6-15.42
			c1.06-0.91,1.73-1.44,1.99-1.59C426.78,509.66,430.57,508.42,434.67,508.42z"/>
		<path class="st4" d="M480.69,508.42c0.04,0,0.08,0,0.11,0c5.5,0,10.32,2.14,14.45,6.43c3.68,4.21,5.52,9.01,5.52,14.39
			c0,5.88-2.16,11-6.49,15.36c-4.06,3.64-8.55,5.46-13.48,5.46c-4.97,0-9.44-1.76-13.43-5.29c-1.74-1.82-2.88-3.24-3.41-4.27
			c-2.16-3.45-3.24-7.19-3.24-11.21c0-0.04,0-0.09,0-0.17c0-5.88,2.2-11.02,6.6-15.42c0.46-0.34,1.1-0.85,1.93-1.54
			C472.78,509.67,476.6,508.42,480.69,508.42z M466.19,529.19c0,4.51,1.73,8.42,5.18,11.72c2.77,2.43,5.92,3.64,9.44,3.64
			c4.55,0,8.38-2.01,11.49-6.03c1.97-2.88,2.96-5.9,2.96-9.04c0-0.08,0-0.19,0-0.34c0-3.91-1.35-7.41-4.04-10.52
			c-3.03-3.15-6.5-4.72-10.41-4.72c-4.36,0-8.12,1.88-11.26,5.63C467.3,522.48,466.19,525.7,466.19,529.19z"/>
		<path class="st4" d="M522.85,508.42c2.28,0,6.84,0,13.71,0c4.44,0,7.96,1.5,10.58,4.49c1.4,1.75,2.11,3.81,2.11,6.2
			c0,0.15,0,0.36,0,0.62c0,3.19-1.21,5.88-3.64,8.08v0.06c0.57,0.27,1.33,0.87,2.28,1.82c1.82,2.01,2.73,4.27,2.73,6.77
			c0,0.46,0,1.14,0,2.05c0,3.91-1.76,7.07-5.29,9.5c-1.78,0.95-2.9,1.42-3.36,1.42c-1.18,0.42-2.86,0.63-5.06,0.63
			c-3.11,0-7.79,0-14.05,0c-0.04,0-0.08-0.02-0.11-0.06c0-6.94,0-20.78,0-41.53L522.85,508.42z M528.19,531.18c0,2.2,0,6.66,0,13.37
			c1.59,0,4.74,0,9.44,0c3.3,0,5.59-1.19,6.88-3.58c0.42-0.8,0.62-1.8,0.62-3.01c0-0.23,0-0.57,0-1.02c0-2.46-1.29-4.15-3.87-5.06
			c-1.21-0.53-2.71-0.8-4.49-0.8c-1.9,0-4.72,0-8.48,0C528.27,531.07,528.23,531.1,528.19,531.18z M528.25,513.88
			c0,1.93,0,5.84,0,11.72c1.33,0,3.98,0,7.96,0c3.34,0,5.69-1.18,7.05-3.53c0.34-0.72,0.51-1.38,0.51-1.99c0-0.3,0-0.72,0-1.25
			c0-2.08-1.46-3.6-4.38-4.55c-0.87-0.26-2.09-0.4-3.64-0.4C534.09,513.88,531.59,513.88,528.25,513.88z"/>
		<path class="st4" d="M558.06,508.42c0.87,0,2.64,0,5.29,0l0.06,0.06c0,4.25,0,12.71,0,25.37c0,3.07,0.51,5.33,1.54,6.77
			c0.95,1.63,2.54,2.83,4.78,3.58c0.87,0.23,1.71,0.34,2.5,0.34c0.87,0,2.22,0,4.04,0c3.22,0,5.75-1.48,7.57-4.44
			c0.8-1.55,1.19-3.39,1.19-5.52c0-5.8,0-14.51,0-26.11l0.11-0.06c0.87,0,2.64,0,5.29,0c0.04,0,0.08,0.02,0.11,0.06
			c0,4.13,0,12.38,0,24.75c0,3.3-0.28,5.67-0.85,7.11c-1.18,3.3-3.07,5.8-5.69,7.51c-2.31,1.48-5.1,2.22-8.36,2.22
			c-0.61,0-1.52,0-2.73,0c-4.36,0-7.85-1.29-10.47-3.87c-1.18-1.18-2.07-2.33-2.67-3.47c-1.21-2.43-1.82-5.02-1.82-7.79
			c0-5.88,0-14.7,0-26.45L558.06,508.42z"/>
		<path class="st4" d="M600.39,508.42c2.28,0,6.83,0,13.65,0c4.4,0,8.14,1.65,11.21,4.95c2.2,2.66,3.3,5.58,3.3,8.76
			c0,3.91-1.57,7.28-4.72,10.13c-1.67,1.37-3.13,2.24-4.38,2.62c0,0.11,1.84,3.34,5.52,9.67c0.72,1.21,1.78,3.04,3.19,5.46v0.06
			c-1.1,0-3.26,0-6.49,0c-0.08,0-0.59-0.91-1.54-2.73c-4.06-7.09-6.22-10.92-6.49-11.49c-1.75,0-4.38,0-7.91,0
			c0,2.35,0,7.07,0,14.17l-0.06,0.06c-0.87,0-2.64,0-5.29,0c-0.04,0-0.08-0.02-0.11-0.06c0-6.94,0-20.78,0-41.53L600.39,508.42z
			 M605.73,513.94c0,2.73,0,8.19,0,16.38c1.44,0,4.3,0,8.59,0c2.73,0,5.08-1.14,7.05-3.41c1.1-1.52,1.65-3.05,1.65-4.61
			c0-0.08,0-0.21,0-0.4c0-2.46-1.2-4.59-3.58-6.37c-1.48-1.1-3.53-1.65-6.14-1.65c-1.67,0-4.15,0-7.45,0
			C605.81,513.88,605.77,513.9,605.73,513.94z"/>
		<path class="st4" d="M652.44,508.42c0.04,0,0.08,0,0.11,0c5.27,0,9.94,1.99,14,5.97c1.44,1.52,2.52,2.96,3.24,4.32
			c0.08,0.15,0.19,0.36,0.34,0.63c-2.73,1.48-4.36,2.31-4.89,2.5c-0.49-0.95-1.19-1.97-2.1-3.07c-1.21-1.25-2.11-2.03-2.67-2.33
			c-2.47-1.71-5.1-2.56-7.91-2.56c-4.36,0-8.12,1.88-11.26,5.63c-2.24,2.96-3.36,6.18-3.36,9.67c0,4.51,1.73,8.42,5.18,11.72
			c2.77,2.43,5.92,3.64,9.44,3.64c4.02,0,7.55-1.61,10.58-4.83c1.78-2.09,2.92-4.3,3.41-6.66c-2.31,0-5.8,0-10.47,0V533
			c0-0.87,0-2.64,0-5.29v-0.06v-0.06c1.9,0,5.69-0.02,11.38-0.06c0.83,0,2.54,0,5.12,0c0,0.04,0.04,0.08,0.11,0.11
			c-0.15,2.92-0.34,4.83-0.57,5.75c-0.65,2.92-1.59,5.35-2.84,7.28c-2.43,3.83-5.82,6.58-10.18,8.25c-2.24,0.76-4.44,1.14-6.6,1.14
			c-4.89,0-9.33-1.76-13.31-5.29c-4.48-4.36-6.71-9.52-6.71-15.47c0-0.04,0-0.09,0-0.17c0-5.88,2.2-11.02,6.6-15.42
			c1.06-0.91,1.73-1.44,1.99-1.59C644.55,509.66,648.34,508.42,652.44,508.42z"/>
		<path class="st4" d="M680.66,508.42c3.72,0,11.17,0,22.36,0c0,0.91,0,2.73,0,5.46c-2.81,0-8.44,0-16.9,0c0,2.12,0,6.33,0,12.63
			c2.2,0,6.66,0,13.37,0l0.06,0.06c0,0.87,0,2.66,0,5.35l-0.06,0.06c-2.24,0-6.69,0-13.37,0c0,2.09,0,6.3,0,12.63
			c2.81,0,8.44,0,16.9,0c0,0.91,0,2.73,0,5.46c-3.75,0-11.21,0-22.36,0h-0.06c0-6.94,0-20.82,0-41.64H680.66z"/>
		<path class="st4" d="M711.09,508.42c2.28,0,6.83,0,13.65,0c4.4,0,8.14,1.65,11.21,4.95c2.2,2.66,3.3,5.58,3.3,8.76
			c0,3.91-1.57,7.28-4.72,10.13c-1.67,1.37-3.13,2.24-4.38,2.62c0,0.11,1.84,3.34,5.52,9.67c0.72,1.21,1.78,3.04,3.19,5.46v0.06
			c-1.1,0-3.26,0-6.49,0c-0.08,0-0.59-0.91-1.54-2.73c-4.06-7.09-6.22-10.92-6.49-11.49c-1.75,0-4.38,0-7.91,0
			c0,2.35,0,7.07,0,14.17l-0.06,0.06c-0.87,0-2.64,0-5.29,0c-0.04,0-0.08-0.02-0.11-0.06c0-6.94,0-20.78,0-41.53L711.09,508.42z
			 M716.44,513.94c0,2.73,0,8.19,0,16.38c1.44,0,4.3,0,8.59,0c2.73,0,5.08-1.14,7.05-3.41c1.1-1.52,1.65-3.05,1.65-4.61
			c0-0.08,0-0.21,0-0.4c0-2.46-1.2-4.59-3.58-6.37c-1.48-1.1-3.53-1.65-6.14-1.65c-1.67,0-4.15,0-7.45,0
			C716.52,513.88,716.48,513.9,716.44,513.94z"/>
	</g>
	<polyline class="st4" points="440.55,125.06 461.59,125.06 516.56,448.62 	"/>
	<polyline class="st4" points="592.16,125.06 571.12,125.06 516.14,448.18 	"/>
	<g>
		<g>
			<path class="st4" d="M508.27,442.41c-0.01,0.28,0,0.55,0.03,0.83c0.06,0.44,0.12,0.89,0.18,1.33c0.15,0.65,0.45,1.22,0.89,1.7
				c0.22,0.38,0.52,0.67,0.9,0.9c0.48,0.44,1.05,0.74,1.7,0.89c0.44,0.06,0.89,0.12,1.33,0.18c0.44-0.06,0.89-0.12,1.33-0.18
				c0.65-0.15,1.22-0.45,1.7-0.89c0.54-0.35,0.97-0.82,1.29-1.4c0.01-0.01,0.02-0.03,0.03-0.04c-0.26,0.34-0.52,0.67-0.78,1.01
				c0.01-0.01,0.02-0.02,0.03-0.03c-0.34,0.26-0.67,0.52-1.01,0.78c0.01-0.01,0.03-0.02,0.04-0.02c-0.4,0.17-0.8,0.34-1.19,0.5
				c0.03-0.01,0.06-0.02,0.09-0.02c-0.44,0.06-0.89,0.12-1.33,0.18c0.02,0,0.03,0,0.05,0c0.69,0.03,1.33-0.12,1.93-0.43
				c0.62-0.2,1.16-0.55,1.61-1.03c0.49-0.45,0.83-0.99,1.03-1.61c0.31-0.6,0.46-1.24,0.43-1.93c-0.06-0.44-0.12-0.89-0.18-1.33
				c-0.24-0.85-0.67-1.58-1.29-2.21c-0.34-0.26-0.67-0.52-1.01-0.78c-0.78-0.45-1.62-0.68-2.52-0.68c-0.77-0.07-2.01,0.29-2.66,0.7
				c-0.01,0.01-0.03,0.02-0.04,0.02c-0.34,0.26-0.67,0.52-1.01,0.78c-0.17,0.16-0.31,0.33-0.42,0.54c-0.15,0.17-0.29,0.35-0.42,0.54
				c3.11,0.84,6.21,1.68,9.32,2.52c-0.03-0.28-0.04-0.55-0.03-0.83c0.03-0.69-0.12-1.33-0.43-1.93c-0.2-0.62-0.55-1.16-1.03-1.61
				c-0.45-0.49-0.99-0.83-1.61-1.03c-0.6-0.31-1.24-0.46-1.93-0.43c-0.44,0.06-0.89,0.12-1.33,0.18c-0.85,0.24-1.58,0.67-2.21,1.29
				c-0.26,0.34-0.52,0.67-0.78,1.01C508.5,440.67,508.27,441.51,508.27,442.41L508.27,442.41z"/>
		</g>
	</g>
	<g>
		<g>
			<path class="st4" d="M518.67,447.62c6.43,0,6.45-10,0-10C512.23,437.62,512.22,447.62,518.67,447.62L518.67,447.62z"/>
		</g>
	</g>
	<g>
		<g>
			<path class="st4" d="M520.49,445.08c6.43,0,6.45-10,0-10C514.06,435.08,514.05,445.08,520.49,445.08L520.49,445.08z"/>
		</g>
	</g>
	<g>
		<g>
			<path class="st4" d="M520.33,444.77c6.43,0,6.45-10,0-10C513.9,434.77,513.89,444.77,520.33,444.77L520.33,444.77z"/>
		</g>
	</g>
	<g>
		<g>
			<path class="st4" d="M520.49,444.03c6.43,0,6.45-10,0-10C514.06,434.03,514.05,444.03,520.49,444.03L520.49,444.03z"/>
		</g>
	</g>
	<g>
		<g>
			<path class="st4" d="M520.46,443.31c6.43,0,6.45-10,0-10C514.03,433.31,514.02,443.31,520.46,443.31L520.46,443.31z"/>
		</g>
	</g>
	<g>
		<g>
			<path class="st4" d="M520.68,441.51c6.43,0,6.45-10,0-10C514.24,431.51,514.23,441.51,520.68,441.51L520.68,441.51z"/>
		</g>
	</g>
	<g>
		<g>
			<path class="st4" d="M521.31,439.37c6.43,0,6.45-10,0-10C514.88,429.37,514.87,439.37,521.31,439.37L521.31,439.37z"/>
		</g>
	</g>
	<g>
		<g>
			<path class="st4" d="M521.76,435.88c6.43,0,6.45-10,0-10C515.33,425.88,515.32,435.88,521.76,435.88L521.76,435.88z"/>
		</g>
	</g>
	<g>
		<g>
			<path class="st4" d="M518.64,448.31c6.43,0,6.45-10,0-10C512.2,438.31,512.19,448.31,518.64,448.31L518.64,448.31z"/>
		</g>
	</g>
	<g>
		<g>
			<path class="st4" d="M505.26,433.39c0.05,1.94,0.43,3.8,1.09,5.61c0.63,1.72,1.24,3.71,2.15,5.28c1.21,2.09,3.51,3.19,5.89,3.08
				c1.56-0.21,1.77-0.24,0.64-0.09c0.47,0.05,0.93,0.05,1.4,0c1.15-0.08,2.29-0.33,3.39-0.63c2.38-0.65,3.95-3.06,3.58-5.49
				c-0.4-2.65-2.36-4.03-4.91-4.34c-0.92-0.11-1.83-0.34-2.73-0.56c-0.44,3.27-0.89,6.55-1.33,9.82c2.22,0.18,4.49-0.12,6.59-0.86
				c5.46-1.91,4.3-9.28-1.33-9.82c-1.48-0.14-2.91-0.38-4.37-0.69c-0.44,3.27-0.89,6.55-1.33,9.82c1.2-0.13,2.41-0.26,3.61-0.39
				c2.68-0.29,5-2.09,5-5c0-2.69-2.29-5.03-5-5c-1.94,0.02-3.88,0.01-5.82-0.04c-2.7-0.07-5,2.35-5,5c0,2.8,2.29,4.89,5,5
				c1.6,0.06,3.19,0.09,4.79,0.07c6.43-0.08,6.45-10.08,0-10c-1.6,0.02-3.19,0-4.79-0.07c0,3.33,0,6.67,0,10
				c1.94,0.05,3.88,0.06,5.82,0.04c0-3.33,0-6.67,0-10c-1.2,0.13-2.41,0.26-3.61,0.39c-2.47,0.27-4.6,1.7-4.91,4.34
				c-0.28,2.32,1.11,4.97,3.58,5.49c2.32,0.49,4.67,0.82,7.02,1.04c-0.44-3.27-0.89-6.55-1.33-9.82c-1.42,0.5-2.43,0.62-3.93,0.5
				c-5.65-0.45-6.75,8.51-1.33,9.82c1.78,0.43,3.57,0.69,5.39,0.91c-0.44-3.27-0.89-6.55-1.33-9.82c-0.63,0.17-1.16,0.24-1.78,0.3
				c-0.24-0.02-0.47-0.03-0.71-0.03c-2.05,0.16-1.77,0.31,0.84,0.47c0.6,0.6,1.2,1.2,1.79,1.79c-0.93-1.58-2.01-4.46-2.05-6.15
				c-0.07-2.7-2.25-5-5-5C507.61,428.39,505.19,430.68,505.26,433.39L505.26,433.39z"/>
		</g>
	</g>
	<g>
		<g>
			<path class="st4" d="M501.16,431.17c10.54,0,21.07,0,31.61,0c6.43,0,6.45-10,0-10c-10.54,0-21.07,0-31.61,0
				C494.73,421.17,494.72,431.17,501.16,431.17L501.16,431.17z"/>
		</g>
	</g>
	<g>
		<g>
			<path class="st4" d="M524.08,425.05c-6.45,0.06-12.9,0.11-19.34,0.17c-5.86,0.05-6.5,7.95-1.33,9.82c4.34,1.57,7.15,5.84,11.58,7
				c4.15,1.09,9.12-1.44,9.84-5.83c1.04-6.3-8.6-9-9.64-2.66c1.93-0.56,2.45-1.14,1.56-1.75c-0.35-0.31-0.71-0.62-1.06-0.93
				c-0.95-0.79-1.93-1.58-2.96-2.27c-2.06-1.39-4.34-2.37-6.67-3.21c-0.44,3.27-0.89,6.55-1.33,9.82c6.45-0.06,12.9-0.11,19.34-0.17
				C530.51,434.99,530.53,424.99,524.08,425.05L524.08,425.05z"/>
		</g>
	</g>
	<g>
		<g>
			<path class="st4" d="M497.12,410.76c12.74,0,25.47,0,38.21,0c6.43,0,6.45-10,0-10c-12.74,0-25.47,0-38.21,0
				C490.69,400.76,490.68,410.76,497.12,410.76L497.12,410.76z"/>
		</g>
	</g>
	<g>
		<g>
			<path class="st4" d="M520.41,430.03c0.96-3.49,0.18-7.01-1.8-10c-1.38-2.1-4.28-4.22-4.7-6.8c0,0.89,0,1.77,0,2.66
				c0.04-0.13,0.07-0.26,0.11-0.39c-0.77,1-1.53,1.99-2.3,2.99c0.13-0.08,0.26-0.16,0.39-0.24c-0.84,0.23-1.68,0.46-2.52,0.68
				c1.9-0.18,3.85-0.05,5.76-0.05c1.83,0,4.05-0.36,5.83-0.06c-0.74-0.43-1.47-0.86-2.21-1.29c0.13,0.16,0.26,0.32,0.39,0.48
				c-0.43-1.62-0.86-3.24-1.29-4.86c-0.23,0.86-0.72,1.7-1.09,2.52c-0.18,0.4-1.4,2.6-0.76,2.21c0.84-0.23,1.68-0.46,2.52-0.68
				c-0.22-0.01-0.45-0.02-0.67-0.04c1.18,0.49,2.36,0.98,3.54,1.46c-1.34-1.1-2.21-2.76-3.71-3.85c-1.66-1.21-3.55-2.04-5.59-2.34
				c1.16,2.05,2.33,4.1,3.49,6.15c0.06-0.2,0.11-0.41,0.17-0.61c-0.77,1-1.53,1.99-2.3,2.99c0.17-0.12,0.34-0.25,0.51-0.37
				c2.18-1.58,3.25-4.35,1.79-6.84c-1.26-2.15-4.64-3.39-6.84-1.79c-1.54,1.12-2.47,2.11-2.97,3.97c-0.65,2.37,0.8,5.76,3.49,6.15
				c2.74,0.4,2.97,1.92,4.88,3.62c2.92,2.58,7.09,1.55,9.24-1.44c1.59-2.2,3.16-5.62,3.87-8.24c1.09-3.99-2.2-6.88-5.88-7.15
				c-3.46-0.25-7.05-0.03-10.52,0.01c-3.11,0.03-6.15,0.9-6.99,4.35c-0.75,3.1,1.23,6.23,3.05,8.56c1.02,1.31,3.96,3.75,3.45,5.59
				C509.05,433.58,518.69,436.23,520.41,430.03L520.41,430.03z"/>
		</g>
	</g>
	<g>
		<g>
			<path class="st4" d="M498.49,375.02c11.44,0,22.88,0,34.32,0c6.43,0,6.45-10,0-10c-11.44,0-22.88,0-34.32,0
				C492.06,365.02,492.05,375.02,498.49,375.02L498.49,375.02z"/>
		</g>
	</g>
	<g>
		<g>
			<path class="st4" d="M515.29,403.85c-0.02-6.02,0.5-12.33-0.18-18.31c-0.23-2.06-0.7-4.02-2.05-5.67
				c-0.6-0.73-1.43-1.49-2.26-1.97c-0.52-0.3-2.73-1.76-1.38-0.49c0.49,1.18,0.98,2.36,1.46,3.54c-0.02-0.37-0.03-0.74-0.05-1.11
				c-0.49,1.18-0.98,2.36-1.46,3.54c1.21-1.52,6.08-0.65,7.78-0.6c2.87,0.07,5.74,0.14,8.61,0.21c-1.67-1.67-3.33-3.33-5-5
				c-0.44,6.74-1.45,13.33-3.01,19.9c2.79-0.74,5.57-1.47,8.36-2.21c-4.37-3.99-8.53-7.91-11.18-13.28
				c-2.28,2.28-4.56,4.56-6.84,6.84c4.91,3.41,12.24,4.51,15.27-1.93c-3.11-0.84-6.21-1.68-9.32-2.52
				c-0.52,5.63-0.78,11.3-2.52,16.73c3.21,0,6.43,0,9.64,0c-0.83-4.44-1.95-8.74-3.39-13.02c-1.63-4.85-7.92-4.62-9.64,0
				c-0.64,1.72-0.59,3.01-0.08,4.76c1.64,5.66,9.32,4.13,9.82-1.33c0.31-3.35-0.05-6.5-0.99-9.73c-1.61,2.11-3.21,4.22-4.82,6.33
				c1.06,0.05,2.13,0.1,3.19,0.14c4.09,0.18,6.92-5.78,3.54-8.54c-4.44-3.62-9.09-6.75-14.22-9.32c-5.74-2.87-10.81,5.75-5.05,8.63
				c4.34,2.17,8.43,4.68,12.2,7.76c1.18-2.85,2.36-5.69,3.54-8.54c-1.06-0.05-2.13-0.1-3.19-0.14c-3.23-0.14-5.7,3.31-4.82,6.33
				c0.71,2.43,0.86,4.56,0.63,7.07c3.27-0.44,6.55-0.89,9.82-1.33c0.03,0.18,0.05,0.37,0.08,0.55c-3.21,0-6.43,0-9.64,0
				c1.44,4.28,2.56,8.58,3.39,13.02c0.96,5.14,8.25,4.36,9.64,0c1.99-6.25,2.27-12.89,2.87-19.38c0.45-4.86-7.24-6.93-9.32-2.52
				c-0.09-0.87-0.62-1.42-1.59-1.66c-4.44-3.08-8.86,2.75-6.84,6.84c3,6.09,7.79,10.78,12.74,15.31c2.66,2.43,7.45,1.62,8.36-2.21
				c1.76-7.42,2.87-14.94,3.37-22.56c0.18-2.74-2.44-4.94-5-5c-6.51-0.16-24.12-3.41-24.92,6.86c-0.15,1.88,0.51,3.63,1.83,4.94
				c0.77,0.76,1.75,0.95,2.52,1.58c1.41,1.16,0-0.21-0.01-0.24c0.62,5.78,0.08,11.9,0.1,17.71
				C505.31,410.28,515.31,410.29,515.29,403.85L515.29,403.85z"/>
		</g>
	</g>
	<circle class="st5" cx="516.15" cy="145.61" r="21.35"/>
	<g>
		<g>
			<path class="st4" d="M511.33,443.99c0,2.6,0,5.19,0,7.79c0,2.62,2.3,5.12,5,5c2.71-0.12,5-2.2,5-5c0-2.6,0-5.19,0-7.79
				c0-2.62-2.3-5.12-5-5C513.62,439.11,511.33,441.19,511.33,443.99L511.33,443.99z"/>
		</g>
	</g>
	<g>
		<g>
			<path class="st4" d="M531.99,369.44c-6,0.77-11.17,2.91-16.27,6.15c-2.09,1.33-4.46,2.69-6.28,4.39
				c-1.34,1.26-2.18,4.36-3.7,5.13c1.68,0,3.36,0,5.05,0c-1.17-0.56-1.98-1.75-2.76-2.73c-3.42-4.3-9.17,0.52-8.36,4.86
				c1.32,7.08,5.21,15.27,9.36,21.11c1.93,2.72,4.07,5.64,7.21,7c3.72,1.6,8,0.28,11.83-0.33c4.74-0.75,4.81-8.97,0-9.64
				c-7.75-1.08-15.44-1.52-23.26-1.07c-6.4,0.37-6.44,10.38,0,10c6.88-0.4,13.77-0.25,20.6,0.71c0-3.21,0-6.43,0-9.64
				c-2.32,0.37-4.24,1.17-6.07,0c-1.93-1.24-3.5-4.76-4.56-6.77c-2.24-4.23-4.59-9.28-5.47-14.02c-2.79,1.62-5.57,3.24-8.36,4.86
				c4.04,5.07,9.33,6.86,13.55,0.87c1.99-2.82,3.23-4.17,6.26-6.1c3.45-2.19,7.1-4.25,11.23-4.78
				C538.28,378.63,538.36,368.62,531.99,369.44L531.99,369.44z"/>
		</g>
	</g>
</g>
<g>
</g>
<g>
</g>
<g>
</g>
<g>
</g>
<g>
</g>
<g>
</g>
</svg>
