<?xml version="1.0" encoding="utf-8"?>
<!-- Generator: Adobe Illustrator 26.1.0, SVG Export Plug-In . SVG Version: 6.00 Build 0)  -->
<svg version="1.1" id="Layer_1" xmlns="http://www.w3.org/2000/svg" xmlns:xlink="http://www.w3.org/1999/xlink" x="0px" y="0px"
	 viewBox="0 0 1024 700" style="enable-background:new 0 0 1024 700;" xml:space="preserve">
<style type="text/css">
	.st0{fill:#1BA2DC;}
	.st1{fill:#1994BF;}
</style>
<g>
	<g>
		<g>
			<path class="st0" d="M439.77,200.3c0,0-13.07-15.34-77.83-13.07l185.19,305.06c0,0,19.88,19.88,76.69,20.45
				c56.81,0.57,69.87,0,69.87,0L439.77,200.3z"/>
		</g>
	</g>
	<g>
		<g>
			<path class="st1" d="M435.1,383.41L330.3,512.37c0,0,13.07,0.57,69.87,0c56.81-0.57,76.69-20.45,76.69-20.45l21.96-36.18
				L435.1,383.41z"/>
		</g>
	</g>
	<g>
		<g>
			<path class="st1" d="M605.92,200.3l-74.93,92.2l59.51,48.34l93.25-153.61C618.99,184.96,605.92,200.3,605.92,200.3z"/>
		</g>
	</g>
</g>
<g>
</g>
<g>
</g>
<g>
</g>
<g>
</g>
<g>
</g>
<g>
</g>
</svg>
