<?xml version="1.0" encoding="utf-8"?>
<!-- Generator: Adobe Illustrator 26.1.0, SVG Export Plug-In . SVG Version: 6.00 Build 0)  -->
<svg version="1.1" id="Layer_1" xmlns="http://www.w3.org/2000/svg" xmlns:xlink="http://www.w3.org/1999/xlink" x="0px" y="0px"
	 viewBox="0 0 1024 700" style="enable-background:new 0 0 1024 700;" xml:space="preserve">
<style type="text/css">
	.st0{fill:#1BA2DC;}
	.st1{fill:#1994BF;}
</style>
<g>
	<g>
		<g>
			<path class="st0" d="M120.74,278.47c0,0-5.26-6.17-31.33-5.26l74.55,122.8c0,0,8,8,30.87,8.23c22.87,0.23,28.13,0,28.13,0
				L120.74,278.47z"/>
		</g>
	</g>
	<g>
		<g>
			<path class="st1" d="M118.86,352.18l-42.19,51.91c0,0,5.26,0.23,28.13,0c22.87-0.23,30.87-8.23,30.87-8.23l8.84-14.56
				L118.86,352.18z"/>
		</g>
	</g>
	<g>
		<g>
			<path class="st1" d="M187.62,278.47l-30.16,37.11l23.95,19.46l37.54-61.83C192.88,272.29,187.62,278.47,187.62,278.47z"/>
		</g>
	</g>
	<g>
		<path class="st0" d="M257.19,400.41V275.23h52.78c4.06,0,8.2,0.48,12.43,1.44c4.23,0.96,8.12,2.88,11.67,5.75
			c3.55,2.88,6.43,7.19,8.63,12.94c2.2,5.75,3.3,13.36,3.3,22.84s-1.1,17.14-3.3,23c-2.2,5.87-5.05,10.32-8.54,13.36
			c-3.5,3.04-7.27,5.08-11.33,6.09c-4.06,1.01-8.01,1.52-11.84,1.52c-2.03,0-4.4-0.08-7.1-0.25c-2.71-0.17-5.44-0.42-8.2-0.76
			c-2.76-0.34-5.33-0.65-7.7-0.93c-2.37-0.28-4.29-0.53-5.75-0.76v40.94H257.19z M282.23,339.68h24.87c2.93,0,5.44-0.7,7.53-2.11
			c2.08-1.41,3.64-3.66,4.65-6.77c1.02-3.1,1.52-7.25,1.52-12.43c0-5.08-0.54-9.11-1.61-12.09c-1.07-2.99-2.6-5.16-4.57-6.51
			c-1.97-1.35-4.31-2.03-7.02-2.03h-25.37V339.68z"/>
		<path class="st0" d="M391.84,400.41c-6.43,0-11.87-0.99-16.32-2.96c-4.46-1.97-7.78-5.13-9.98-9.47c-2.2-4.34-3.3-10.06-3.3-17.17
			v-95.57h25.04v91.51c0,2.71,0.48,4.91,1.44,6.6c0.96,1.69,2.28,2.85,3.98,3.47c1.69,0.62,3.61,0.93,5.75,0.93h39.58v22.67H391.84z
			"/>
		<path class="st0" d="M444.78,400.41l39.24-125.17h31.63l39.24,125.17h-26.05l-7.95-26.22h-42.63l-7.78,26.22H444.78z
			 M484.19,351.69h30.79l-15.39-54.98L484.19,351.69z"/>
		<path class="st0" d="M569.45,400.41V275.23h20.13l52.44,82.55v-82.55h25.04v125.17h-20.13l-52.27-82.55v82.55H569.45z"/>
		<path class="st0" d="M718.13,401.25c-2.71,0-5.81-0.25-9.3-0.76c-3.5-0.51-6.85-1.66-10.06-3.47c-3.21-1.8-5.86-4.54-7.95-8.2
			c-2.09-3.66-3.13-8.71-3.13-15.14v-69.86c0-5.52,0.85-10.15,2.54-13.87c1.69-3.72,3.95-6.65,6.77-8.8
			c2.82-2.14,5.92-3.66,9.3-4.57c3.38-0.9,6.71-1.35,9.98-1.35c8.46,0,15.93,0.11,22.41,0.34c6.48,0.23,12.32,0.48,17.51,0.76
			c5.19,0.28,9.92,0.65,14.21,1.1v20.97h-46.69c-3.5,0-6.2,0.85-8.12,2.54c-1.92,1.69-2.88,4.29-2.88,7.78v18.1l49.56,1.35v19.79
			l-49.56,1.35v17.25c0,2.93,0.48,5.22,1.44,6.85c0.96,1.64,2.25,2.76,3.89,3.38c1.63,0.62,3.35,0.93,5.16,0.93h47.19v20.98
			c-4.96,0.57-10.46,1.01-16.49,1.35c-6.03,0.34-12.12,0.62-18.27,0.85C729.49,401.14,723.66,401.25,718.13,401.25z"/>
		<path class="st0" d="M848.89,400.41V298.07l-22.16,2.88v-16.07l24.87-10.83h22.33v126.36H848.89z"/>
		<path class="st0" d="M911.81,400.41V298.07l-22.16,2.88v-16.07l24.87-10.83h22.33v126.36H911.81z"/>
	</g>
</g>
<g>
</g>
<g>
</g>
<g>
</g>
<g>
</g>
<g>
</g>
<g>
</g>
</svg>
